<svg width="224" height="171" viewBox="0 0 224 171" fill="none" xmlns="http://www.w3.org/2000/svg">
<path d="M183.091 22.7162C183.091 22.7162 160.112 -1.02718 123.73 0.108577C87.3477 1.24434 56.3215 24.2395 30.6619 42.2394C5.00232 60.2394 -1.88761 88.2081 13.0495 110.035C27.9867 131.862 51.73 122.674 81.9811 136.841C112.232 151.009 117.959 159.056 151.682 155.611C185.405 152.166 211.049 116.931 207.216 79.3966C203.384 41.8626 183.091 22.7162 183.091 22.7162Z" fill="#00A746"/>
<path opacity="0.7" d="M183.091 22.7162C183.091 22.7162 160.112 -1.02718 123.73 0.108577C87.3477 1.24434 56.3215 24.2395 30.6619 42.2394C5.00232 60.2394 -1.88761 88.2081 13.0495 110.035C27.9867 131.862 51.73 122.674 81.9811 136.841C112.232 151.009 117.959 159.056 151.682 155.611C185.405 152.166 211.049 116.931 207.216 79.3966C203.384 41.8626 183.091 22.7162 183.091 22.7162Z" fill="white"/>
<path d="M191.897 167.211C191.897 168.793 156.371 170.069 112.593 170.069C68.8148 170.069 33.2832 168.793 33.2832 167.211C33.2832 165.628 68.8094 164.358 112.593 164.358C156.376 164.358 191.897 165.634 191.897 167.211Z" fill="#00A746"/>
<path opacity="0.6" d="M191.897 167.211C191.897 168.793 156.371 170.069 112.593 170.069C68.8148 170.069 33.2832 168.793 33.2832 167.211C33.2832 165.628 68.8094 164.358 112.593 164.358C156.376 164.358 191.897 165.634 191.897 167.211Z" fill="white"/>
<path d="M37.5782 78.1157C37.6105 78.1157 37.2068 76.108 37.1637 75.9626C36.7008 74.5308 34.9622 72.0332 33.272 72.0332C32.9916 72.042 32.7162 72.1095 32.4636 72.2315C32.211 72.3535 31.9869 72.5272 31.8057 72.7414C31.6245 72.9555 31.4904 73.2054 31.4119 73.4747C31.3335 73.744 31.3125 74.0268 31.3503 74.3047C31.4741 75.4889 32.5399 76.5009 33.5034 77.0822C34.6338 77.7874 37.5782 78.1157 37.5782 78.1157Z" fill="#00A746"/>
<path d="M40.846 64.5943C39.2581 65.1648 38.4722 68.1038 38.5207 69.611C38.5207 69.7402 38.8221 71.7641 38.8544 71.7641H38.8867C38.7575 72.227 38.623 72.7222 38.4884 73.2713C38.2516 74.2832 37.9932 75.4244 37.794 76.6947C37.5631 78.0555 37.4121 79.4287 37.3419 80.8071C37.2587 82.3518 37.3109 83.9007 37.498 85.4363C37.5 85.4542 37.5 85.4722 37.498 85.4901C37.2934 85.0433 36.669 83.8107 36.6098 83.7192C35.7809 82.4596 33.4447 80.4895 31.8138 80.9578C31.5465 81.0402 31.2995 81.1779 31.0887 81.3618C30.878 81.5458 30.7083 81.7719 30.5906 82.0257C30.4728 82.2794 30.4097 82.555 30.4053 82.8347C30.4009 83.1144 30.4553 83.3919 30.565 83.6492C30.9956 84.7634 32.2875 85.4524 33.3694 85.7646C34.5913 86.1091 37.315 85.7 37.5303 85.6677C37.7636 87.2237 38.0981 88.7629 38.5315 90.2754C38.7844 91.1582 39.0697 92.0409 39.3496 92.9183C39.1612 92.5361 38.9836 92.197 38.9567 92.154C38.1277 90.8944 35.7916 88.9243 34.1607 89.3926C33.8934 89.475 33.6463 89.6126 33.4356 89.7966C33.2249 89.9806 33.0552 90.2067 32.9375 90.4605C32.8197 90.7142 32.7566 90.9898 32.7522 91.2695C32.7478 91.5492 32.8022 91.8267 32.9119 92.084C33.3425 93.1928 34.6343 93.8872 35.7163 94.194C36.7982 94.5008 39.1451 94.194 39.7587 94.1187C39.8718 94.4524 39.9848 94.7915 40.1032 95.1253C40.6415 96.7401 41.2228 98.3549 41.718 99.9374C41.8957 100.476 42.0464 101.057 42.2025 101.617C42.0356 101.278 41.8849 100.992 41.858 100.955C41.0344 99.6898 38.6929 97.7251 37.0673 98.1934C36.7996 98.2752 36.552 98.4125 36.3407 98.5962C36.1294 98.7799 35.959 99.006 35.8408 99.2597C35.7225 99.5135 35.6589 99.7894 35.6542 100.069C35.6494 100.349 35.7036 100.627 35.8132 100.885C36.2438 101.994 37.541 102.688 38.623 102.995C39.7049 103.302 41.8203 103.033 42.5524 102.93C42.6977 103.506 42.843 104.088 42.9561 104.653C43.0207 105.04 43.1122 105.406 43.1606 105.805L43.3221 106.957C43.3975 107.694 43.4836 108.453 43.5374 109.174C43.5805 109.68 43.6128 110.159 43.6451 110.638C43.4782 110.1 43.1068 108.986 43.1068 108.9C42.5109 107.715 41.6213 106.703 40.5231 105.961C40.4619 105.826 40.3899 105.696 40.3078 105.573C40.1543 105.339 39.9532 105.139 39.7176 104.987C39.482 104.835 39.2171 104.734 38.94 104.691C38.663 104.648 38.38 104.663 38.1093 104.736C37.8386 104.81 37.5863 104.939 37.3688 105.116C36.0931 106.219 36.4106 109.244 36.9974 110.633C37.0297 110.714 37.5356 111.564 37.8155 112.092L37.1319 111.241C36.6583 110.665 36.1738 110.105 35.6571 109.503C35.3915 109.223 35.1278 108.937 34.8658 108.647C34.6074 108.356 34.3006 108.082 34.0153 107.791C33.3371 107.14 32.6212 106.51 31.8622 105.896C32.3682 105.482 34.1284 103.996 34.6343 102.984C35.1403 101.972 35.501 100.556 34.9735 99.4853C34.8575 99.2305 34.6893 99.0029 34.4797 98.8173C34.2701 98.6317 34.0238 98.4922 33.7568 98.4079C33.4898 98.3237 33.2081 98.2965 32.9299 98.3282C32.6517 98.3598 32.3833 98.4496 32.1421 98.5917C30.7103 99.4853 30.565 102.527 30.9364 103.975C30.9364 104.066 31.3455 105.089 31.5662 105.643C31.1194 105.272 30.678 104.906 30.2151 104.567C28.8802 103.539 27.5237 102.537 26.1242 101.531L24.87 100.6C25.0476 100.454 27.1792 98.7317 27.7498 97.5959C28.2558 96.5894 28.6164 95.1683 28.0889 94.1025C27.9736 93.8465 27.8055 93.6177 27.5957 93.431C27.3859 93.2443 27.1391 93.104 26.8714 93.0191C26.6037 92.9343 26.3212 92.9069 26.0421 92.9387C25.7631 92.9705 25.494 93.0607 25.2522 93.2036C23.8258 94.1025 23.6804 97.1384 24.0518 98.5864C24.0788 98.694 24.6332 100.158 24.7947 100.524C23.8742 99.8405 22.9645 99.1516 22.1033 98.4356C20.9253 97.4711 19.8106 96.4319 18.766 95.3244C18.8467 95.2598 21.0806 93.4674 21.6619 92.3101C22.1679 91.3035 22.5285 89.8824 22.001 88.8113C21.8845 88.5576 21.7161 88.3313 21.5066 88.1468C21.2972 87.9622 21.0514 87.8237 20.7852 87.74C20.5189 87.6563 20.238 87.6293 19.9607 87.6609C19.6834 87.6924 19.4157 87.7818 19.1751 87.9231C17.7432 88.822 17.6033 91.8633 17.9693 93.3059C17.9962 93.4028 18.4161 94.5224 18.6314 95.0445L18.5507 95.0983C17.5281 93.955 16.6094 92.7228 15.8055 91.4165C15.3587 90.706 14.9657 89.9955 14.5997 89.3011C15.0519 89.0104 17.0919 87.6863 17.7325 86.6743C18.373 85.6624 18.8629 84.3543 18.4538 83.2347C18.3662 82.9717 18.2248 82.7298 18.0387 82.5245C17.8525 82.3191 17.6256 82.1547 17.3725 82.0418C17.1193 81.9289 16.8454 81.8699 16.5682 81.8686C16.291 81.8674 16.0166 81.9238 15.7624 82.0344C14.2445 82.7664 13.7654 85.8023 13.9753 87.2664C13.9753 87.3472 14.1906 88.16 14.3521 88.7467C14.1906 88.4345 14.0184 88.1061 13.873 87.7993C13.3348 86.6528 12.8772 85.5655 12.5004 84.602C12.2905 84.0637 12.1075 83.5254 11.9622 83.0733C12.2528 82.5619 13.4101 80.468 13.5178 79.3053C13.6254 78.1427 13.4532 76.727 12.5758 75.9196C12.3756 75.7228 12.1362 75.5704 11.8732 75.4722C11.6103 75.374 11.3296 75.3321 11.0494 75.3494C10.7692 75.3666 10.4958 75.4426 10.2469 75.5724C9.99796 75.7021 9.77911 75.8828 9.60452 76.1026C8.59794 77.4537 9.56146 80.3442 10.4335 81.5715C10.5088 81.6791 11.876 83.1863 11.8922 83.1863V83.154C12.0429 83.6115 12.2044 84.096 12.3982 84.6289C12.7588 85.6032 13.1733 86.7012 13.7062 87.8585C14.2653 89.1217 14.898 90.3511 15.6009 91.5403C16.3847 92.8735 17.2854 94.1344 18.2923 95.3083L18.33 95.3459C17.9101 95.0876 16.7151 94.404 16.6129 94.3609C15.2295 93.7634 12.199 93.4297 11.0902 94.7C10.9119 94.9165 10.7813 95.1682 10.7068 95.4385C10.6323 95.7089 10.6156 95.9919 10.6578 96.2692C10.6999 96.5464 10.8 96.8117 10.9515 97.0477C11.1029 97.2837 11.3024 97.4852 11.5369 97.639C12.5058 98.328 13.9699 98.1773 15.0411 97.8543C16.2522 97.4721 18.2708 95.6258 18.4592 95.4805C19.512 96.6503 20.6413 97.749 21.8395 98.7694C22.5339 99.3669 23.2498 99.9482 23.9926 100.524C23.6212 100.314 23.2875 100.126 23.239 100.104C21.8557 99.5068 18.8306 99.1731 17.7217 100.443C17.5424 100.659 17.4108 100.911 17.3354 101.181C17.26 101.451 17.2426 101.734 17.2842 102.012C17.3259 102.289 17.4257 102.555 17.5772 102.791C17.7287 103.027 17.9283 103.229 18.1631 103.382C19.1374 104.071 20.5961 103.921 21.6727 103.598C22.7492 103.275 24.5309 101.714 24.9992 101.299L25.8389 101.956C27.1954 102.995 28.5303 104.023 29.8491 105.073C30.3066 105.444 30.7426 105.821 31.184 106.203C30.8556 106.015 30.5757 105.858 30.5273 105.837C29.1439 105.245 26.1188 104.906 25.01 106.181C24.8307 106.397 24.699 106.649 24.6236 106.919C24.5482 107.189 24.5308 107.472 24.5725 107.75C24.6142 108.027 24.714 108.293 24.8655 108.529C25.0169 108.765 25.2166 108.967 25.4514 109.12C26.4256 109.809 27.8844 109.659 28.9609 109.33C30.0375 109.002 31.6523 107.597 32.1906 107.113C32.6266 107.511 33.068 107.915 33.477 108.324C33.7462 108.609 34.0153 108.862 34.2845 109.169L35.0542 110.046C35.5279 110.617 36.0123 111.204 36.4591 111.774C36.7713 112.172 37.062 112.555 37.358 112.937C36.9059 112.565 36.0069 111.86 35.9208 111.801C34.6451 110.999 31.7061 110.213 30.4143 111.3C30.2058 111.488 30.039 111.717 29.9249 111.973C29.8107 112.229 29.7518 112.506 29.7518 112.786C29.7518 113.066 29.8107 113.343 29.9249 113.599C30.039 113.855 30.2058 114.084 30.4143 114.272C31.2701 115.101 32.7342 115.187 33.8485 115.015C35.0703 114.826 37.288 113.4 37.5626 113.201C38.047 113.836 38.5099 114.46 38.9405 115.052C40.4316 117.114 41.5942 118.89 42.3909 120.139L42.4716 120.268L43.5051 119.768L43.3436 119.52C42.5093 118.276 41.2982 116.511 39.7426 114.46C39.2581 113.809 38.7199 113.131 38.1654 112.431C38.7413 111.802 39.2805 111.141 39.7803 110.45C40.9645 110.913 43.4351 110.929 43.7527 110.929C43.8066 111.731 43.8496 112.506 43.8765 113.238C43.9842 115.784 43.9734 117.905 43.9519 119.385C43.9519 119.445 43.9519 119.498 43.9519 119.558L45.0877 119.019C45.0877 117.544 45.0284 115.553 44.8831 113.195C44.8293 112.388 44.7593 111.521 44.6839 110.633C44.9961 110.558 47.5637 109.896 48.5326 109.12C49.4154 108.421 50.3412 107.28 50.3089 106.09C50.3111 105.81 50.2542 105.532 50.1419 105.275C50.0297 105.018 49.8646 104.788 49.6575 104.599C49.4503 104.41 49.2057 104.267 48.9396 104.179C48.6734 104.091 48.3917 104.06 48.1128 104.088C46.4333 104.303 45.0338 107 44.7593 108.485C44.7593 108.571 44.6678 109.562 44.6355 110.149C44.6032 109.788 44.5709 109.438 44.5332 109.072C44.4579 108.335 44.361 107.602 44.2641 106.811C44.1995 106.434 44.1349 106.047 44.0757 105.659C44.0165 105.272 43.9142 104.873 43.8335 104.48C43.6289 103.56 43.3813 102.64 43.1068 101.719C43.7527 101.655 46.0458 101.385 47.0254 100.82C48.0051 100.255 49.087 99.2754 49.2378 98.0912C49.2819 97.8146 49.2674 97.5318 49.1952 97.2611C49.1229 96.9905 48.9946 96.7381 48.8184 96.5203C48.6423 96.3026 48.4223 96.1243 48.1727 95.9971C47.9232 95.8699 47.6497 95.7966 47.3699 95.7819C45.6798 95.7389 43.8819 98.1934 43.3867 99.6199C43.3544 99.706 43.1122 100.766 42.9938 101.353C42.8215 100.815 42.66 100.25 42.4555 99.6952C41.9172 98.0804 41.309 96.5032 40.7169 94.9046L40.1786 93.4351C40.41 93.4351 43.1391 93.1552 44.2372 92.52C45.2115 91.9817 46.2988 90.9751 46.4495 89.7909C46.4945 89.5142 46.4807 89.2311 46.4087 88.9601C46.3368 88.6892 46.2085 88.4364 46.0322 88.2184C45.8559 88.0005 45.6356 87.8222 45.3856 87.6952C45.1356 87.5683 44.8617 87.4955 44.5817 87.4817C42.8915 87.4387 41.0936 89.8986 40.5984 91.3196C40.5608 91.4273 40.2163 92.9345 40.1463 93.3489C39.7587 92.2724 39.3819 91.1958 39.0697 90.1193C38.6202 88.6643 38.2606 87.1831 37.9932 85.6839C38.1008 85.6839 40.9537 85.4148 42.0787 84.7688C43.053 84.2036 44.1403 83.2186 44.291 82.0344C44.3352 81.7574 44.3205 81.4741 44.248 81.2032C44.1754 80.9322 44.0466 80.6795 43.8698 80.4617C43.6931 80.2438 43.4725 80.0656 43.2223 79.9387C42.9721 79.8118 42.698 79.7391 42.4178 79.7252C40.733 79.6821 38.9352 82.142 38.4399 83.5631C38.4076 83.6546 38.1439 84.8227 38.0309 85.3771H37.934C37.7116 83.8609 37.6252 82.3279 37.6756 80.7963C37.6756 79.9566 37.7563 79.1492 37.8371 78.3687C38.3754 78.3687 40.8245 78.3687 41.9011 77.9058C42.9776 77.4429 44.1188 76.5924 44.3987 75.4351C44.4733 75.164 44.4899 74.8802 44.4473 74.6023C44.4047 74.3243 44.3039 74.0585 44.1514 73.8222C43.999 73.5859 43.7984 73.3845 43.5627 73.2311C43.327 73.0777 43.0616 72.9759 42.7838 72.9321C41.1098 72.7061 39.0536 74.9507 38.4076 76.3071C38.37 76.3825 38.0954 77.1738 37.9017 77.7551C37.9393 77.3998 37.977 77.0392 38.0255 76.6785C38.1977 75.4136 38.4292 74.2671 38.6445 73.2497C38.7737 72.6738 38.8975 72.1732 39.0213 71.6726C39.5596 71.4034 41.6696 70.3 42.3963 69.4011C43.1229 68.5021 43.7581 67.2157 43.4728 66.0584C43.4135 65.7798 43.2953 65.5171 43.1261 65.288C42.9569 65.0588 42.7407 64.8686 42.4919 64.7299C42.2431 64.5912 41.9675 64.5074 41.6836 64.484C41.3998 64.4606 41.1142 64.4982 40.846 64.5943Z" fill="#00A746"/>
<path d="M10.3366 90.6144C11.6554 90.5605 14.2929 89.2041 14.2983 89.2041C14.3037 89.2041 12.8773 87.74 12.775 87.6539C11.5962 86.7173 8.76483 85.5923 7.35993 86.5289C7.13097 86.6903 6.93854 86.8981 6.79513 87.1387C6.65173 87.3794 6.56057 87.6475 6.52757 87.9257C6.49458 88.2039 6.52048 88.486 6.6036 88.7535C6.68673 89.021 6.82521 89.2681 7.01005 89.4786C7.76902 90.3991 9.22775 90.6574 10.3366 90.6144Z" fill="#00A746"/>
<g opacity="0.5">
<path d="M37.5801 78.1158C37.6124 78.1158 37.2087 76.1081 37.1657 75.9627C36.7027 74.5309 34.9641 72.0333 33.2739 72.0333C32.9936 72.0421 32.7181 72.1096 32.4656 72.2316C32.213 72.3536 31.9888 72.5273 31.8076 72.7415C31.6265 72.9556 31.4923 73.2055 31.4139 73.4748C31.3354 73.7441 31.3144 74.0269 31.3523 74.3048C31.4761 75.489 32.5419 76.501 33.5054 77.0823C34.6358 77.7875 37.5801 78.1158 37.5801 78.1158Z" fill="white"/>
<path d="M40.847 64.5943C39.2591 65.1649 38.4732 68.1039 38.5217 69.6111C38.5217 69.7402 38.8231 71.7642 38.8554 71.7642H38.8877C38.7585 72.2271 38.6239 72.7223 38.4894 73.2713C38.2525 74.2833 37.9942 75.4244 37.795 76.6948C37.5641 78.0556 37.4131 79.4287 37.3428 80.8072C37.2597 82.3518 37.3119 83.9008 37.4989 85.4364C37.501 85.4543 37.501 85.4723 37.4989 85.4902C37.2944 85.0434 36.67 83.8108 36.6108 83.7193C35.7818 82.4597 33.4457 80.4896 31.8147 80.9579C31.5474 81.0403 31.3004 81.1779 31.0897 81.3619C30.879 81.5459 30.7093 81.772 30.5916 82.0258C30.4738 82.2795 30.4107 82.5551 30.4063 82.8348C30.4019 83.1145 30.4563 83.392 30.5659 83.6493C30.9966 84.7635 32.2884 85.4525 33.3704 85.7647C34.5923 86.1092 37.3159 85.7001 37.5312 85.6678C37.7646 87.2238 38.099 88.7629 38.5324 90.2755C38.7854 91.1582 39.0707 92.041 39.3506 92.9184C39.1622 92.5362 38.9846 92.1971 38.9577 92.154C38.1287 90.8945 35.7926 88.9244 34.1616 89.3927C33.8943 89.4751 33.6473 89.6127 33.4366 89.7967C33.2259 89.9806 33.0562 90.2068 32.9384 90.4605C32.8207 90.7143 32.7576 90.9899 32.7532 91.2696C32.7488 91.5493 32.8032 91.8268 32.9128 92.0841C33.3435 93.1929 34.6353 93.8873 35.7172 94.1941C36.7992 94.5009 39.1461 94.1941 39.7597 94.1188C39.8727 94.4525 39.9858 94.7916 40.1042 95.1253C40.6425 96.7402 41.2238 98.355 41.719 99.9375C41.8967 100.476 42.0474 101.057 42.2035 101.617C42.0366 101.278 41.8859 100.993 41.859 100.955C41.0354 99.6899 38.6939 97.7252 37.0683 98.1935C36.8005 98.2753 36.553 98.4125 36.3416 98.5962C36.1303 98.7799 35.96 99.006 35.8417 99.2598C35.7235 99.5136 35.6599 99.7895 35.6551 100.069C35.6504 100.349 35.7046 100.627 35.8141 100.885C36.2448 101.994 37.542 102.688 38.6239 102.995C39.7059 103.302 41.8213 103.033 42.5534 102.93C42.6987 103.506 42.844 104.088 42.9571 104.653C43.0216 105.04 43.1132 105.406 43.1616 105.805L43.3231 106.957C43.3984 107.694 43.4846 108.453 43.5384 109.174C43.5815 109.68 43.6138 110.159 43.6461 110.638C43.4792 110.1 43.1078 108.986 43.1078 108.9C42.5119 107.715 41.6223 106.704 40.524 105.961C40.4629 105.826 40.3909 105.696 40.3087 105.573C40.1553 105.339 39.9542 105.139 39.7186 104.987C39.483 104.835 39.2181 104.734 38.941 104.691C38.664 104.648 38.3809 104.663 38.1103 104.736C37.8396 104.81 37.5873 104.939 37.3698 105.116C36.094 106.219 36.4116 109.244 36.9983 110.633C37.0306 110.714 37.5366 111.564 37.8165 112.092L37.1329 111.241C36.6592 110.665 36.1748 110.106 35.658 109.503C35.3925 109.223 35.1287 108.937 34.8668 108.647C34.6084 108.356 34.3016 108.082 34.0163 107.791C33.3381 107.14 32.6222 106.51 31.8632 105.896C32.3692 105.482 34.1293 103.996 34.6353 102.984C35.1413 101.972 35.5019 100.557 34.9744 99.4854C34.8585 99.2305 34.6902 99.0029 34.4806 98.8173C34.271 98.6317 34.0247 98.4923 33.7578 98.408C33.4908 98.3238 33.2091 98.2966 32.9309 98.3283C32.6527 98.3599 32.3843 98.4497 32.1431 98.5918C30.7113 99.4854 30.566 102.527 30.9374 103.975C30.9374 104.066 31.3464 105.089 31.5671 105.643C31.1204 105.272 30.679 104.906 30.2161 104.567C28.8811 103.539 27.5247 102.537 26.1252 101.531L24.871 100.6C25.0486 100.454 27.1802 98.7318 27.7508 97.596C28.2567 96.5894 28.6174 95.1684 28.0899 94.1026C27.9745 93.8466 27.8065 93.6177 27.5967 93.4311C27.3869 93.2444 27.1401 93.1041 26.8724 93.0192C26.6047 92.9344 26.3221 92.907 26.0431 92.9388C25.7641 92.9705 25.4949 93.0608 25.2532 93.2037C23.8267 94.1026 23.6814 97.1385 24.0528 98.5864C24.0797 98.6941 24.6342 100.158 24.7956 100.524C23.8752 99.8406 22.9655 99.1516 22.1043 98.4357C20.9263 97.4712 19.8116 96.432 18.7669 95.3245C18.8477 95.2599 21.0815 93.4674 21.6629 92.3101C22.1688 91.3036 22.5295 89.8825 22.002 88.8113C21.8854 88.5577 21.717 88.3314 21.5076 88.1468C21.2982 87.9623 21.0524 87.8237 20.7861 87.74C20.5199 87.6564 20.239 87.6294 19.9617 87.661C19.6843 87.6925 19.4167 87.7818 19.176 87.9232C17.7442 88.8221 17.6043 91.8634 17.9703 93.306C17.9972 93.4028 18.4171 94.5225 18.6324 95.0446L18.5516 95.0984C17.5291 93.9551 16.6104 92.7229 15.8064 91.4166C15.3597 90.7061 14.9667 89.9956 14.6007 89.3012C15.0528 89.0105 17.0929 87.6864 17.7335 86.6744C18.374 85.6624 18.8638 84.3544 18.4547 83.2348C18.3672 82.9718 18.2258 82.7299 18.0396 82.5245C17.8535 82.3191 17.6266 82.1548 17.3734 82.0419C17.1203 81.9289 16.8464 81.87 16.5692 81.8687C16.292 81.8674 16.0176 81.9239 15.7634 82.0345C14.2454 82.7665 13.7664 85.8024 13.9763 87.2665C13.9763 87.3472 14.1916 88.16 14.3531 88.7468C14.1916 88.4346 14.0194 88.1062 13.874 87.7994C13.3357 86.6529 12.8782 85.5655 12.5014 84.602C12.2915 84.0638 12.1085 83.5255 11.9631 83.0733C12.2538 82.562 13.4111 80.4681 13.5188 79.3054C13.6264 78.1427 13.4542 76.7271 12.5768 75.9196C12.3765 75.7229 12.1372 75.5705 11.8742 75.4723C11.6112 75.374 11.3306 75.3322 11.0504 75.3494C10.7702 75.3667 10.4968 75.4427 10.2479 75.5724C9.99894 75.7022 9.78008 75.8828 9.60549 76.1027C8.59892 77.4537 9.56243 80.3443 10.4344 81.5715C10.5098 81.6792 11.877 83.1864 11.8932 83.1864V83.1541C12.0439 83.6116 12.2054 84.0961 12.3991 84.629C12.7598 85.6032 13.1743 86.7013 13.7072 87.8586C14.2663 89.1218 14.899 90.3512 15.6019 91.5404C16.3857 92.8736 17.2864 94.1345 18.2933 95.3083L18.3309 95.346C17.9111 95.0877 16.7161 94.404 16.6138 94.361C15.2305 93.7635 12.2 93.4298 11.0911 94.7001C10.9129 94.9166 10.7823 95.1683 10.7078 95.4386C10.6333 95.709 10.6166 95.992 10.6587 96.2693C10.7009 96.5465 10.801 96.8118 10.9524 97.0478C11.1039 97.2838 11.3034 97.4853 11.5379 97.6391C12.5068 98.3281 13.9709 98.1774 15.0421 97.8544C16.2532 97.4722 18.2717 95.6259 18.4601 95.4806C19.513 96.6504 20.6423 97.7491 21.8405 98.7694C22.5349 99.3669 23.2508 99.9483 23.9936 100.524C23.6222 100.314 23.2885 100.126 23.24 100.104C21.8566 99.5069 18.8315 99.1732 17.7227 100.443C17.5434 100.659 17.4117 100.911 17.3364 101.181C17.261 101.451 17.2435 101.734 17.2852 102.012C17.3269 102.289 17.4267 102.555 17.5782 102.791C17.7296 103.027 17.9293 103.229 18.1641 103.382C19.1384 104.071 20.5971 103.921 21.6736 103.598C22.7502 103.275 24.5319 101.714 25.0002 101.299L25.8399 101.956C27.1963 102.995 28.5313 104.023 29.85 105.073C30.3076 105.444 30.7436 105.821 31.185 106.203C30.8566 106.015 30.5767 105.859 30.5283 105.837C29.1449 105.245 26.1198 104.906 25.0109 106.182C24.8317 106.397 24.7 106.649 24.6246 106.919C24.5492 107.189 24.5318 107.472 24.5735 107.75C24.6151 108.027 24.715 108.293 24.8664 108.529C25.0179 108.765 25.2176 108.967 25.4523 109.12C26.4266 109.809 27.8853 109.659 28.9619 109.33C30.0384 109.002 31.6533 107.597 32.1915 107.113C32.6275 107.511 33.0689 107.915 33.478 108.324C33.7472 108.609 34.0163 108.862 34.2854 109.169L35.0552 110.046C35.5289 110.617 36.0133 111.204 36.4601 111.774C36.7723 112.173 37.0629 112.555 37.359 112.937C36.9068 112.565 36.0079 111.86 35.9218 111.801C34.6461 110.999 31.7071 110.213 30.4152 111.301C30.2067 111.488 30.04 111.717 29.9259 111.973C29.8117 112.229 29.7527 112.506 29.7527 112.786C29.7527 113.066 29.8117 113.344 29.9259 113.599C30.04 113.855 30.2067 114.085 30.4152 114.272C31.2711 115.101 32.7352 115.187 33.8494 115.015C35.0713 114.826 37.289 113.4 37.5635 113.201C38.048 113.836 38.5109 114.46 38.9415 115.052C40.4325 117.114 41.5952 118.89 42.3919 120.139L42.4726 120.268L43.5061 119.768L43.3446 119.52C42.5103 118.277 41.2992 116.511 39.7436 114.46C39.2591 113.809 38.7208 113.131 38.1664 112.431C38.7423 111.802 39.2814 111.141 39.7812 110.45C40.9654 110.913 43.4361 110.929 43.7537 110.929C43.8075 111.731 43.8506 112.506 43.8775 113.238C43.9852 115.784 43.9744 117.905 43.9529 119.385C43.9529 119.445 43.9529 119.498 43.9529 119.558L45.0886 119.019C45.0886 117.544 45.0294 115.553 44.8841 113.195C44.8303 112.388 44.7603 111.521 44.6849 110.633C44.9971 110.558 47.5647 109.896 48.5336 109.12C49.4164 108.421 50.3422 107.28 50.3099 106.09C50.3121 105.81 50.2552 105.532 50.1429 105.275C50.0307 105.018 49.8656 104.788 49.6585 104.599C49.4513 104.41 49.2067 104.267 48.9405 104.179C48.6744 104.091 48.3927 104.06 48.1137 104.088C46.4343 104.303 45.0348 107 44.7603 108.485C44.7603 108.571 44.6688 109.562 44.6365 110.149C44.6042 109.788 44.5719 109.438 44.5342 109.072C44.4588 108.335 44.362 107.603 44.2651 106.811C44.2005 106.434 44.1359 106.047 44.0767 105.659C44.0175 105.272 43.9152 104.874 43.8344 104.481C43.6299 103.56 43.3823 102.64 43.1078 101.719C43.7537 101.655 46.0468 101.385 47.0264 100.82C48.0061 100.255 49.088 99.2754 49.2387 98.0912C49.2829 97.8146 49.2684 97.5318 49.1961 97.2612C49.1239 96.9906 48.9955 96.7382 48.8194 96.5204C48.6432 96.3026 48.4232 96.1244 48.1737 95.9972C47.9242 95.8699 47.6506 95.7966 47.3709 95.782C45.6807 95.739 43.8829 98.1935 43.3877 99.6199C43.3554 99.7061 43.1132 100.766 42.9947 101.353C42.8225 100.815 42.661 100.25 42.4565 99.6953C41.9182 98.0805 41.3099 96.5033 40.7178 94.9046L40.1796 93.4351C40.411 93.4351 43.1401 93.1552 44.2382 92.5201C45.2124 91.9818 46.2997 90.9752 46.4505 89.791C46.4955 89.5143 46.4816 89.2312 46.4097 88.9602C46.3378 88.6892 46.2095 88.4365 46.0332 88.2185C45.8569 88.0005 45.6365 87.8223 45.3866 87.6953C45.1366 87.5683 44.8627 87.4956 44.5826 87.4818C42.8925 87.4387 41.0946 89.8987 40.5994 91.3197C40.5617 91.4274 40.2172 92.9345 40.1473 93.349C39.7597 92.2725 39.3829 91.1959 39.0707 90.1194C38.6211 88.6644 38.2616 87.1831 37.9942 85.684C38.1018 85.684 40.9547 85.4148 42.0797 84.7689C43.0539 84.2037 44.1413 83.2187 44.292 82.0345C44.3362 81.7574 44.3215 81.4742 44.249 81.2032C44.1764 80.9323 44.0475 80.6796 43.8708 80.4617C43.6941 80.2439 43.4734 80.0657 43.2233 79.9388C42.9731 79.8119 42.699 79.7391 42.4188 79.7253C40.734 79.6822 38.9361 82.1421 38.4409 83.5632C38.4086 83.6547 38.1449 84.8227 38.0318 85.3772H37.9349C37.7126 83.861 37.6261 82.328 37.6766 80.7964C37.6766 79.9567 37.7573 79.1493 37.8381 78.3688C38.3763 78.3688 40.8255 78.3688 41.902 77.9059C42.9786 77.443 44.1197 76.5925 44.3996 75.4352C44.4743 75.1641 44.4909 74.8803 44.4483 74.6024C44.4057 74.3244 44.3048 74.0586 44.1524 73.8223C44 73.586 43.7993 73.3846 43.5637 73.2312C43.328 73.0778 43.0626 72.9759 42.7848 72.9322C41.1108 72.7061 39.0546 74.9508 38.4086 76.3072C38.3709 76.3826 38.0964 77.1738 37.9026 77.7552C37.9403 77.3999 37.978 77.0393 38.0265 76.6786C38.1987 75.4137 38.4302 74.2671 38.6455 73.2498C38.7747 72.6739 38.8985 72.1732 39.0223 71.6727C39.5605 71.4035 41.6706 70.3 42.3973 69.4011C43.1239 68.5022 43.7591 67.2157 43.4738 66.0584C43.4145 65.7799 43.2963 65.5172 43.1271 65.2881C42.9579 65.0589 42.7416 64.8686 42.4928 64.73C42.244 64.5913 41.9685 64.5075 41.6846 64.4841C41.4007 64.4607 41.1152 64.4983 40.847 64.5943Z" fill="white"/>
<path d="M10.3376 90.6145C11.6563 90.5606 14.2939 89.2042 14.2993 89.2042C14.3047 89.2042 12.8782 87.7401 12.776 87.6539C11.5971 86.7173 8.76581 85.5923 7.36091 86.5289C7.13195 86.6904 6.93951 86.8982 6.79611 87.1388C6.65271 87.3795 6.56155 87.6476 6.52855 87.9258C6.49555 88.204 6.52146 88.4861 6.60458 88.7536C6.6877 89.0211 6.82619 89.2682 7.01103 89.4787C7.77 90.3991 9.22872 90.6575 10.3376 90.6145Z" fill="white"/>
</g>
<path d="M25.7367 123.638C25.7367 123.638 33.7409 104.346 38.2193 105.186C42.6978 106.025 30.5381 135.943 30.5381 135.943C30.5381 135.943 44.6194 109.379 54.2222 109.379C63.8251 109.379 50.7019 138.736 38.5423 148.522C38.5423 148.522 57.7426 127.831 68.9495 132.309C80.1564 136.788 46.5411 157.754 46.5411 157.754C46.5411 157.754 66.0643 151.601 63.8251 156.354C61.5859 161.107 55.5195 161.947 55.5195 161.947L77.5888 163.066H0.771484L18.0555 161.387C18.0555 161.387 0.130936 152.441 4.92159 148.802C9.71224 145.163 20.284 152.995 20.284 152.995C20.284 152.995 2.04181 132.864 5.56214 125.317C9.08246 117.77 24.7678 139.016 24.7678 139.016C24.7678 139.016 11.9622 111.898 14.5406 107.14C17.1189 102.381 25.7367 123.638 25.7367 123.638Z" fill="#00A746"/>
<path opacity="0.4" d="M25.7367 123.638C25.7367 123.638 33.7409 104.346 38.2193 105.186C42.6978 106.025 30.5381 135.943 30.5381 135.943C30.5381 135.943 44.6194 109.379 54.2222 109.379C63.8251 109.379 50.7019 138.736 38.5423 148.522C38.5423 148.522 57.7426 127.831 68.9495 132.309C80.1564 136.788 46.5411 157.754 46.5411 157.754C46.5411 157.754 66.0643 151.601 63.8251 156.354C61.5859 161.107 55.5195 161.947 55.5195 161.947L77.5888 163.066H0.771484L18.0555 161.387C18.0555 161.387 0.130936 152.441 4.92159 148.802C9.71224 145.163 20.284 152.995 20.284 152.995C20.284 152.995 2.04181 132.864 5.56214 125.317C9.08246 117.77 24.7678 139.016 24.7678 139.016C24.7678 139.016 11.9622 111.898 14.5406 107.14C17.1189 102.381 25.7367 123.638 25.7367 123.638Z" fill="white"/>
<path d="M23.1797 124.655C30.2204 145.46 30.2204 160.181 30.2204 160.181C30.2204 160.181 21.8986 160.504 13.2539 154.104" stroke="#263238" stroke-linecap="round" stroke-linejoin="round"/>
<path d="M26.7002 135.857C28.1493 129.637 30.0748 123.538 32.4597 117.614" stroke="#263238" stroke-linecap="round" stroke-linejoin="round"/>
<path d="M47.5044 123.697L29.5798 150.261C29.5798 150.261 17.4148 140.034 13.2539 134.258" stroke="#263238" stroke-linecap="round" stroke-linejoin="round"/>
<path d="M29.8975 156.661C29.8975 156.661 48.7802 147.699 56.4667 142.58" stroke="#263238" stroke-linecap="round" stroke-linejoin="round"/>
<path d="M187.192 78.1157C187.16 78.1157 187.569 76.108 187.607 75.9626C188.07 74.5308 189.814 72.0332 191.498 72.0332C191.779 72.042 192.054 72.1095 192.307 72.2315C192.559 72.3535 192.784 72.5272 192.965 72.7414C193.146 72.9555 193.28 73.2054 193.359 73.4747C193.437 73.744 193.458 74.0268 193.42 74.3047C193.296 75.4889 192.231 76.5009 191.267 77.0822C190.137 77.7874 187.192 78.1157 187.192 78.1157Z" fill="#00A746"/>
<path d="M183.925 64.5942C185.513 65.1648 186.304 68.1037 186.25 69.6109C186.25 69.7401 185.949 71.764 185.922 71.764H185.89C186.014 72.2269 186.148 72.7221 186.283 73.2712C186.52 74.2831 186.778 75.4243 186.977 76.6946C187.208 78.0554 187.359 79.4286 187.429 80.807C187.515 82.3517 187.463 83.9009 187.273 85.4362C187.271 85.4541 187.271 85.4722 187.273 85.49C187.483 85.0433 188.107 83.8106 188.161 83.7191C188.99 82.4595 191.326 80.4895 192.957 80.9578C193.225 81.0394 193.473 81.1766 193.684 81.3605C193.895 81.5443 194.065 81.7705 194.183 82.0245C194.301 82.2784 194.364 82.5544 194.368 82.8343C194.372 83.1143 194.317 83.3919 194.206 83.6491C193.775 84.7634 192.484 85.4524 191.402 85.7646C190.18 86.1091 187.456 85.7 187.241 85.6677C187.01 87.2241 186.676 88.7634 186.24 90.2753C185.988 91.1581 185.716 92.0391 185.421 92.9182C185.61 92.5361 185.787 92.1969 185.814 92.1539C186.643 90.8943 188.985 88.9242 190.61 89.3925C190.878 89.4742 191.126 89.6114 191.337 89.7952C191.548 89.979 191.718 90.2053 191.836 90.4593C191.954 90.7132 192.017 90.9892 192.021 91.2691C192.025 91.5491 191.97 91.8267 191.859 92.0839C191.429 93.1928 190.137 93.8871 189.055 94.194C187.973 94.5008 185.626 94.194 185.012 94.1186L184.673 95.1252C184.135 96.74 183.548 98.3548 183.058 99.9374C182.881 100.476 182.725 101.057 182.569 101.617C182.741 101.278 182.886 100.992 182.913 100.955C183.742 99.6897 186.078 97.725 187.704 98.1933C187.972 98.2752 188.219 98.4124 188.43 98.5961C188.642 98.7798 188.812 99.0059 188.93 99.2597C189.049 99.5135 189.112 99.7893 189.117 100.069C189.122 100.349 189.067 100.627 188.958 100.885C188.527 101.994 187.23 102.688 186.148 102.995C185.066 103.302 182.951 103.032 182.219 102.93C182.073 103.506 181.933 104.087 181.82 104.653C181.75 105.04 181.659 105.406 181.61 105.805L181.449 106.956C181.374 107.694 181.287 108.453 181.234 109.174C181.191 109.68 181.158 110.159 181.126 110.638C181.298 110.1 181.664 108.986 181.691 108.9C182.289 107.716 183.178 106.705 184.275 105.961C184.336 105.825 184.41 105.695 184.496 105.573C184.648 105.338 184.848 105.138 185.083 104.985C185.319 104.833 185.583 104.732 185.86 104.688C186.137 104.645 186.42 104.661 186.69 104.734C186.961 104.808 187.212 104.938 187.429 105.116C188.71 106.219 188.387 109.244 187.801 110.633C187.768 110.714 187.289 111.564 186.982 112.092C187.214 111.806 187.429 111.553 187.671 111.241C188.14 110.665 188.624 110.105 189.141 109.503L189.932 108.647C190.191 108.356 190.503 108.081 190.788 107.791C191.461 107.139 192.177 106.51 192.914 105.896C192.414 105.482 190.648 103.996 190.142 102.984C189.636 101.972 189.275 100.556 189.803 99.4852C189.919 99.2296 190.087 99.0013 190.297 98.8152C190.507 98.6291 190.754 98.4893 191.022 98.405C191.289 98.3207 191.572 98.2938 191.851 98.3259C192.129 98.3581 192.398 98.4486 192.64 98.5917C194.066 99.4852 194.211 102.526 193.84 103.974C193.84 104.066 193.431 105.089 193.21 105.643C193.657 105.272 194.098 104.906 194.561 104.567C195.896 103.538 197.28 102.537 198.652 101.531L199.906 100.599C199.729 100.454 197.597 98.7316 197.027 97.5959C196.526 96.5893 196.16 95.1682 196.688 94.1025C196.803 93.8464 196.971 93.6176 197.181 93.4309C197.391 93.2442 197.637 93.1039 197.905 93.0191C198.173 92.9342 198.455 92.9068 198.734 92.9386C199.013 92.9704 199.282 93.0607 199.524 93.2035C200.956 94.1024 201.096 97.1383 200.725 98.5863C200.698 98.6939 200.143 100.158 199.987 100.524C200.902 99.8405 201.812 99.1515 202.679 98.4356C203.857 97.4711 204.971 96.4318 206.016 95.3243C205.935 95.2597 203.701 93.4673 203.12 92.31C202.614 91.3034 202.253 89.8824 202.781 88.8112C202.896 88.5559 203.064 88.3278 203.274 88.1416C203.483 87.9555 203.729 87.8154 203.996 87.7307C204.263 87.6459 204.545 87.6182 204.823 87.6495C205.102 87.6808 205.371 87.7703 205.612 87.9123C207.044 88.8112 207.189 91.8525 206.818 93.295C206.791 93.3919 206.371 94.5115 206.161 95.0337C206.186 95.0547 206.213 95.0727 206.242 95.0875C207.263 93.9441 208.18 92.712 208.982 91.4057C209.434 90.6952 209.821 89.9846 210.187 89.2903C209.735 88.9996 207.695 87.6754 207.055 86.6635C206.414 85.6515 205.93 84.3435 206.333 83.2239C206.421 82.9575 206.563 82.7124 206.751 82.5045C206.939 82.2967 207.169 82.1308 207.425 82.0176C207.681 81.9043 207.959 81.8463 208.239 81.8474C208.519 81.8484 208.796 81.9084 209.052 82.0235C210.575 82.7556 211.049 85.7915 210.839 87.2556C210.839 87.3363 210.623 88.1491 210.467 88.7358C210.623 88.4236 210.796 88.0953 210.941 87.7885C211.479 86.6419 211.937 85.5546 212.314 84.5911C212.529 84.0528 212.707 83.5146 212.852 83.0624C212.556 82.5511 211.404 80.4572 211.291 79.2945C211.178 78.1318 211.361 76.7161 212.238 75.9087C212.438 75.7121 212.677 75.5598 212.94 75.4616C213.202 75.3634 213.482 75.3216 213.762 75.3388C214.042 75.3561 214.315 75.4321 214.563 75.5618C214.812 75.6915 215.03 75.8721 215.204 76.0917C216.216 77.4428 215.253 80.3334 214.381 81.5606C214.305 81.6683 212.933 83.1754 212.917 83.1754V83.1432C212.766 83.6007 212.604 84.0851 212.411 84.618C212.055 85.5923 211.641 86.6904 211.108 87.8477C210.545 89.1099 209.91 90.3391 209.208 91.5295C208.424 92.8627 207.523 94.1236 206.516 95.2974L206.479 95.3351C206.899 95.0767 208.094 94.3931 208.196 94.3501C209.585 93.7526 212.61 93.4188 213.719 94.6892C213.897 94.9054 214.028 95.1567 214.103 95.4268C214.178 95.697 214.195 95.9799 214.153 96.2571C214.112 96.5343 214.012 96.7997 213.861 97.0359C213.71 97.2721 213.511 97.4739 213.277 97.6282C212.303 98.3171 210.844 98.1664 209.768 97.8435C208.557 97.4613 206.538 95.615 206.355 95.4697C205.302 96.6395 204.173 97.7382 202.975 98.7585C202.28 99.356 201.559 99.9374 200.822 100.513C201.193 100.303 201.527 100.115 201.575 100.093C202.958 99.496 205.984 99.1622 207.092 100.433C207.272 100.648 207.403 100.9 207.479 101.17C207.554 101.44 207.572 101.723 207.53 102.001C207.488 102.278 207.388 102.544 207.237 102.78C207.085 103.016 206.886 103.218 206.651 103.372C205.682 104.061 204.218 103.91 203.147 103.587C202.076 103.264 200.283 101.703 199.82 101.288C199.535 101.509 199.282 101.73 198.975 101.945C197.624 102.984 196.284 104.012 194.965 105.062C194.508 105.433 194.072 105.81 193.63 106.192L194.287 105.826C195.67 105.234 198.695 104.895 199.804 106.171C199.983 106.386 200.115 106.638 200.19 106.908C200.266 107.178 200.283 107.461 200.242 107.739C200.2 108.016 200.1 108.282 199.949 108.518C199.797 108.754 199.598 108.956 199.363 109.11C198.389 109.799 196.93 109.648 195.859 109.319C194.787 108.991 193.167 107.586 192.629 107.102C192.193 107.5 191.752 107.904 191.348 108.313C191.073 108.598 190.81 108.851 190.54 109.158L189.765 110.035C189.297 110.606 188.807 111.193 188.36 111.763C188.048 112.162 187.758 112.544 187.467 112.926C187.914 112.555 188.818 111.849 188.899 111.79C190.174 110.988 193.119 110.202 194.405 111.29C194.614 111.477 194.78 111.706 194.895 111.962C195.009 112.218 195.068 112.495 195.068 112.775C195.068 113.055 195.009 113.333 194.895 113.589C194.78 113.845 194.614 114.074 194.405 114.261C193.544 115.09 192.08 115.176 190.971 115.004C189.744 114.815 187.526 113.389 187.252 113.19C186.767 113.825 186.304 114.449 185.874 115.041C184.383 117.103 183.22 118.879 182.423 120.128C182.423 120.177 182.369 120.214 182.342 120.257L181.309 119.757L181.47 119.509C182.305 118.266 183.521 116.5 185.072 114.449C185.561 113.798 186.094 113.12 186.649 112.42C186.072 111.792 185.532 111.131 185.034 110.439C183.844 110.902 181.379 110.918 181.056 110.918C181.008 111.72 180.965 112.495 180.932 113.227C180.825 115.773 180.835 117.894 180.862 119.374V119.547L179.726 119.008C179.726 117.534 179.786 115.542 179.936 113.184C179.985 112.377 180.055 111.51 180.136 110.622C179.818 110.547 177.25 109.885 176.282 109.11C175.404 108.41 174.478 107.269 174.511 106.079C174.508 105.799 174.564 105.52 174.676 105.263C174.788 105.006 174.953 104.775 175.16 104.586C175.368 104.397 175.613 104.254 175.879 104.166C176.146 104.078 176.428 104.048 176.707 104.077C178.381 104.292 179.786 106.989 180.06 108.474C180.06 108.561 180.146 109.551 180.179 110.138C180.216 109.777 180.243 109.427 180.286 109.061C180.356 108.324 180.453 107.592 180.555 106.8C180.615 106.424 180.679 106.036 180.738 105.648C180.798 105.261 180.9 104.863 180.981 104.47C181.185 103.549 181.433 102.629 181.707 101.708C181.061 101.644 178.774 101.375 177.789 100.809C176.804 100.244 175.727 99.2645 175.582 98.0803C175.537 97.8036 175.551 97.5205 175.623 97.2495C175.694 96.9785 175.823 96.7258 175.999 96.5078C176.175 96.2898 176.396 96.1115 176.646 95.9846C176.896 95.8576 177.17 95.7849 177.45 95.7711C179.134 95.728 180.932 98.1826 181.427 99.609C181.46 99.6951 181.702 100.756 181.82 101.342C181.993 100.804 182.154 100.239 182.359 99.6844C182.897 98.0695 183.505 96.4924 184.097 94.8937C184.28 94.4039 184.453 93.9141 184.636 93.4242C184.404 93.4242 181.675 93.1443 180.577 92.5091C179.603 91.9709 178.515 90.9643 178.365 89.7801C178.32 89.5035 178.335 89.2207 178.407 88.9501C178.479 88.6795 178.608 88.4271 178.784 88.2093C178.96 87.9915 179.18 87.8132 179.43 87.686C179.679 87.5588 179.953 87.4855 180.232 87.4709C181.923 87.4278 183.72 89.8878 184.216 91.3088C184.253 91.4165 184.598 92.9236 184.668 93.3381C185.055 92.2615 185.438 91.185 185.744 90.1084C186.199 88.6549 186.559 87.1733 186.821 85.6731C186.713 85.6731 183.866 85.4039 182.741 84.758C181.761 84.1928 180.674 83.2077 180.529 82.0235C180.483 81.7468 180.497 81.4637 180.569 81.1928C180.641 80.9218 180.769 80.669 180.946 80.4511C181.122 80.2331 181.342 80.0548 181.592 79.9278C181.842 79.8009 182.116 79.7281 182.396 79.7143C184.081 79.6713 185.879 82.1312 186.374 83.5522C186.406 83.6438 186.676 84.8118 186.789 85.3662H186.88C187.102 83.8501 187.189 82.3171 187.139 80.7855C187.139 79.9458 187.058 79.1384 186.977 78.3579C186.439 78.3579 183.995 78.3579 182.918 77.895C181.842 77.4321 180.695 76.5816 180.415 75.4243C180.341 75.1532 180.324 74.8694 180.367 74.5914C180.409 74.3135 180.51 74.0477 180.663 73.8114C180.815 73.5751 181.016 73.3737 181.251 73.2203C181.487 73.0669 181.753 72.965 182.03 72.9213C183.704 72.6952 185.761 74.9398 186.412 76.2963C186.444 76.3716 186.724 77.1629 186.912 77.7443C186.875 77.389 186.837 77.0283 186.789 76.6677C186.622 75.4028 186.385 74.2562 186.17 73.2389C186.04 72.6629 185.917 72.1623 185.793 71.6617C185.255 71.3926 183.145 70.2891 182.423 69.3902C181.702 68.4913 181.056 67.2048 181.347 66.0475C181.408 65.7756 181.526 65.5196 181.693 65.296C181.859 65.0724 182.071 64.8862 182.314 64.7493C182.557 64.6124 182.825 64.5279 183.103 64.5011C183.38 64.4744 183.66 64.5061 183.925 64.5942Z" fill="#00A746"/>
<path d="M214.435 90.6144C213.116 90.5605 210.479 89.2041 210.479 89.2041C210.479 89.2041 211.894 87.74 211.996 87.6539C213.175 86.7173 216.007 85.5923 217.412 86.5289C217.641 86.6897 217.834 86.8973 217.978 87.138C218.122 87.3786 218.213 87.647 218.247 87.9254C218.28 88.2039 218.253 88.4862 218.17 88.7538C218.086 89.0215 217.947 89.2685 217.761 89.4786C217.002 90.3991 215.56 90.6574 214.435 90.6144Z" fill="#00A746"/>
<g opacity="0.5">
<path d="M187.193 78.1157C187.161 78.1157 187.57 76.1079 187.608 75.9626C188.071 74.5307 189.815 72.0331 191.499 72.0331C191.78 72.0419 192.055 72.1094 192.308 72.2314C192.56 72.3534 192.785 72.5271 192.966 72.7413C193.147 72.9555 193.281 73.2053 193.359 73.4746C193.438 73.7439 193.459 74.0267 193.421 74.3047C193.297 75.4889 192.231 76.5008 191.268 77.0822C190.138 77.7873 187.193 78.1157 187.193 78.1157Z" fill="white"/>
<path d="M183.926 64.5941C185.514 65.1647 186.305 68.1037 186.251 69.6108C186.251 69.74 185.95 71.7639 185.923 71.7639H185.891C186.015 72.2268 186.149 72.7221 186.284 73.2711C186.52 74.2831 186.779 75.4242 186.978 76.6945C187.209 78.0553 187.36 79.4285 187.43 80.807C187.516 82.3516 187.464 83.9008 187.274 85.4361C187.272 85.454 187.272 85.4721 187.274 85.49C187.484 85.0432 188.108 83.8105 188.162 83.719C188.991 82.4595 191.327 80.4894 192.958 80.9577C193.226 81.0394 193.474 81.1766 193.685 81.3604C193.896 81.5442 194.066 81.7704 194.184 82.0244C194.302 82.2784 194.365 82.5543 194.369 82.8343C194.373 83.1142 194.318 83.3918 194.207 83.6491C193.776 84.7633 192.485 85.4523 191.403 85.7645C190.181 86.109 187.457 85.6999 187.242 85.6676C187.011 87.2241 186.677 88.7634 186.241 90.2752C185.989 91.158 185.717 92.039 185.422 92.9182C185.611 92.536 185.788 92.1969 185.815 92.1538C186.644 90.8942 188.986 88.9242 190.611 89.3925C190.879 89.4741 191.127 89.6113 191.338 89.7952C191.549 89.979 191.719 90.2052 191.837 90.4592C191.955 90.7131 192.018 90.9891 192.022 91.269C192.026 91.549 191.971 91.8266 191.86 92.0838C191.43 93.1927 190.138 93.8871 189.056 94.1939C187.974 94.5007 185.627 94.1939 185.013 94.1185L184.674 95.1251C184.136 96.7399 183.549 98.3548 183.059 99.9373C182.882 100.476 182.726 101.057 182.57 101.617C182.742 101.278 182.887 100.992 182.914 100.955C183.743 99.6897 186.079 97.725 187.705 98.1933C187.972 98.2751 188.22 98.4123 188.431 98.596C188.643 98.7797 188.813 99.0058 188.931 99.2596C189.05 99.5134 189.113 99.7892 189.118 100.069C189.123 100.349 189.068 100.627 188.959 100.885C188.528 101.993 187.231 102.688 186.149 102.995C185.067 103.302 182.952 103.032 182.22 102.93C182.074 103.506 181.934 104.087 181.821 104.653C181.751 105.04 181.66 105.406 181.611 105.804L181.45 106.956C181.375 107.694 181.288 108.453 181.235 109.174C181.192 109.68 181.159 110.159 181.127 110.638C181.299 110.1 181.665 108.986 181.692 108.9C182.29 107.716 183.179 106.705 184.276 105.961C184.337 105.825 184.411 105.695 184.497 105.573C184.649 105.338 184.849 105.137 185.084 104.985C185.32 104.833 185.584 104.731 185.861 104.688C186.138 104.645 186.421 104.661 186.691 104.734C186.962 104.808 187.213 104.938 187.43 105.115C188.711 106.219 188.388 109.244 187.802 110.633C187.769 110.714 187.29 111.564 186.983 112.092C187.215 111.806 187.43 111.553 187.672 111.241C188.141 110.665 188.625 110.105 189.142 109.502L189.933 108.647C190.192 108.356 190.504 108.081 190.789 107.791C191.462 107.139 192.178 106.51 192.915 105.896C192.415 105.482 190.649 103.996 190.143 102.984C189.637 101.972 189.276 100.556 189.804 99.4851C189.92 99.2296 190.088 99.0013 190.298 98.8151C190.508 98.629 190.755 98.4893 191.023 98.405C191.29 98.3206 191.573 98.2937 191.852 98.3259C192.13 98.358 192.399 98.4486 192.641 98.5916C194.067 99.4851 194.212 102.526 193.841 103.974C193.841 104.066 193.432 105.089 193.211 105.643C193.658 105.272 194.099 104.906 194.562 104.566C195.897 103.538 197.281 102.537 198.653 101.531L199.907 100.599C199.73 100.454 197.598 98.7315 197.028 97.5958C196.527 96.5892 196.161 95.1682 196.689 94.1024C196.804 93.8463 196.972 93.6175 197.182 93.4308C197.391 93.2442 197.638 93.1038 197.906 93.019C198.174 92.9342 198.456 92.9067 198.735 92.9385C199.014 92.9703 199.283 93.0606 199.525 93.2034C200.957 94.1024 201.097 97.1382 200.726 98.5862C200.699 98.6939 200.144 100.158 199.988 100.524C200.903 99.8404 201.813 99.1514 202.68 98.4355C203.857 97.471 204.972 96.4318 206.017 95.3243C205.936 95.2597 203.702 93.4672 203.121 92.3099C202.615 91.3033 202.254 89.8823 202.782 88.8111C202.897 88.5558 203.065 88.3277 203.274 88.1415C203.484 87.9554 203.73 87.8154 203.997 87.7306C204.264 87.6458 204.546 87.6182 204.824 87.6494C205.103 87.6807 205.372 87.7703 205.613 87.9122C207.045 88.8111 207.19 91.8524 206.819 93.295C206.792 93.3919 206.372 94.5115 206.162 95.0336C206.187 95.0546 206.214 95.0727 206.243 95.0874C207.264 93.9441 208.181 92.7119 208.983 91.4056C209.435 90.6951 209.822 89.9846 210.188 89.2902C209.736 88.9995 207.696 87.6754 207.056 86.6634C206.415 85.6514 205.931 84.3434 206.334 83.2238C206.421 82.9574 206.564 82.7123 206.752 82.5045C206.94 82.2966 207.169 82.1307 207.426 82.0175C207.682 81.9043 207.96 81.8463 208.24 81.8473C208.52 81.8483 208.797 81.9084 209.053 82.0235C210.576 82.7555 211.05 85.7914 210.84 87.2555C210.84 87.3362 210.624 88.149 210.468 88.7358C210.624 88.4236 210.797 88.0952 210.942 87.7884C211.48 86.6419 211.938 85.5546 212.315 84.591C212.53 84.0528 212.708 83.5145 212.853 83.0623C212.557 82.551 211.405 80.4571 211.292 79.2944C211.179 78.1317 211.362 76.7161 212.239 75.9087C212.439 75.712 212.678 75.5597 212.941 75.4615C213.203 75.3633 213.483 75.3215 213.763 75.3388C214.043 75.356 214.316 75.432 214.564 75.5617C214.813 75.6914 215.031 75.872 215.205 76.0917C216.217 77.4427 215.254 80.3333 214.382 81.5605C214.306 81.6682 212.934 83.1754 212.918 83.1754V83.1431C212.767 83.6006 212.605 84.0851 212.412 84.618C212.056 85.5922 211.642 86.6903 211.109 87.8476C210.546 89.1098 209.911 90.3391 209.209 91.5294C208.425 92.8626 207.524 94.1235 206.517 95.2973L206.48 95.335C206.9 95.0766 208.095 94.393 208.197 94.35C209.586 93.7525 212.611 93.4188 213.72 94.6891C213.898 94.9053 214.029 95.1566 214.104 95.4268C214.179 95.6969 214.196 95.9798 214.154 96.257C214.113 96.5343 214.013 96.7996 213.862 97.0358C213.711 97.2721 213.512 97.4738 213.278 97.6281C212.304 98.3171 210.845 98.1663 209.769 97.8434C208.557 97.4612 206.539 95.6149 206.356 95.4696C205.303 96.6394 204.174 97.7381 202.976 98.7585C202.281 99.3559 201.56 99.9373 200.822 100.513C201.194 100.303 201.528 100.115 201.576 100.093C202.959 99.4959 205.985 99.1622 207.093 100.432C207.273 100.648 207.404 100.9 207.48 101.17C207.555 101.44 207.573 101.723 207.531 102.001C207.489 102.278 207.389 102.544 207.238 102.78C207.086 103.016 206.887 103.218 206.652 103.371C205.683 104.06 204.219 103.91 203.148 103.587C202.077 103.264 200.284 101.703 199.821 101.288C199.536 101.509 199.283 101.73 198.976 101.945C197.625 102.984 196.285 104.012 194.966 105.062C194.509 105.433 194.072 105.81 193.631 106.192L194.288 105.826C195.671 105.234 198.696 104.895 199.805 106.171C199.984 106.386 200.116 106.638 200.191 106.908C200.267 107.178 200.284 107.461 200.243 107.739C200.201 108.016 200.101 108.282 199.95 108.518C199.798 108.754 199.599 108.956 199.364 109.109C198.389 109.798 196.931 109.648 195.86 109.319C194.788 108.991 193.168 107.586 192.63 107.102C192.194 107.5 191.753 107.904 191.349 108.313C191.074 108.598 190.811 108.851 190.541 109.158L189.766 110.035C189.298 110.606 188.808 111.193 188.361 111.763C188.049 112.162 187.759 112.544 187.468 112.926C187.915 112.554 188.819 111.849 188.9 111.79C190.175 110.988 193.12 110.202 194.406 111.29C194.615 111.477 194.781 111.706 194.896 111.962C195.01 112.218 195.069 112.495 195.069 112.775C195.069 113.055 195.01 113.333 194.896 113.588C194.781 113.844 194.615 114.074 194.406 114.261C193.545 115.09 192.081 115.176 190.972 115.004C189.745 114.815 187.527 113.389 187.253 113.19C186.768 113.825 186.305 114.449 185.875 115.041C184.384 117.103 183.221 118.879 182.424 120.128C182.424 120.176 182.37 120.214 182.343 120.257L181.31 119.757L181.471 119.509C182.306 118.266 183.522 116.5 185.073 114.449C185.562 113.798 186.095 113.12 186.65 112.42C186.073 111.792 185.533 111.131 185.035 110.439C183.845 110.902 181.38 110.918 181.057 110.918C181.009 111.72 180.965 112.495 180.933 113.227C180.826 115.773 180.836 117.894 180.863 119.374V119.547L179.727 119.008C179.727 117.534 179.787 115.542 179.937 113.184C179.986 112.377 180.056 111.51 180.137 110.622C179.819 110.547 177.251 109.885 176.282 109.109C175.405 108.41 174.479 107.269 174.512 106.079C174.509 105.798 174.565 105.52 174.677 105.263C174.789 105.006 174.954 104.775 175.161 104.586C175.369 104.397 175.614 104.254 175.88 104.166C176.147 104.078 176.429 104.048 176.708 104.077C178.382 104.292 179.787 106.989 180.061 108.474C180.061 108.56 180.147 109.551 180.18 110.138C180.217 109.777 180.244 109.427 180.287 109.061C180.357 108.324 180.454 107.592 180.556 106.8C180.616 106.424 180.68 106.036 180.739 105.648C180.799 105.261 180.901 104.862 180.982 104.47C181.186 103.549 181.434 102.629 181.708 101.708C181.062 101.644 178.775 101.374 177.79 100.809C176.805 100.244 175.728 99.2644 175.583 98.0802C175.538 97.8035 175.552 97.5204 175.623 97.2494C175.695 96.9785 175.824 96.7257 176 96.5077C176.176 96.2898 176.397 96.1115 176.647 95.9845C176.897 95.8576 177.171 95.7848 177.451 95.771C179.135 95.728 180.933 98.1825 181.428 99.6089C181.461 99.6951 181.703 100.755 181.821 101.342C181.994 100.804 182.155 100.239 182.36 99.6843C182.898 98.0695 183.506 96.4923 184.098 94.8936C184.281 94.4038 184.454 93.914 184.637 93.4241C184.405 93.4241 181.676 93.1442 180.578 92.5091C179.604 91.9708 178.516 90.9642 178.366 89.78C178.321 89.5034 178.336 89.2206 178.408 88.95C178.48 88.6794 178.609 88.427 178.785 88.2092C178.961 87.9914 179.181 87.8131 179.431 87.6859C179.68 87.5587 179.954 87.4854 180.233 87.4708C181.924 87.4278 183.721 89.8877 184.217 91.3087C184.254 91.4164 184.599 92.9235 184.669 93.338C185.056 92.2615 185.439 91.1849 185.745 90.1084C186.2 88.6548 186.56 87.1732 186.822 85.673C186.714 85.673 183.867 85.4038 182.742 84.7579C181.762 84.1927 180.675 83.2077 180.529 82.0235C180.484 81.7467 180.498 81.4637 180.57 81.1927C180.642 80.9217 180.77 80.669 180.947 80.451C181.123 80.233 181.343 80.0547 181.593 79.9277C181.843 79.8008 182.117 79.7281 182.397 79.7143C184.082 79.6712 185.88 82.1311 186.375 83.5522C186.407 83.6437 186.677 84.8117 186.79 85.3662H186.881C187.103 83.85 187.19 82.317 187.14 80.7854C187.14 79.9457 187.059 79.1383 186.978 78.3578C186.44 78.3578 183.996 78.3578 182.919 77.8949C181.843 77.432 180.696 76.5815 180.416 75.4242C180.342 75.1531 180.325 74.8693 180.368 74.5914C180.41 74.3134 180.511 74.0476 180.664 73.8113C180.816 73.575 181.017 73.3736 181.252 73.2202C181.488 73.0668 181.754 72.9649 182.031 72.9212C183.705 72.6952 185.762 74.9398 186.413 76.2962C186.445 76.3716 186.725 77.1628 186.913 77.7442C186.876 77.3889 186.838 77.0283 186.79 76.6676C186.623 75.4027 186.386 74.2562 186.171 73.2388C186.041 72.6629 185.918 72.1623 185.794 71.6617C185.256 71.3925 183.146 70.2891 182.424 69.3901C181.703 68.4912 181.057 67.2047 181.348 66.0474C181.409 65.7755 181.527 65.5196 181.694 65.296C181.86 65.0724 182.072 64.8861 182.315 64.7492C182.558 64.6123 182.826 64.5278 183.104 64.5011C183.381 64.4744 183.661 64.506 183.926 64.5941Z" fill="white"/>
<path d="M214.435 90.6143C213.116 90.5605 210.479 89.204 210.479 89.204C210.479 89.204 211.894 87.7399 211.996 87.6538C213.175 86.7172 216.007 85.5922 217.412 86.5288C217.641 86.6897 217.834 86.8972 217.978 87.1379C218.122 87.3786 218.213 87.6469 218.247 87.9254C218.28 88.2038 218.253 88.4861 218.17 88.7537C218.086 89.0214 217.947 89.2684 217.761 89.4785C217.002 90.399 215.56 90.6574 214.435 90.6143Z" fill="white"/>
</g>
<path d="M199.035 123.638C199.035 123.638 191.03 104.346 186.552 105.186C182.074 106.025 194.233 135.943 194.233 135.943C194.233 135.943 180.152 109.379 170.549 109.379C160.946 109.379 174.069 138.736 186.234 148.522C186.234 148.522 167.029 127.831 155.827 132.309C144.626 136.788 178.246 157.754 178.246 157.754C178.246 157.754 158.723 151.601 160.962 156.354C163.202 161.107 169.284 161.947 169.284 161.947L147.215 163.066H224L206.716 161.387C206.716 161.387 224.64 152.441 219.839 148.802C215.038 145.163 204.477 152.995 204.477 152.995C204.477 152.995 222.719 132.864 219.198 125.317C215.678 117.77 199.993 139.016 199.993 139.016C199.993 139.016 212.798 111.898 210.22 107.14C207.642 102.381 199.035 123.638 199.035 123.638Z" fill="#00A746"/>
<path opacity="0.4" d="M199.035 123.638C199.035 123.638 191.03 104.346 186.552 105.186C182.074 106.025 194.233 135.943 194.233 135.943C194.233 135.943 180.152 109.379 170.549 109.379C160.946 109.379 174.069 138.736 186.234 148.522C186.234 148.522 167.029 127.831 155.827 132.309C144.626 136.788 178.246 157.754 178.246 157.754C178.246 157.754 158.723 151.601 160.962 156.354C163.202 161.107 169.284 161.947 169.284 161.947L147.215 163.066H224L206.716 161.387C206.716 161.387 224.64 152.441 219.839 148.802C215.038 145.163 204.477 152.995 204.477 152.995C204.477 152.995 222.719 132.864 219.198 125.317C215.678 117.77 199.993 139.016 199.993 139.016C199.993 139.016 212.798 111.898 210.22 107.14C207.642 102.381 199.035 123.638 199.035 123.638Z" fill="white"/>
<path d="M201.596 124.655C194.556 145.46 194.556 160.181 194.556 160.181C194.556 160.181 202.877 160.504 211.517 154.104" stroke="#263238" stroke-linecap="round" stroke-linejoin="round"/>
<path d="M198.076 135.857C196.624 129.638 194.696 123.539 192.312 117.614" stroke="#263238" stroke-linecap="round" stroke-linejoin="round"/>
<path d="M177.271 123.697L195.191 150.261C195.191 150.261 207.356 140.034 211.517 134.258" stroke="#263238" stroke-linecap="round" stroke-linejoin="round"/>
<path d="M194.873 156.661C194.873 156.661 175.991 147.699 168.31 142.58" stroke="#263238" stroke-linecap="round" stroke-linejoin="round"/>
<path d="M75.2736 27.1192L70.8759 20.1001H32.1416V27.1192V29.6438V146.417H191.579V27.1192H75.2736Z" fill="#263238"/>
<path d="M190.529 30.3381H33.3252V143.871H190.529V30.3381Z" fill="white"/>
<mask id="mask0_439_958" style="mask-type:luminance" maskUnits="userSpaceOnUse" x="33" y="30" width="158" height="114">
<path d="M190.53 30.338H33.3262V143.871H190.53V30.338Z" fill="white"/>
</mask>
<g mask="url(#mask0_439_958)">
<path opacity="0.17" d="M191.3 29.3639H187.65V144.733H191.3V29.3639Z" fill="black"/>
<path opacity="0.17" d="M191.3 99.1189H187.65V143.796H191.3V99.1189Z" fill="black"/>
<path d="M190.735 28.8041H32.7021V34.9781H190.735V28.8041Z" fill="#00A746" stroke="#263238" stroke-miterlimit="10"/>
</g>
<path d="M190.529 30.3381H33.3252V143.871H190.529V30.3381Z" stroke="#263238" stroke-linecap="round" stroke-linejoin="round"/>
<g opacity="0.17">
<path d="M115.231 40.9313H104.234C104.106 40.9313 103.98 40.9063 103.863 40.8576C103.745 40.8089 103.638 40.7375 103.548 40.6476C103.458 40.5576 103.387 40.4508 103.338 40.3332C103.29 40.2157 103.265 40.0897 103.265 39.9624C103.264 39.8347 103.288 39.7082 103.337 39.59C103.385 39.4718 103.456 39.3644 103.547 39.2738C103.637 39.1833 103.744 39.1115 103.862 39.0624C103.979 39.0134 104.106 38.9882 104.234 38.9882H115.231C115.358 38.9882 115.485 39.0134 115.603 39.0624C115.72 39.1115 115.828 39.1833 115.918 39.2738C116.008 39.3644 116.079 39.4718 116.127 39.59C116.176 39.7082 116.2 39.8347 116.199 39.9624C116.199 40.0897 116.174 40.2157 116.126 40.3332C116.077 40.4508 116.006 40.5576 115.916 40.6476C115.826 40.7375 115.719 40.8089 115.601 40.8576C115.484 40.9063 115.358 40.9313 115.231 40.9313Z" fill="black"/>
<path d="M137.224 40.9314H126.227C125.97 40.93 125.725 40.8275 125.543 40.6461C125.362 40.4647 125.259 40.2191 125.258 39.9625C125.258 39.7051 125.36 39.4581 125.541 39.2755C125.723 39.0929 125.969 38.9897 126.227 38.9883H137.224C137.482 38.9883 137.73 39.0909 137.913 39.2736C138.095 39.4563 138.198 39.7041 138.198 39.9625C138.197 40.22 138.093 40.4664 137.911 40.648C137.728 40.8295 137.481 40.9314 137.224 40.9314Z" fill="black"/>
<path d="M159.224 40.9314H148.227C147.97 40.9314 147.723 40.8295 147.54 40.648C147.358 40.4664 147.254 40.22 147.253 39.9625C147.253 39.7041 147.356 39.4563 147.538 39.2736C147.721 39.0909 147.969 38.9883 148.227 38.9883H159.224C159.482 38.9897 159.728 39.0929 159.91 39.2755C160.091 39.4581 160.193 39.7051 160.193 39.9625C160.192 40.2191 160.089 40.4647 159.908 40.6461C159.726 40.8275 159.481 40.93 159.224 40.9314Z" fill="black"/>
<path d="M181.218 40.9314H170.221C170.094 40.9314 169.968 40.9064 169.85 40.8577C169.733 40.809 169.626 40.7376 169.536 40.6476C169.446 40.5577 169.374 40.4509 169.326 40.3333C169.277 40.2158 169.252 40.0898 169.252 39.9625C169.251 39.8348 169.276 39.7083 169.324 39.5901C169.373 39.4719 169.444 39.3645 169.534 39.2739C169.624 39.1834 169.731 39.1115 169.849 39.0625C169.967 39.0135 170.093 38.9882 170.221 38.9883H181.218C181.475 38.9897 181.722 39.0929 181.903 39.2755C182.085 39.4581 182.187 39.7051 182.187 39.9625C182.185 40.2191 182.083 40.4647 181.901 40.6461C181.72 40.8275 181.474 40.93 181.218 40.9314Z" fill="black"/>
</g>
<path d="M48.1826 87.2715H64.7992" stroke="#263238" stroke-width="3" stroke-linecap="round" stroke-linejoin="round"/>
<path d="M64.5029 89.8605H66.3169" stroke="#263238" stroke-linecap="round" stroke-linejoin="round"/>
<path d="M54.0986 89.8605H63.4054" stroke="#263238" stroke-linecap="round" stroke-linejoin="round"/>
<path d="M46.9121 89.8605H53.113" stroke="#263238" stroke-linecap="round" stroke-linejoin="round"/>
<path d="M58.6953 92.4498H66.3173" stroke="#263238" stroke-linecap="round" stroke-linejoin="round"/>
<path d="M54.5342 92.4498H57.4947" stroke="#263238" stroke-linecap="round" stroke-linejoin="round"/>
<path d="M46.9121 92.4498H53.2207" stroke="#263238" stroke-linecap="round" stroke-linejoin="round"/>
<path d="M51.0293 95.0334H66.3163" stroke="#263238" stroke-linecap="round" stroke-linejoin="round"/>
<path d="M46.9121 95.0334H49.6089" stroke="#263238" stroke-linecap="round" stroke-linejoin="round"/>
<path d="M62.5322 97.6226H66.3163" stroke="#263238" stroke-linecap="round" stroke-linejoin="round"/>
<path d="M55.3037 97.6226H61.214" stroke="#263238" stroke-linecap="round" stroke-linejoin="round"/>
<path d="M46.9121 97.6226H54.0981" stroke="#263238" stroke-linecap="round" stroke-linejoin="round"/>
<path d="M53.2207 100.212H66.3169" stroke="#263238" stroke-linecap="round" stroke-linejoin="round"/>
<path d="M46.9121 100.212H52.015" stroke="#263238" stroke-linecap="round" stroke-linejoin="round"/>
<path d="M86.0771 87.2715H102.694" stroke="#263238" stroke-width="3" stroke-linecap="round" stroke-linejoin="round"/>
<path d="M102.398 89.8605H104.212" stroke="#263238" stroke-linecap="round" stroke-linejoin="round"/>
<path d="M91.9932 89.8605H101.3" stroke="#263238" stroke-linecap="round" stroke-linejoin="round"/>
<path d="M84.8066 89.8605H91.0076" stroke="#263238" stroke-linecap="round" stroke-linejoin="round"/>
<path d="M96.5898 92.4498H104.212" stroke="#263238" stroke-linecap="round" stroke-linejoin="round"/>
<path d="M92.4287 92.4498H95.3892" stroke="#263238" stroke-linecap="round" stroke-linejoin="round"/>
<path d="M84.8066 92.4498H91.1152" stroke="#263238" stroke-linecap="round" stroke-linejoin="round"/>
<path d="M88.9248 95.0334H104.212" stroke="#263238" stroke-linecap="round" stroke-linejoin="round"/>
<path d="M84.8066 95.0334H87.5034" stroke="#263238" stroke-linecap="round" stroke-linejoin="round"/>
<path d="M100.428 97.6226H104.212" stroke="#263238" stroke-linecap="round" stroke-linejoin="round"/>
<path d="M93.1982 97.6226H99.1085" stroke="#263238" stroke-linecap="round" stroke-linejoin="round"/>
<path d="M84.8066 97.6226H91.9926" stroke="#263238" stroke-linecap="round" stroke-linejoin="round"/>
<path d="M91.1152 100.212H104.211" stroke="#263238" stroke-linecap="round" stroke-linejoin="round"/>
<path d="M84.8066 100.212H89.9095" stroke="#263238" stroke-linecap="round" stroke-linejoin="round"/>
<path d="M123.972 87.2715H140.588" stroke="#263238" stroke-width="3" stroke-linecap="round" stroke-linejoin="round"/>
<path d="M140.292 89.8605H142.106" stroke="#263238" stroke-linecap="round" stroke-linejoin="round"/>
<path d="M129.888 89.8605H139.194" stroke="#263238" stroke-linecap="round" stroke-linejoin="round"/>
<path d="M122.701 89.8605H128.902" stroke="#263238" stroke-linecap="round" stroke-linejoin="round"/>
<path d="M134.483 92.4498H142.105" stroke="#263238" stroke-linecap="round" stroke-linejoin="round"/>
<path d="M130.323 92.4498H133.284" stroke="#263238" stroke-linecap="round" stroke-linejoin="round"/>
<path d="M122.701 92.4498H129.01" stroke="#263238" stroke-linecap="round" stroke-linejoin="round"/>
<path d="M126.818 95.0334H142.105" stroke="#263238" stroke-linecap="round" stroke-linejoin="round"/>
<path d="M122.701 95.0334H125.398" stroke="#263238" stroke-linecap="round" stroke-linejoin="round"/>
<path d="M138.322 97.6226H142.106" stroke="#263238" stroke-linecap="round" stroke-linejoin="round"/>
<path d="M131.093 97.6226H137.003" stroke="#263238" stroke-linecap="round" stroke-linejoin="round"/>
<path d="M122.701 97.6226H129.887" stroke="#263238" stroke-linecap="round" stroke-linejoin="round"/>
<path d="M129.01 100.212H142.106" stroke="#263238" stroke-linecap="round" stroke-linejoin="round"/>
<path d="M122.701 100.212H127.804" stroke="#263238" stroke-linecap="round" stroke-linejoin="round"/>
<path d="M161.866 87.2715H178.483" stroke="#263238" stroke-width="3" stroke-linecap="round" stroke-linejoin="round"/>
<path d="M178.187 89.8605H180.001" stroke="#263238" stroke-linecap="round" stroke-linejoin="round"/>
<path d="M167.781 89.8605H177.088" stroke="#263238" stroke-linecap="round" stroke-linejoin="round"/>
<path d="M160.596 89.8605H166.797" stroke="#263238" stroke-linecap="round" stroke-linejoin="round"/>
<path d="M172.379 92.4498H180.001" stroke="#263238" stroke-linecap="round" stroke-linejoin="round"/>
<path d="M168.218 92.4498H171.178" stroke="#263238" stroke-linecap="round" stroke-linejoin="round"/>
<path d="M160.596 92.4498H166.904" stroke="#263238" stroke-linecap="round" stroke-linejoin="round"/>
<path d="M164.714 95.0334H180.001" stroke="#263238" stroke-linecap="round" stroke-linejoin="round"/>
<path d="M160.596 95.0334H163.292" stroke="#263238" stroke-linecap="round" stroke-linejoin="round"/>
<path d="M176.217 97.6226H180.001" stroke="#263238" stroke-linecap="round" stroke-linejoin="round"/>
<path d="M168.987 97.6226H174.898" stroke="#263238" stroke-linecap="round" stroke-linejoin="round"/>
<path d="M160.596 97.6226H167.782" stroke="#263238" stroke-linecap="round" stroke-linejoin="round"/>
<path d="M166.904 100.212H180.001" stroke="#263238" stroke-linecap="round" stroke-linejoin="round"/>
<path d="M160.596 100.212H165.699" stroke="#263238" stroke-linecap="round" stroke-linejoin="round"/>
<path d="M185.12 78.9337H38.709V48.731H185.12V78.9337Z" fill="#00A746"/>
<path opacity="0.7" d="M185.12 78.9337H38.709V48.731H185.12V78.9337Z" fill="white"/>
<path d="M148.07 78.9337H75.7852V48.731H148.07V78.9337Z" fill="#00A746"/>
<path opacity="0.92" d="M148.07 78.9337H75.7852V48.731H148.07V78.9337Z" fill="white"/>
<path d="M133.3 57.4833H138.225" stroke="#263238" stroke-linecap="round" stroke-linejoin="round"/>
<path d="M105.104 57.4833H130.333" stroke="#263238" stroke-linecap="round" stroke-linejoin="round"/>
<path d="M85.6299 57.4833H102.429" stroke="#263238" stroke-linecap="round" stroke-linejoin="round"/>
<path d="M117.572 60.0724H138.226" stroke="#263238" stroke-linecap="round" stroke-linejoin="round"/>
<path d="M106.289 60.0724H114.304" stroke="#263238" stroke-linecap="round" stroke-linejoin="round"/>
<path d="M85.6299 60.0724H102.731" stroke="#263238" stroke-linecap="round" stroke-linejoin="round"/>
<path d="M96.7939 62.6616H138.225" stroke="#263238" stroke-linecap="round" stroke-linejoin="round"/>
<path d="M85.6299 62.6616H92.9343" stroke="#263238" stroke-linecap="round" stroke-linejoin="round"/>
<path d="M127.96 65.2506H138.225" stroke="#263238" stroke-linecap="round" stroke-linejoin="round"/>
<path d="M108.367 65.2506H124.397" stroke="#263238" stroke-linecap="round" stroke-linejoin="round"/>
<path d="M85.6299 65.2506H105.105" stroke="#263238" stroke-linecap="round" stroke-linejoin="round"/>
<path d="M102.731 67.8344H138.225" stroke="#263238" stroke-linecap="round" stroke-linejoin="round"/>
<path d="M85.6299 67.8344H99.4636" stroke="#263238" stroke-linecap="round" stroke-linejoin="round"/>
<path d="M185.12 143.494H38.709V113.292H185.12V143.494Z" fill="#00A746"/>
<path opacity="0.7" d="M185.12 143.494H38.709V113.292H185.12V143.494Z" fill="white"/>
<mask id="mask1_439_958" style="mask-type:luminance" maskUnits="userSpaceOnUse" x="153" y="101" width="34" height="43">
<path d="M186.251 101.03H153.744V143.683H186.251V101.03Z" fill="white"/>
</mask>
<g mask="url(#mask1_439_958)">
<path d="M167.792 124.784C167.792 124.784 159.217 128.229 157.872 128.655C156.526 129.08 156.445 129.661 156.445 131.507C156.445 133.354 156.698 141.681 156.698 142.354C156.698 143.027 156.612 144.286 156.612 144.286H184.705C184.705 144.286 182.853 136.75 181.76 133.192C180.668 129.634 181.174 129.322 179.241 128.149C177.309 126.975 172.244 125.29 171.167 125.037C170.051 124.862 168.922 124.778 167.792 124.784Z" fill="#263238" stroke="#263238" stroke-linecap="round" stroke-linejoin="round"/>
<path d="M168.212 123.858C168.212 123.858 166.194 123.692 165.354 125.376C164.515 127.061 162.496 130.985 162.496 130.985L164.934 132.498L162.098 133.946C162.572 136.022 163.161 138.071 163.863 140.082C164.352 141.402 164.912 142.694 165.543 143.952C165.543 143.952 169.634 139.329 171.248 137.897C172.313 136.878 173.194 135.683 173.854 134.366L171.754 132.433L175.372 132.013C175.372 132.013 174.446 127.309 173.267 125.376C172.088 123.444 168.212 123.858 168.212 123.858Z" fill="#263238" stroke="#263238" stroke-linecap="round" stroke-linejoin="round"/>
<path d="M164.084 140.136C164.235 140.556 164.396 140.954 164.552 141.304" stroke="white" stroke-width="0.5" stroke-linecap="round" stroke-linejoin="round"/>
<path d="M164.39 127.47L162.495 130.985L164.934 132.498L162.323 133.978C162.323 133.978 162.931 136.632 163.696 139.011" stroke="white" stroke-width="0.5" stroke-linecap="round" stroke-linejoin="round"/>
<path d="M173.939 125.877L175.355 132.014L171.738 132.433L173.837 134.366C173.837 134.366 169.8 139.097 168.126 141.008" stroke="white" stroke-width="0.5" stroke-linecap="round" stroke-linejoin="round"/>
<path d="M179.225 135.292L177.713 144.625" stroke="white" stroke-width="0.5" stroke-linecap="round" stroke-linejoin="round"/>
<path d="M158.465 133.612C158.465 133.612 158.298 139.242 158.379 141.008C158.445 142.127 158.672 143.231 159.051 144.286" stroke="white" stroke-width="0.5" stroke-linecap="round" stroke-linejoin="round"/>
<path d="M174.015 137.563L175.441 135.631L176.62 137.563H174.015Z" fill="white" stroke="#263238" stroke-miterlimit="10"/>
<path d="M175.694 119.068C175.694 119.068 177.121 118.901 177.46 121.006C177.799 123.11 176.787 125.796 173.423 125.796C170.059 125.796 170.317 123.272 170.398 121.426C170.478 119.579 175.694 119.068 175.694 119.068Z" fill="#263238" stroke="#263238" stroke-miterlimit="10"/>
<path d="M167.373 122.518C167.373 122.518 167.287 124.951 167.12 127.729C166.953 130.506 165.607 134.285 165.607 137.477C165.596 139.246 165.68 141.014 165.86 142.774C165.86 142.774 168.633 137.391 169.892 134.285C171.152 131.179 172.584 122.179 172.584 122.179L167.373 122.518Z" fill="white" stroke="#263238" stroke-miterlimit="10"/>
<path d="M175.608 116.99C176.233 115.764 176.579 114.415 176.619 113.039C176.619 110.94 176.2 108.082 173.761 106.817C171.323 105.552 166.613 106.397 165.439 108.835C164.647 110.394 164.276 112.133 164.363 113.879C164.448 114.823 164.645 115.754 164.95 116.651C164.95 116.651 165.289 115.036 167.555 114.218C169.821 113.4 172.265 112.533 173.438 113.141C174.612 113.75 175.608 116.99 175.608 116.99Z" fill="#263238" stroke="#263238" stroke-linecap="round" stroke-linejoin="round"/>
<path d="M165.021 116.129C165.021 116.129 164.009 114.616 163.589 115.709C163.169 116.802 163.761 118.4 164.428 118.734C165.096 119.068 165.44 118.901 165.44 118.901L165.021 116.129Z" fill="white" stroke="#263238" stroke-linecap="round" stroke-linejoin="round"/>
<path d="M175.608 116.382C175.608 116.382 176.787 115.203 176.787 116.296C176.727 117.31 176.351 118.279 175.71 119.068C175.204 119.741 174.951 119.407 174.951 119.407L175.608 116.382Z" fill="white" stroke="#263238" stroke-linecap="round" stroke-linejoin="round"/>
<path d="M173.61 111.543L174.445 109.191C174.478 109.098 174.473 108.997 174.431 108.909C174.389 108.82 174.313 108.752 174.221 108.72C174.129 108.687 174.028 108.692 173.94 108.734C173.851 108.776 173.783 108.851 173.75 108.943L173.051 110.908C172.314 110.734 171.55 110.712 170.805 110.843C170.06 110.974 169.35 111.256 168.718 111.672C166.532 113.104 164.767 114.363 164.767 114.363C164.767 114.363 164.853 119.154 165.773 120.92C166.694 122.685 168.298 124.784 169.643 124.784C170.989 124.784 173.341 121.845 174.267 120.92C175.193 119.994 175.78 116.382 175.78 115.203C175.78 114.358 174.391 112.517 173.61 111.543Z" fill="white" stroke="#263238" stroke-miterlimit="10"/>
<path d="M170.301 133.139C168.936 133.262 167.56 133.078 166.275 132.6C165.89 134.212 165.666 135.858 165.607 137.515C165.596 139.284 165.68 141.052 165.86 142.811C165.86 142.811 168.633 137.429 169.892 134.323C170.027 133.957 170.172 133.553 170.301 133.139Z" fill="#00A746" stroke="#263238" stroke-miterlimit="10"/>
</g>
<mask id="mask2_439_958" style="mask-type:luminance" maskUnits="userSpaceOnUse" x="115" y="101" width="34" height="43">
<path d="M148.151 101.03H115.645V143.683H148.151V101.03Z" fill="white"/>
</mask>
<g mask="url(#mask2_439_958)">
<path d="M130.571 120.322C128.427 120.565 126.297 120.925 124.192 121.399C121.732 122.034 120.548 122.308 120.548 123.492C120.548 124.677 120.274 129.779 119.472 132.062C118.669 134.344 117.738 137.622 117.738 138.806C117.738 139.991 119.472 145.002 119.472 145.002H122.658C122.658 145.002 121.474 139.167 121.474 138.623C121.474 138.08 123.116 133.241 123.116 133.241L123.207 145.18H139.894L139.716 133.784C139.716 133.784 141.169 138.435 141.169 139.253C141.169 140.071 140.631 145.454 140.631 145.454H143.796C143.796 145.454 145.346 139.533 145.255 137.434C145.163 135.335 143.64 128.681 143.436 126.668C143.231 124.655 144.437 123.568 142.251 122.201C140.066 120.833 135.049 120.015 133.957 119.924C132.818 119.946 131.684 120.08 130.571 120.322Z" fill="#00A746" stroke="#263238" stroke-miterlimit="10"/>
<path d="M123.099 133.267L123.374 128.708L122.367 125.247" stroke="#263238" stroke-linecap="round" stroke-linejoin="round"/>
<path d="M139.688 127.982V133.811" stroke="#263238" stroke-linecap="round" stroke-linejoin="round"/>
<path d="M139.775 129.623L141.234 127.433" stroke="#263238" stroke-linecap="round" stroke-linejoin="round"/>
<path d="M132.121 126.523L131.577 145.023" stroke="#263238" stroke-linecap="round" stroke-linejoin="round"/>
<path d="M131.847 118.136C131.036 118.181 130.264 118.502 129.661 119.046C128.66 119.961 128.294 123.514 128.294 123.514C128.294 123.514 131.486 122.604 132.03 122.437C132.573 122.27 137.412 123.347 137.412 123.347C137.412 123.347 136.96 120.16 135.684 118.793C134.409 117.426 131.847 118.136 131.847 118.136Z" fill="#263238" stroke="#263238" stroke-linecap="round" stroke-linejoin="round"/>
<path d="M130.57 115.219C130.57 115.219 131.302 116.296 131.302 119.525C131.302 122.755 131.663 126.087 132.121 126.523C132.578 126.959 134.489 122.217 134.489 120.063C134.525 118.64 134.869 117.241 135.496 115.962C135.496 115.962 133.213 114.412 132.029 114.229C131.706 114.178 131.375 114.252 131.104 114.436C130.834 114.62 130.643 114.9 130.57 115.219Z" fill="white" stroke="#263238" stroke-linecap="round" stroke-linejoin="round"/>
<path d="M131.448 123.078C131.594 124.849 131.841 126.243 132.121 126.523C132.401 126.803 133.278 125.027 133.881 123.121C133.073 123.235 132.252 123.221 131.448 123.078Z" fill="#263238" stroke="#263238" stroke-linecap="round" stroke-linejoin="round"/>
<path d="M136.13 106.472C136.13 106.472 136.669 106.655 137.681 105.74C138.693 104.825 138.219 103.097 137.772 103.463C137.487 103.696 137.24 103.972 137.04 104.281C136.863 103.748 136.538 103.276 136.102 102.921C135.666 102.567 135.138 102.344 134.58 102.279C132.669 102.096 130.387 104.739 130.387 104.739C130.387 104.739 126.199 107.839 126.651 110.299C127.103 112.759 129.477 114.944 130.57 115.219C131.663 115.494 133.67 113.491 133.304 111.758C132.938 110.025 132.669 107.452 133.304 107.199C134.232 106.904 135.175 106.661 136.13 106.472Z" fill="#263238" stroke="#263238" stroke-linecap="round" stroke-linejoin="round"/>
<path d="M130.388 113.76C130.388 113.76 128.843 112.684 128.477 113.491C128.111 114.298 128.935 115.768 129.936 116.22C130.937 116.672 131.847 115.219 131.847 115.219C131.847 115.219 135.039 117.77 137.23 117.862C139.42 117.953 139.512 116.22 139.146 112.942C138.78 109.664 137.687 107.107 136.869 106.197C136.051 105.288 132.859 106.106 131.852 106.924C130.846 107.742 130.237 108.474 131.217 108.657C132.197 108.84 133.128 109.196 132.218 110.208C131.309 111.219 130.851 110.843 131.142 111.575C131.432 112.307 132.6 113.033 131.508 113.4L130.388 113.76Z" fill="white" stroke="#263238" stroke-linecap="round" stroke-linejoin="round"/>
</g>
<mask id="mask3_439_958" style="mask-type:luminance" maskUnits="userSpaceOnUse" x="72" y="100" width="34" height="44">
<path d="M105.5 100.825H72.9932V143.688H105.5V100.825Z" fill="white"/>
</mask>
<g mask="url(#mask3_439_958)">
<path d="M90.3358 118.605C90.3358 118.605 78.849 119.972 78.4937 120.973C78.1385 121.974 73.9399 131.738 74.5751 132.637C75.2102 133.536 76.4913 133.714 77.4925 133.714C78.2017 133.65 78.8725 133.364 79.4088 132.896L76.4913 145.276H97.6348L98.2753 136.615C98.2753 136.615 100.735 137.692 102.377 137.53C104.019 137.369 103.653 136.072 103.287 133.612C102.921 131.152 102.748 124.859 102.102 123.675C101.457 122.491 93.7162 119.207 93.7162 119.207L90.3358 118.605Z" fill="#263238" stroke="#263238" stroke-linecap="round" stroke-linejoin="round"/>
<path d="M98.4473 133.45V127.798L98.8994 126.706" stroke="white" stroke-linecap="round" stroke-linejoin="round"/>
<path d="M80.0332 128.708L80.9483 124.881L80.7653 124.063" stroke="white" stroke-linecap="round" stroke-linejoin="round"/>
<path d="M82.4336 145.664C82.4336 145.664 84.1615 138.187 84.985 133.542C85.8086 128.896 89.2374 118.605 89.2374 118.605L94.5286 120.063C94.5286 120.063 90.9706 130.452 90.061 134.92C89.1513 139.387 88.3869 145.717 88.3869 145.717L82.4336 145.664Z" fill="#00A746" stroke="#263238" stroke-miterlimit="10"/>
<path d="M89.9697 117.528C89.9697 117.528 88.4195 117.528 87.8704 118.604C87.3214 119.681 86.5947 123.89 86.5947 123.89C86.5947 123.89 89.8782 122.432 90.1527 122.432C90.4272 122.432 91.703 122.523 92.3381 123.25C92.9733 123.976 94.3459 125.71 94.3459 125.71C94.3459 125.71 96.4398 122.34 95.8961 120.155C95.7097 119.434 95.3009 118.791 94.7278 118.317C94.1547 117.842 93.4466 117.56 92.7042 117.512L89.9697 117.528Z" fill="#00A746" stroke="#263238" stroke-miterlimit="10"/>
<path d="M89.4309 115.127C89.4309 115.127 89.2479 121.511 89.4309 123.331C89.614 125.15 89.8885 125.608 89.8885 125.608C89.8885 125.608 91.4387 123.056 91.8909 122.146C92.343 121.237 93.7156 120.23 94.3562 119.412C94.9967 118.594 95.4327 115.493 95.4327 115.493C95.4327 115.493 93.0643 117.318 91.7886 116.861C90.886 116.461 90.0813 115.87 89.4309 115.127Z" fill="white" stroke="#263238" stroke-linecap="round" stroke-linejoin="round"/>
<path d="M93.1995 103.592C91.6493 103.818 90.1367 104.593 89.7007 106.106C89.3347 107.381 89.1624 111.575 89.0656 113.669C88.9687 115.762 90.0667 118.411 90.9764 118.685C91.7358 118.955 92.5531 119.018 93.3448 118.868C93.8024 118.685 95.9017 115.859 96.4453 115.31C96.989 114.761 98.6307 109.658 98.6307 107.839C98.6708 106.942 98.4171 106.055 97.9081 105.315C97.3991 104.575 96.6625 104.021 95.8102 103.737C94.9598 103.506 94.0703 103.457 93.1995 103.592Z" fill="white" stroke="#263238" stroke-linecap="round" stroke-linejoin="round"/>
<path d="M97.7155 112.145C97.7155 112.145 99.1742 110.864 98.792 112.506C98.6747 112.996 98.4508 113.455 98.1364 113.849C97.822 114.244 97.4247 114.564 96.9727 114.788L97.7155 112.145Z" fill="white" stroke="#263238" stroke-linecap="round" stroke-linejoin="round"/>
<path d="M89.2377 110.39C89.2377 110.39 88.1611 109.389 88.1611 110.756C88.2028 111.652 88.5226 112.512 89.0762 113.216L89.2377 110.39Z" fill="white" stroke="#263238" stroke-linecap="round" stroke-linejoin="round"/>
<path d="M97.7152 112.145C98.1881 110.751 98.4935 109.305 98.6249 107.839C98.665 106.942 98.4113 106.055 97.9023 105.315C97.3933 104.575 96.6567 104.021 95.8043 103.737C94.9539 103.506 94.0645 103.457 93.1937 103.592C91.6435 103.818 90.1309 104.593 89.6949 106.106C89.4144 107.614 89.2506 109.142 89.2051 110.676C89.668 110.315 90.6315 109.432 90.427 108.383C90.1524 107.015 89.6034 106.38 90.6046 105.74C91.6058 105.099 92.7954 106.014 94.4371 106.563C96.0789 107.112 97.7152 106.38 98.1728 106.832C98.6303 107.285 96.714 109.206 96.9885 109.933C97.2631 110.66 97.8982 111.483 97.7152 112.124V112.145Z" fill="#263238" stroke="#263238" stroke-linecap="round" stroke-linejoin="round"/>
<path d="M84.5873 129.623C84.5873 129.623 83.2201 127.707 82.3104 127.615C81.4007 127.524 79.21 129.623 79.21 129.623H84.5873Z" fill="white" stroke="#263238" stroke-linecap="round" stroke-linejoin="round"/>
<path d="M93.2471 129.801H94.5282L94.7973 132.357L93.4301 131.991L93.2471 129.801Z" fill="white" stroke="#263238" stroke-linecap="round" stroke-linejoin="round"/>
<path d="M94.5293 129.801L96.8062 130.807L97.3499 133.633L94.7984 132.357L94.5293 129.801Z" fill="white" stroke="#263238" stroke-linecap="round" stroke-linejoin="round"/>
<path d="M101.812 134.753L88.7807 129.65C88.0295 130.019 87.3248 130.476 86.6815 131.012C86.3013 131.394 86.0204 131.863 85.8633 132.379C85.8633 132.379 92.0588 136.847 95.0678 138.214C98.0768 139.581 102.453 140.039 103.18 139.29C103.906 138.542 103.718 135.738 103.271 135.28C103.03 135.031 102.754 134.817 102.453 134.645" fill="#263238"/>
<path d="M101.812 134.753L88.7807 129.65C88.0295 130.019 87.3248 130.476 86.6815 131.012C86.3013 131.394 86.0204 131.863 85.8633 132.379C85.8633 132.379 92.0588 136.847 95.0678 138.214C98.0768 139.581 102.453 140.039 103.18 139.29C103.906 138.542 103.718 135.738 103.271 135.28C103.03 135.031 102.754 134.817 102.453 134.645" stroke="#263238" stroke-linecap="round" stroke-linejoin="round"/>
<path d="M93.2477 129.37L93.4307 132.013C93.4307 132.013 83.8602 134.198 80.3075 134.839C76.7549 135.479 74.8387 135.016 74.295 133.38C73.7513 131.744 75.5707 129.731 76.3889 129.278C77.2071 128.826 93.2477 129.37 93.2477 129.37Z" fill="#263238" stroke="#263238" stroke-linecap="round" stroke-linejoin="round"/>
</g>
<mask id="mask4_439_958" style="mask-type:luminance" maskUnits="userSpaceOnUse" x="40" y="101" width="30" height="43">
<path d="M69.058 101.03H40.2764V143.683H69.058V101.03Z" fill="white"/>
</mask>
<g mask="url(#mask4_439_958)">
<path d="M58.0454 123.121C58.0454 123.121 61.6949 124.03 63.1537 124.488C64.6124 124.945 65.0645 125.489 65.0645 126.582C65.0645 127.674 64.2464 132.503 64.2464 133.235V138.16C64.2464 139.527 65.6136 144.539 65.6136 144.539H47.8505C47.8505 144.539 45.8481 136.884 44.4809 132.697C43.1137 128.509 42.9306 127.045 44.2979 126.404C47.5479 125.213 50.8638 124.21 54.2291 123.401C55.4931 123.218 56.7683 123.125 58.0454 123.121Z" fill="#00A746" stroke="#263238" stroke-miterlimit="10"/>
<path d="M63.3366 129.133C63.3366 129.133 64.4131 134.15 64.0633 135.969C63.7134 137.789 61.2373 144.722 61.2373 144.722" stroke="#263238" stroke-linecap="round" stroke-linejoin="round"/>
<path d="M44.2869 126.399C44.2869 126.399 42.6721 126.673 43.1027 128.773C43.5333 130.872 41.4609 144.442 41.4609 144.442H45.4711C45.4711 144.442 48.2055 137.24 48.6577 135.512C49.1098 133.784 49.4812 132.411 48.6577 130.953" fill="#00A746"/>
<path d="M44.2869 126.399C44.2869 126.399 42.6721 126.673 43.1027 128.773C43.5333 130.872 41.4609 144.442 41.4609 144.442H45.4711C45.4711 144.442 48.2055 137.24 48.6577 135.512C49.1098 133.784 49.4812 132.411 48.6577 130.953" stroke="#263238" stroke-miterlimit="10"/>
<path d="M61.2692 114.245L61.8667 132.81H56.4785V115.843L61.2692 114.245Z" fill="#263238" stroke="#263238" stroke-linecap="round" stroke-linejoin="round"/>
<path d="M54.3089 127.588C54.3089 127.588 55.8591 134.586 56.4997 136.701C57.1402 138.817 57.2264 143.699 57.038 144.356C56.8496 145.012 59.3149 144.356 59.3149 144.356C59.3149 144.356 59.9554 139.511 60.3214 136.701C60.6875 133.892 59.5894 128.59 59.5894 128.59L58.4052 123.939L53.9375 124.762L54.3089 127.588Z" fill="white" stroke="#263238" stroke-linecap="round" stroke-linejoin="round"/>
<path d="M58.2121 119.929C57.958 121.38 57.9891 122.866 58.3036 124.305C58.8419 126.313 60.3114 129.957 59.0357 130.958C57.76 131.959 56.0267 131.416 55.117 129.591C54.2074 127.766 53.3838 123.212 53.3838 119.477C53.3838 115.741 53.7498 115.1 55.0255 115.1C56.3012 115.1 58.2121 119.929 58.2121 119.929Z" fill="white" stroke="#263238" stroke-linecap="round" stroke-linejoin="round"/>
<path d="M55.5857 118.201C54.7661 118.913 53.8021 119.44 52.7598 119.746C51.3926 120.02 50.6659 116.376 50.4829 112.748C50.2999 109.12 51.215 107.096 53.1258 106.187C55.0367 105.277 59.6874 105.729 61.5122 106.456C63.3369 107.182 65.5223 108.372 65.5223 110.283C65.5223 112.194 63.057 113.76 62.3303 114.191C61.6037 114.621 59.8704 115.267 58.7777 116.376C57.8336 117.174 56.7519 117.792 55.5857 118.201Z" fill="#263238" stroke="#263238" stroke-linecap="round" stroke-linejoin="round"/>
<path d="M55.5859 118.201C55.5859 118.201 56.6625 120.935 58.6864 121.022C60.7103 121.108 62.9926 116.468 63.0626 114.46C63.1326 112.452 61.0548 108.991 61.0548 108.991C61.0548 108.991 57.5022 117.103 55.5859 118.201Z" fill="white" stroke="#263238" stroke-linecap="round" stroke-linejoin="round"/>
<path d="M55.0416 114.099L55.2193 133.784H49.1152L50.4825 110.907" fill="#263238"/>
<path d="M55.0416 114.099L55.2193 133.784H49.1152L50.4825 110.907" stroke="#263238" stroke-linecap="round" stroke-linejoin="round"/>
</g>
</svg>
