<svg width="53" height="53" viewBox="0 0 53 53" fill="none" xmlns="http://www.w3.org/2000/svg">
<path d="M18.9849 6.43208C23.7187 3.6815 29.5374 3.72958 34.2268 6.55801C38.8702 9.44405 41.6923 14.5948 41.6662 20.1355C41.5579 25.6399 38.5318 30.8141 34.7492 34.8139C32.566 37.1329 30.1237 39.1835 27.4722 40.9238C27.1991 41.0817 26.9 41.1874 26.5896 41.2357C26.2908 41.223 25.9999 41.1347 25.743 40.9789C21.6949 38.364 18.1436 35.0261 15.2597 31.126C12.8466 27.8704 11.4756 23.9371 11.333 19.8603L11.3438 19.2672C11.5408 13.9458 14.4201 9.08442 18.9849 6.43208ZM28.4654 15.3111C26.541 14.4931 24.3223 14.9375 22.8452 16.4368C21.3681 17.9362 20.9241 20.1946 21.7204 22.1578C22.5167 24.1209 24.3962 25.4014 26.4815 25.4014C27.8476 25.4112 29.1607 24.864 30.1284 23.8818C31.0961 22.8995 31.6379 21.5638 31.6331 20.1722C31.6403 18.0481 30.3898 16.1291 28.4654 15.3111Z" fill="#00A746"/>
<path opacity="0.4" d="M26.4993 47.7357C32.4824 47.7357 37.3327 46.7657 37.3327 45.5691C37.3327 44.3725 32.4824 43.4024 26.4993 43.4024C20.5163 43.4024 15.666 44.3725 15.666 45.5691C15.666 46.7657 20.5163 47.7357 26.4993 47.7357Z" fill="#00A746"/>
</svg>
