<svg width="184" height="73" viewBox="0 0 184 73" fill="none" xmlns="http://www.w3.org/2000/svg">
<g filter="url(#filter0_d_408_1185)">
<rect y="0.48584" width="177" height="65.3333" rx="10" fill="#B0E4C6" shape-rendering="crispEdges"/>
<g clip-path="url(#clip0_408_1185)">
<path d="M30.2741 32.5942L20.0911 43.1224C20.2055 43.5224 20.411 43.8912 20.6919 44.2007C20.9728 44.5102 21.3218 44.7523 21.712 44.9083C22.1023 45.0644 22.5235 45.1303 22.9436 45.1011C23.3636 45.0719 23.7713 44.9483 24.1355 44.7398L35.5933 38.3001L30.2741 32.5942Z" fill="#EA4335"/>
<path d="M40.5709 30.8048L35.6161 28.0042L30.039 32.8338L35.6388 38.2851L40.5558 35.5145C40.9914 35.2895 41.3563 34.951 41.6108 34.5359C41.8654 34.1208 42 33.6448 42 33.1596C42 32.6744 41.8654 32.1984 41.6108 31.7833C41.3563 31.3682 40.9914 31.0298 40.5558 30.8047L40.5709 30.8048Z" fill="#FBBC04"/>
<path d="M20.0911 23.1443C20.0296 23.3688 19.9989 23.6005 20 23.8332V42.4333C20.0007 42.6659 20.0313 42.8974 20.0911 43.1223L30.6232 32.8637L20.0911 23.1443Z" fill="#4285F4"/>
<path d="M30.35 33.1334L35.6161 28.0041L24.1735 21.5345C23.743 21.2857 23.2533 21.1539 22.7544 21.1526C21.5163 21.1502 20.4278 21.9611 20.0911 23.137L30.35 33.1334Z" fill="#34A853"/>
</g>
<path d="M58.936 19.2126C58.72 18.7966 58.42 18.4846 58.036 18.2766C57.652 18.0606 57.208 17.9526 56.704 17.9526C56.152 17.9526 55.66 18.0766 55.228 18.3246C54.796 18.5726 54.456 18.9246 54.208 19.3806C53.968 19.8366 53.848 20.3646 53.848 20.9646C53.848 21.5646 53.968 22.0966 54.208 22.5606C54.456 23.0166 54.796 23.3686 55.228 23.6166C55.66 23.8646 56.152 23.9886 56.704 23.9886C57.448 23.9886 58.052 23.7806 58.516 23.3646C58.98 22.9486 59.264 22.3846 59.368 21.6726H56.236V20.5806H60.832V21.6486C60.744 22.2966 60.512 22.8926 60.136 23.4366C59.768 23.9806 59.284 24.4166 58.684 24.7446C58.092 25.0646 57.432 25.2246 56.704 25.2246C55.92 25.2246 55.204 25.0446 54.556 24.6846C53.908 24.3166 53.392 23.8086 53.008 23.1606C52.632 22.5126 52.444 21.7806 52.444 20.9646C52.444 20.1486 52.632 19.4166 53.008 18.7686C53.392 18.1206 53.908 17.6166 54.556 17.2566C55.212 16.8886 55.928 16.7046 56.704 16.7046C57.592 16.7046 58.38 16.9246 59.068 17.3646C59.764 17.7966 60.268 18.4126 60.58 19.2126H58.936ZM68.8413 21.6846C68.8413 21.9326 68.8253 22.1566 68.7933 22.3566H63.7413C63.7813 22.8846 63.9773 23.3086 64.3293 23.6286C64.6813 23.9486 65.1133 24.1086 65.6253 24.1086C66.3613 24.1086 66.8813 23.8006 67.1853 23.1846H68.6613C68.4613 23.7926 68.0973 24.2926 67.5693 24.6846C67.0493 25.0686 66.4013 25.2606 65.6253 25.2606C64.9933 25.2606 64.4253 25.1206 63.9213 24.8406C63.4253 24.5526 63.0333 24.1526 62.7453 23.6406C62.4653 23.1206 62.3253 22.5206 62.3253 21.8406C62.3253 21.1606 62.4613 20.5646 62.7333 20.0526C63.0133 19.5326 63.4013 19.1326 63.8973 18.8526C64.4013 18.5726 64.9773 18.4326 65.6253 18.4326C66.2493 18.4326 66.8053 18.5686 67.2933 18.8406C67.7813 19.1126 68.1613 19.4966 68.4333 19.9926C68.7053 20.4806 68.8413 21.0446 68.8413 21.6846ZM67.4133 21.2526C67.4053 20.7486 67.2253 20.3446 66.8733 20.0406C66.5213 19.7366 66.0853 19.5846 65.5653 19.5846C65.0933 19.5846 64.6893 19.7366 64.3533 20.0406C64.0173 20.3366 63.8173 20.7406 63.7533 21.2526H67.4133ZM72.3835 19.6566V23.3166C72.3835 23.5646 72.4395 23.7446 72.5515 23.8566C72.6715 23.9606 72.8715 24.0126 73.1515 24.0126H73.9915V25.1526H72.9115C72.2955 25.1526 71.8235 25.0086 71.4955 24.7206C71.1675 24.4326 71.0035 23.9646 71.0035 23.3166V19.6566H70.2235V18.5406H71.0035V16.8966H72.3835V18.5406H73.9915V19.6566H72.3835ZM80.2655 17.6646C80.0175 17.6646 79.8095 17.5806 79.6415 17.4126C79.4735 17.2446 79.3895 17.0366 79.3895 16.7886C79.3895 16.5406 79.4735 16.3326 79.6415 16.1646C79.8095 15.9966 80.0175 15.9126 80.2655 15.9126C80.5055 15.9126 80.7095 15.9966 80.8775 16.1646C81.0455 16.3326 81.1295 16.5406 81.1295 16.7886C81.1295 17.0366 81.0455 17.2446 80.8775 17.4126C80.7095 17.5806 80.5055 17.6646 80.2655 17.6646ZM80.9375 18.5406V25.1526H79.5695V18.5406H80.9375ZM84.9296 19.6566V23.3166C84.9296 23.5646 84.9856 23.7446 85.0976 23.8566C85.2176 23.9606 85.4176 24.0126 85.6976 24.0126H86.5376V25.1526H85.4576C84.8416 25.1526 84.3696 25.0086 84.0416 24.7206C83.7136 24.4326 83.5496 23.9646 83.5496 23.3166V19.6566H82.7696V18.5406H83.5496V16.8966H84.9296V18.5406H86.5376V19.6566H84.9296ZM94.8876 19.6566H93.6636V25.1526H92.2836V19.6566H91.5036V18.5406H92.2836V18.0726C92.2836 17.3126 92.4836 16.7606 92.8836 16.4166C93.2916 16.0646 93.9276 15.8886 94.7916 15.8886V17.0286C94.3756 17.0286 94.0836 17.1086 93.9156 17.2686C93.7476 17.4206 93.6636 17.6886 93.6636 18.0726V18.5406H94.8876V19.6566ZM98.068 19.5006C98.268 19.1646 98.532 18.9046 98.86 18.7206C99.196 18.5286 99.592 18.4326 100.048 18.4326V19.8486H99.7C99.164 19.8486 98.756 19.9846 98.476 20.2566C98.204 20.5286 98.068 21.0006 98.068 21.6726V25.1526H96.7V18.5406H98.068V19.5006ZM104.773 25.2606C104.149 25.2606 103.585 25.1206 103.081 24.8406C102.577 24.5526 102.181 24.1526 101.893 23.6406C101.605 23.1206 101.461 22.5206 101.461 21.8406C101.461 21.1686 101.609 20.5726 101.905 20.0526C102.201 19.5326 102.605 19.1326 103.117 18.8526C103.629 18.5726 104.201 18.4326 104.833 18.4326C105.465 18.4326 106.037 18.5726 106.549 18.8526C107.061 19.1326 107.465 19.5326 107.761 20.0526C108.057 20.5726 108.205 21.1686 108.205 21.8406C108.205 22.5126 108.053 23.1086 107.749 23.6286C107.445 24.1486 107.029 24.5526 106.501 24.8406C105.981 25.1206 105.405 25.2606 104.773 25.2606ZM104.773 24.0726C105.125 24.0726 105.453 23.9886 105.757 23.8206C106.069 23.6526 106.321 23.4006 106.513 23.0646C106.705 22.7286 106.801 22.3206 106.801 21.8406C106.801 21.3606 106.709 20.9566 106.525 20.6286C106.341 20.2926 106.097 20.0406 105.793 19.8726C105.489 19.7046 105.161 19.6206 104.809 19.6206C104.457 19.6206 104.129 19.7046 103.825 19.8726C103.529 20.0406 103.293 20.2926 103.117 20.6286C102.941 20.9566 102.853 21.3606 102.853 21.8406C102.853 22.5526 103.033 23.1046 103.393 23.4966C103.761 23.8806 104.221 24.0726 104.773 24.0726ZM118.162 18.4326C118.682 18.4326 119.146 18.5406 119.554 18.7566C119.97 18.9726 120.294 19.2926 120.526 19.7166C120.766 20.1406 120.886 20.6526 120.886 21.2526V25.1526H119.53V21.4566C119.53 20.8646 119.382 20.4126 119.086 20.1006C118.79 19.7806 118.386 19.6206 117.874 19.6206C117.362 19.6206 116.954 19.7806 116.65 20.1006C116.354 20.4126 116.206 20.8646 116.206 21.4566V25.1526H114.85V21.4566C114.85 20.8646 114.702 20.4126 114.406 20.1006C114.11 19.7806 113.706 19.6206 113.194 19.6206C112.682 19.6206 112.274 19.7806 111.97 20.1006C111.674 20.4126 111.526 20.8646 111.526 21.4566V25.1526H110.158V18.5406H111.526V19.2966C111.75 19.0246 112.034 18.8126 112.378 18.6606C112.722 18.5086 113.09 18.4326 113.482 18.4326C114.01 18.4326 114.482 18.5446 114.898 18.7686C115.314 18.9926 115.634 19.3166 115.858 19.7406C116.058 19.3406 116.37 19.0246 116.794 18.7926C117.218 18.5526 117.674 18.4326 118.162 18.4326Z" fill="#707070"/>
<path d="M60.88 40.3446C60.624 39.8753 60.272 39.5179 59.824 39.2726C59.376 39.0273 58.8533 38.9046 58.256 38.9046C57.5947 38.9046 57.008 39.0539 56.496 39.3526C55.984 39.6513 55.584 40.0779 55.296 40.6326C55.008 41.1873 54.864 41.8273 54.864 42.5526C54.864 43.2993 55.008 43.9499 55.296 44.5046C55.5947 45.0593 56.0053 45.4859 56.528 45.7846C57.0507 46.0833 57.6587 46.2326 58.352 46.2326C59.2053 46.2326 59.904 46.0086 60.448 45.5606C60.992 45.1019 61.3493 44.4673 61.52 43.6566H57.68V41.9446H63.728V43.8966C63.5787 44.6753 63.2587 45.3953 62.768 46.0566C62.2773 46.7179 61.6427 47.2513 60.864 47.6566C60.096 48.0513 59.232 48.2486 58.272 48.2486C57.1947 48.2486 56.2187 48.0086 55.344 47.5286C54.48 47.0379 53.7973 46.3606 53.296 45.4966C52.8053 44.6326 52.56 43.6513 52.56 42.5526C52.56 41.4539 52.8053 40.4726 53.296 39.6086C53.7973 38.7339 54.48 38.0566 55.344 37.5766C56.2187 37.0859 57.1893 36.8406 58.256 36.8406C59.5147 36.8406 60.608 37.1499 61.536 37.7686C62.464 38.3766 63.104 39.2353 63.456 40.3446H60.88ZM70.1213 48.2966C69.2679 48.2966 68.4999 48.1099 67.8173 47.7366C67.1346 47.3526 66.5959 46.8139 66.2013 46.1206C65.8173 45.4273 65.6253 44.6273 65.6253 43.7206C65.6253 42.8139 65.8226 42.0139 66.2173 41.3206C66.6226 40.6273 67.1719 40.0939 67.8653 39.7206C68.5586 39.3366 69.3319 39.1446 70.1853 39.1446C71.0386 39.1446 71.8119 39.3366 72.5053 39.7206C73.1986 40.0939 73.7426 40.6273 74.1373 41.3206C74.5426 42.0139 74.7453 42.8139 74.7453 43.7206C74.7453 44.6273 74.5373 45.4273 74.1213 46.1206C73.7159 46.8139 73.1613 47.3526 72.4573 47.7366C71.7639 48.1099 70.9853 48.2966 70.1213 48.2966ZM70.1213 46.3446C70.5266 46.3446 70.9053 46.2486 71.2573 46.0566C71.6199 45.8539 71.9079 45.5553 72.1213 45.1606C72.3346 44.7659 72.4413 44.2859 72.4413 43.7206C72.4413 42.8779 72.2173 42.2326 71.7693 41.7846C71.3319 41.3259 70.7933 41.0966 70.1533 41.0966C69.5133 41.0966 68.9746 41.3259 68.5373 41.7846C68.1106 42.2326 67.8973 42.8779 67.8973 43.7206C67.8973 44.5633 68.1053 45.2139 68.5213 45.6726C68.9479 46.1206 69.4813 46.3446 70.1213 46.3446ZM81.1244 48.2966C80.271 48.2966 79.503 48.1099 78.8204 47.7366C78.1377 47.3526 77.599 46.8139 77.2044 46.1206C76.8204 45.4273 76.6284 44.6273 76.6284 43.7206C76.6284 42.8139 76.8257 42.0139 77.2204 41.3206C77.6257 40.6273 78.175 40.0939 78.8684 39.7206C79.5617 39.3366 80.335 39.1446 81.1884 39.1446C82.0417 39.1446 82.815 39.3366 83.5084 39.7206C84.2017 40.0939 84.7457 40.6273 85.1404 41.3206C85.5457 42.0139 85.7484 42.8139 85.7484 43.7206C85.7484 44.6273 85.5404 45.4273 85.1244 46.1206C84.719 46.8139 84.1644 47.3526 83.4604 47.7366C82.767 48.1099 81.9884 48.2966 81.1244 48.2966ZM81.1244 46.3446C81.5297 46.3446 81.9084 46.2486 82.2604 46.0566C82.623 45.8539 82.911 45.5553 83.1244 45.1606C83.3377 44.7659 83.4444 44.2859 83.4444 43.7206C83.4444 42.8779 83.2204 42.2326 82.7724 41.7846C82.335 41.3259 81.7964 41.0966 81.1564 41.0966C80.5164 41.0966 79.9777 41.3259 79.5404 41.7846C79.1137 42.2326 78.9004 42.8779 78.9004 43.7206C78.9004 44.5633 79.1084 45.2139 79.5244 45.6726C79.951 46.1206 80.4844 46.3446 81.1244 46.3446ZM91.6635 39.1446C92.3248 39.1446 92.9062 39.2779 93.4075 39.5446C93.9088 39.8006 94.3035 40.1366 94.5915 40.5526V39.2886H96.8475V48.2166C96.8475 49.0379 96.6822 49.7686 96.3515 50.4086C96.0208 51.0593 95.5248 51.5713 94.8635 51.9446C94.2022 52.3286 93.4022 52.5206 92.4635 52.5206C91.2048 52.5206 90.1702 52.2273 89.3595 51.6406C88.5595 51.0539 88.1062 50.2539 87.9995 49.2406H90.2235C90.3408 49.6459 90.5915 49.9659 90.9755 50.2006C91.3702 50.4459 91.8448 50.5686 92.3995 50.5686C93.0502 50.5686 93.5782 50.3713 93.9835 49.9766C94.3888 49.5926 94.5915 49.0059 94.5915 48.2166V46.8406C94.3035 47.2566 93.9035 47.6033 93.3915 47.8806C92.8902 48.1579 92.3142 48.2966 91.6635 48.2966C90.9168 48.2966 90.2342 48.1046 89.6155 47.7206C88.9968 47.3366 88.5062 46.7979 88.1435 46.1046C87.7915 45.4006 87.6155 44.5953 87.6155 43.6886C87.6155 42.7926 87.7915 41.9979 88.1435 41.3046C88.5062 40.6113 88.9915 40.0779 89.5995 39.7046C90.2182 39.3313 90.9062 39.1446 91.6635 39.1446ZM94.5915 43.7206C94.5915 43.1766 94.4848 42.7126 94.2715 42.3286C94.0582 41.9339 93.7702 41.6353 93.4075 41.4326C93.0448 41.2193 92.6555 41.1126 92.2395 41.1126C91.8235 41.1126 91.4395 41.2139 91.0875 41.4166C90.7355 41.6193 90.4475 41.9179 90.2235 42.3126C90.0102 42.6966 89.9035 43.1553 89.9035 43.6886C89.9035 44.2219 90.0102 44.6913 90.2235 45.0966C90.4475 45.4913 90.7355 45.7953 91.0875 46.0086C91.4502 46.2219 91.8342 46.3286 92.2395 46.3286C92.6555 46.3286 93.0448 46.2273 93.4075 46.0246C93.7702 45.8113 94.0582 45.5126 94.2715 45.1286C94.4848 44.7339 94.5915 44.2646 94.5915 43.7206ZM102.075 36.3126V48.1526H99.8353V36.3126H102.075ZM113.328 43.5286C113.328 43.8486 113.307 44.1366 113.264 44.3926H106.784C106.838 45.0326 107.062 45.5339 107.456 45.8966C107.851 46.2593 108.336 46.4406 108.912 46.4406C109.744 46.4406 110.336 46.0833 110.688 45.3686H113.104C112.848 46.2219 112.358 46.9259 111.632 47.4806C110.907 48.0246 110.016 48.2966 108.96 48.2966C108.107 48.2966 107.339 48.1099 106.656 47.7366C105.984 47.3526 105.456 46.8139 105.072 46.1206C104.699 45.4273 104.512 44.6273 104.512 43.7206C104.512 42.8033 104.699 41.9979 105.072 41.3046C105.446 40.6113 105.968 40.0779 106.64 39.7046C107.312 39.3313 108.086 39.1446 108.96 39.1446C109.803 39.1446 110.555 39.3259 111.216 39.6886C111.888 40.0513 112.406 40.5686 112.768 41.2406C113.142 41.9019 113.328 42.6646 113.328 43.5286ZM111.008 42.8886C110.998 42.3126 110.79 41.8539 110.384 41.5126C109.979 41.1606 109.483 40.9846 108.896 40.9846C108.342 40.9846 107.872 41.1553 107.488 41.4966C107.115 41.8273 106.886 42.2913 106.8 42.8886H111.008ZM128.52 40.4406C128.52 41.0379 128.376 41.5979 128.088 42.1206C127.811 42.6433 127.368 43.0646 126.76 43.3846C126.163 43.7046 125.405 43.8646 124.488 43.8646H122.616V48.1526H120.376V36.9846H124.488C125.352 36.9846 126.088 37.1339 126.696 37.4326C127.304 37.7313 127.757 38.1419 128.056 38.6646C128.365 39.1873 128.52 39.7793 128.52 40.4406ZM124.392 42.0566C125.011 42.0566 125.469 41.9179 125.768 41.6406C126.067 41.3526 126.216 40.9526 126.216 40.4406C126.216 39.3526 125.608 38.8086 124.392 38.8086H122.616V42.0566H124.392ZM133.15 36.3126V48.1526H130.91V36.3126H133.15ZM135.587 43.6886C135.587 42.7926 135.763 41.9979 136.115 41.3046C136.478 40.6113 136.963 40.0779 137.571 39.7046C138.19 39.3313 138.878 39.1446 139.635 39.1446C140.297 39.1446 140.873 39.2779 141.363 39.5446C141.865 39.8113 142.265 40.1473 142.563 40.5526V39.2886H144.819V48.1526H142.563V46.8566C142.275 47.2726 141.875 47.6193 141.363 47.8966C140.862 48.1633 140.281 48.2966 139.619 48.2966C138.873 48.2966 138.19 48.1046 137.571 47.7206C136.963 47.3366 136.478 46.7979 136.115 46.1046C135.763 45.4006 135.587 44.5953 135.587 43.6886ZM142.563 43.7206C142.563 43.1766 142.457 42.7126 142.243 42.3286C142.03 41.9339 141.742 41.6353 141.379 41.4326C141.017 41.2193 140.627 41.1126 140.211 41.1126C139.795 41.1126 139.411 41.2139 139.059 41.4166C138.707 41.6193 138.419 41.9179 138.195 42.3126C137.982 42.6966 137.875 43.1553 137.875 43.6886C137.875 44.2219 137.982 44.6913 138.195 45.0966C138.419 45.4913 138.707 45.7953 139.059 46.0086C139.422 46.2219 139.806 46.3286 140.211 46.3286C140.627 46.3286 141.017 46.2273 141.379 46.0246C141.742 45.8113 142.03 45.5126 142.243 45.1286C142.457 44.7339 142.563 44.2646 142.563 43.7206ZM156.287 39.2886L150.799 52.3446H148.415L150.335 47.9286L146.783 39.2886H149.295L151.583 45.4806L153.903 39.2886H156.287Z" fill="#152934"/>
</g>
<defs>
<filter id="filter0_d_408_1185" x="0" y="0.48584" width="183.667" height="71.9999" filterUnits="userSpaceOnUse" color-interpolation-filters="sRGB">
<feFlood flood-opacity="0" result="BackgroundImageFix"/>
<feColorMatrix in="SourceAlpha" type="matrix" values="0 0 0 0 0 0 0 0 0 0 0 0 0 0 0 0 0 0 127 0" result="hardAlpha"/>
<feOffset dx="3.33333" dy="3.33333"/>
<feGaussianBlur stdDeviation="1.66667"/>
<feComposite in2="hardAlpha" operator="out"/>
<feColorMatrix type="matrix" values="0 0 0 0 0 0 0 0 0 0.654902 0 0 0 0 0.27451 0 0 0 0.25 0"/>
<feBlend mode="normal" in2="BackgroundImageFix" result="effect1_dropShadow_408_1185"/>
<feBlend mode="normal" in="SourceGraphic" in2="effect1_dropShadow_408_1185" result="shape"/>
</filter>
<clipPath id="clip0_408_1185">
<rect width="22" height="24" fill="white" transform="translate(20 21.1526)"/>
</clipPath>
</defs>
</svg>
