<svg width="185" height="72" viewBox="0 0 185 72" fill="none" xmlns="http://www.w3.org/2000/svg">
<g filter="url(#filter0_d_533_281)">
<rect width="178" height="65" rx="10" fill="#B0E4C6" shape-rendering="crispEdges"/>
<path d="M38.05 40.78C37.07 41.73 36 41.58 34.97 41.13C33.88 40.67 32.88 40.65 31.73 41.13C30.29 41.75 29.53 41.57 28.67 40.78C23.79 35.75 24.51 28.09 30.05 27.81C31.4 27.88 32.34 28.55 33.13 28.61C34.31 28.37 35.44 27.68 36.7 27.77C38.21 27.89 39.35 28.49 40.1 29.57C36.98 31.44 37.72 35.55 40.58 36.7C40.01 38.2 39.27 39.69 38.04 40.79L38.05 40.78ZM33.03 27.75C32.88 25.52 34.69 23.68 36.77 23.5C37.06 26.08 34.43 28 33.03 27.75Z" fill="black"/>
<path d="M61.936 18.56C61.72 18.144 61.42 17.832 61.036 17.624C60.652 17.408 60.208 17.3 59.704 17.3C59.152 17.3 58.66 17.424 58.228 17.672C57.796 17.92 57.456 18.272 57.208 18.728C56.968 19.184 56.848 19.712 56.848 20.312C56.848 20.912 56.968 21.444 57.208 21.908C57.456 22.364 57.796 22.716 58.228 22.964C58.66 23.212 59.152 23.336 59.704 23.336C60.448 23.336 61.052 23.128 61.516 22.712C61.98 22.296 62.264 21.732 62.368 21.02H59.236V19.928H63.832V20.996C63.744 21.644 63.512 22.24 63.136 22.784C62.768 23.328 62.284 23.764 61.684 24.092C61.092 24.412 60.432 24.572 59.704 24.572C58.92 24.572 58.204 24.392 57.556 24.032C56.908 23.664 56.392 23.156 56.008 22.508C55.632 21.86 55.444 21.128 55.444 20.312C55.444 19.496 55.632 18.764 56.008 18.116C56.392 17.468 56.908 16.964 57.556 16.604C58.212 16.236 58.928 16.052 59.704 16.052C60.592 16.052 61.38 16.272 62.068 16.712C62.764 17.144 63.268 17.76 63.58 18.56H61.936ZM71.8413 21.032C71.8413 21.28 71.8253 21.504 71.7933 21.704H66.7413C66.7813 22.232 66.9773 22.656 67.3293 22.976C67.6813 23.296 68.1133 23.456 68.6253 23.456C69.3613 23.456 69.8813 23.148 70.1853 22.532H71.6613C71.4613 23.14 71.0973 23.64 70.5693 24.032C70.0493 24.416 69.4013 24.608 68.6253 24.608C67.9933 24.608 67.4253 24.468 66.9213 24.188C66.4253 23.9 66.0333 23.5 65.7453 22.988C65.4653 22.468 65.3253 21.868 65.3253 21.188C65.3253 20.508 65.4613 19.912 65.7333 19.4C66.0133 18.88 66.4013 18.48 66.8973 18.2C67.4013 17.92 67.9773 17.78 68.6253 17.78C69.2493 17.78 69.8053 17.916 70.2933 18.188C70.7813 18.46 71.1613 18.844 71.4333 19.34C71.7053 19.828 71.8413 20.392 71.8413 21.032ZM70.4133 20.6C70.4053 20.096 70.2253 19.692 69.8733 19.388C69.5213 19.084 69.0853 18.932 68.5653 18.932C68.0933 18.932 67.6893 19.084 67.3533 19.388C67.0173 19.684 66.8173 20.088 66.7533 20.6H70.4133ZM75.3835 19.004V22.664C75.3835 22.912 75.4395 23.092 75.5515 23.204C75.6715 23.308 75.8715 23.36 76.1515 23.36H76.9915V24.5H75.9115C75.2955 24.5 74.8235 24.356 74.4955 24.068C74.1675 23.78 74.0035 23.312 74.0035 22.664V19.004H73.2235V17.888H74.0035V16.244H75.3835V17.888H76.9915V19.004H75.3835ZM83.2655 17.012C83.0175 17.012 82.8095 16.928 82.6415 16.76C82.4735 16.592 82.3895 16.384 82.3895 16.136C82.3895 15.888 82.4735 15.68 82.6415 15.512C82.8095 15.344 83.0175 15.26 83.2655 15.26C83.5055 15.26 83.7095 15.344 83.8775 15.512C84.0455 15.68 84.1295 15.888 84.1295 16.136C84.1295 16.384 84.0455 16.592 83.8775 16.76C83.7095 16.928 83.5055 17.012 83.2655 17.012ZM83.9375 17.888V24.5H82.5695V17.888H83.9375ZM87.9296 19.004V22.664C87.9296 22.912 87.9856 23.092 88.0976 23.204C88.2176 23.308 88.4176 23.36 88.6976 23.36H89.5376V24.5H88.4576C87.8416 24.5 87.3696 24.356 87.0416 24.068C86.7136 23.78 86.5496 23.312 86.5496 22.664V19.004H85.7696V17.888H86.5496V16.244H87.9296V17.888H89.5376V19.004H87.9296ZM97.8876 19.004H96.6636V24.5H95.2836V19.004H94.5036V17.888H95.2836V17.42C95.2836 16.66 95.4836 16.108 95.8836 15.764C96.2916 15.412 96.9276 15.236 97.7916 15.236V16.376C97.3756 16.376 97.0836 16.456 96.9156 16.616C96.7476 16.768 96.6636 17.036 96.6636 17.42V17.888H97.8876V19.004ZM101.068 18.848C101.268 18.512 101.532 18.252 101.86 18.068C102.196 17.876 102.592 17.78 103.048 17.78V19.196H102.7C102.164 19.196 101.756 19.332 101.476 19.604C101.204 19.876 101.068 20.348 101.068 21.02V24.5H99.7V17.888H101.068V18.848ZM107.773 24.608C107.149 24.608 106.585 24.468 106.081 24.188C105.577 23.9 105.181 23.5 104.893 22.988C104.605 22.468 104.461 21.868 104.461 21.188C104.461 20.516 104.609 19.92 104.905 19.4C105.201 18.88 105.605 18.48 106.117 18.2C106.629 17.92 107.201 17.78 107.833 17.78C108.465 17.78 109.037 17.92 109.549 18.2C110.061 18.48 110.465 18.88 110.761 19.4C111.057 19.92 111.205 20.516 111.205 21.188C111.205 21.86 111.053 22.456 110.749 22.976C110.445 23.496 110.029 23.9 109.501 24.188C108.981 24.468 108.405 24.608 107.773 24.608ZM107.773 23.42C108.125 23.42 108.453 23.336 108.757 23.168C109.069 23 109.321 22.748 109.513 22.412C109.705 22.076 109.801 21.668 109.801 21.188C109.801 20.708 109.709 20.304 109.525 19.976C109.341 19.64 109.097 19.388 108.793 19.22C108.489 19.052 108.161 18.968 107.809 18.968C107.457 18.968 107.129 19.052 106.825 19.22C106.529 19.388 106.293 19.64 106.117 19.976C105.941 20.304 105.853 20.708 105.853 21.188C105.853 21.9 106.033 22.452 106.393 22.844C106.761 23.228 107.221 23.42 107.773 23.42ZM121.162 17.78C121.682 17.78 122.146 17.888 122.554 18.104C122.97 18.32 123.294 18.64 123.526 19.064C123.766 19.488 123.886 20 123.886 20.6V24.5H122.53V20.804C122.53 20.212 122.382 19.76 122.086 19.448C121.79 19.128 121.386 18.968 120.874 18.968C120.362 18.968 119.954 19.128 119.65 19.448C119.354 19.76 119.206 20.212 119.206 20.804V24.5H117.85V20.804C117.85 20.212 117.702 19.76 117.406 19.448C117.11 19.128 116.706 18.968 116.194 18.968C115.682 18.968 115.274 19.128 114.97 19.448C114.674 19.76 114.526 20.212 114.526 20.804V24.5H113.158V17.888H114.526V18.644C114.75 18.372 115.034 18.16 115.378 18.008C115.722 17.856 116.09 17.78 116.482 17.78C117.01 17.78 117.482 17.892 117.898 18.116C118.314 18.34 118.634 18.664 118.858 19.088C119.058 18.688 119.37 18.372 119.794 18.14C120.218 17.9 120.674 17.78 121.162 17.78Z" fill="#707070"/>
<path d="M62.952 45.372H58.504L57.768 47.5H55.416L59.432 36.316H62.04L66.056 47.5H63.688L62.952 45.372ZM62.344 43.58L60.728 38.908L59.112 43.58H62.344ZM70.5971 39.916C70.8851 39.5107 71.2798 39.1747 71.7811 38.908C72.2931 38.6307 72.8745 38.492 73.5251 38.492C74.2825 38.492 74.9651 38.6787 75.5731 39.052C76.1918 39.4253 76.6771 39.9587 77.0291 40.652C77.3918 41.3347 77.5731 42.1293 77.5731 43.036C77.5731 43.9427 77.3918 44.748 77.0291 45.452C76.6771 46.1453 76.1918 46.684 75.5731 47.068C74.9651 47.452 74.2825 47.644 73.5251 47.644C72.8745 47.644 72.2985 47.5107 71.7971 47.244C71.3065 46.9773 70.9065 46.6413 70.5971 46.236V51.724H68.3571V38.636H70.5971V39.916ZM75.2851 43.036C75.2851 42.5027 75.1731 42.044 74.9491 41.66C74.7358 41.2653 74.4478 40.9667 74.0851 40.764C73.7331 40.5613 73.3491 40.46 72.9331 40.46C72.5278 40.46 72.1438 40.5667 71.7811 40.78C71.4291 40.9827 71.1411 41.2813 70.9171 41.676C70.7038 42.0707 70.5971 42.5347 70.5971 43.068C70.5971 43.6013 70.7038 44.0653 70.9171 44.46C71.1411 44.8547 71.4291 45.1587 71.7811 45.372C72.1438 45.5747 72.5278 45.676 72.9331 45.676C73.3491 45.676 73.7331 45.5693 74.0851 45.356C74.4478 45.1427 74.7358 44.8387 74.9491 44.444C75.1731 44.0493 75.2851 43.58 75.2851 43.036ZM82.2409 39.916C82.5289 39.5107 82.9235 39.1747 83.4249 38.908C83.9369 38.6307 84.5182 38.492 85.1689 38.492C85.9262 38.492 86.6089 38.6787 87.2169 39.052C87.8355 39.4253 88.3209 39.9587 88.6729 40.652C89.0355 41.3347 89.2169 42.1293 89.2169 43.036C89.2169 43.9427 89.0355 44.748 88.6729 45.452C88.3209 46.1453 87.8355 46.684 87.2169 47.068C86.6089 47.452 85.9262 47.644 85.1689 47.644C84.5182 47.644 83.9422 47.5107 83.4409 47.244C82.9502 46.9773 82.5502 46.6413 82.2409 46.236V51.724H80.0009V38.636H82.2409V39.916ZM86.9289 43.036C86.9289 42.5027 86.8169 42.044 86.5929 41.66C86.3795 41.2653 86.0915 40.9667 85.7289 40.764C85.3769 40.5613 84.9929 40.46 84.5769 40.46C84.1715 40.46 83.7875 40.5667 83.4249 40.78C83.0729 40.9827 82.7849 41.2813 82.5609 41.676C82.3475 42.0707 82.2409 42.5347 82.2409 43.068C82.2409 43.6013 82.3475 44.0653 82.5609 44.46C82.7849 44.8547 83.0729 45.1587 83.4249 45.372C83.7875 45.5747 84.1715 45.676 84.5769 45.676C84.9929 45.676 85.3769 45.5693 85.7289 45.356C86.0915 45.1427 86.3795 44.8387 86.5929 44.444C86.8169 44.0493 86.9289 43.58 86.9289 43.036ZM93.8846 35.66V47.5H91.6446V35.66H93.8846ZM105.138 42.876C105.138 43.196 105.116 43.484 105.074 43.74H98.5938C98.6471 44.38 98.8711 44.8813 99.2658 45.244C99.6604 45.6067 100.146 45.788 100.722 45.788C101.554 45.788 102.146 45.4307 102.498 44.716H104.914C104.658 45.5693 104.167 46.2733 103.442 46.828C102.716 47.372 101.826 47.644 100.77 47.644C99.9164 47.644 99.1484 47.4573 98.4658 47.084C97.7938 46.7 97.2658 46.1613 96.8818 45.468C96.5084 44.7747 96.3218 43.9747 96.3218 43.068C96.3218 42.1507 96.5084 41.3453 96.8818 40.652C97.2551 39.9587 97.7778 39.4253 98.4498 39.052C99.1218 38.6787 99.8951 38.492 100.77 38.492C101.612 38.492 102.364 38.6733 103.026 39.036C103.698 39.3987 104.215 39.916 104.578 40.588C104.951 41.2493 105.138 42.012 105.138 42.876ZM102.818 42.236C102.807 41.66 102.599 41.2013 102.194 40.86C101.788 40.508 101.292 40.332 100.706 40.332C100.151 40.332 99.6818 40.5027 99.2978 40.844C98.9244 41.1747 98.6951 41.6387 98.6098 42.236H102.818ZM116.041 47.612C115.263 47.612 114.559 47.4787 113.929 47.212C113.311 46.9453 112.82 46.5613 112.457 46.06C112.095 45.5587 111.908 44.9667 111.897 44.284H114.297C114.329 44.7427 114.489 45.1053 114.777 45.372C115.076 45.6387 115.481 45.772 115.993 45.772C116.516 45.772 116.927 45.6493 117.225 45.404C117.524 45.148 117.673 44.8173 117.673 44.412C117.673 44.0813 117.572 43.8093 117.369 43.596C117.167 43.3827 116.911 43.2173 116.601 43.1C116.303 42.972 115.887 42.8333 115.353 42.684C114.628 42.4707 114.036 42.2627 113.577 42.06C113.129 41.8467 112.74 41.532 112.409 41.116C112.089 40.6893 111.929 40.124 111.929 39.42C111.929 38.7587 112.095 38.1827 112.425 37.692C112.756 37.2013 113.22 36.828 113.817 36.572C114.415 36.3053 115.097 36.172 115.865 36.172C117.017 36.172 117.951 36.4547 118.665 37.02C119.391 37.5747 119.791 38.3533 119.865 39.356H117.401C117.38 38.972 117.215 38.6573 116.905 38.412C116.607 38.156 116.207 38.028 115.705 38.028C115.268 38.028 114.916 38.14 114.649 38.364C114.393 38.588 114.265 38.9133 114.265 39.34C114.265 39.6387 114.361 39.8893 114.553 40.092C114.756 40.284 115.001 40.444 115.289 40.572C115.588 40.6893 116.004 40.828 116.537 40.988C117.263 41.2013 117.855 41.4147 118.313 41.628C118.772 41.8413 119.167 42.1613 119.497 42.588C119.828 43.0147 119.993 43.5747 119.993 44.268C119.993 44.8653 119.839 45.42 119.529 45.932C119.22 46.444 118.767 46.8547 118.169 47.164C117.572 47.4627 116.863 47.612 116.041 47.612ZM125.343 40.476V44.764C125.343 45.0627 125.413 45.2813 125.551 45.42C125.701 45.548 125.946 45.612 126.287 45.612H127.327V47.5H125.919C124.031 47.5 123.087 46.5827 123.087 44.748V40.476H122.031V38.636H123.087V36.444H125.343V38.636H127.327V40.476H125.343ZM133.674 47.644C132.821 47.644 132.053 47.4573 131.37 47.084C130.688 46.7 130.149 46.1613 129.754 45.468C129.37 44.7747 129.178 43.9747 129.178 43.068C129.178 42.1613 129.376 41.3613 129.77 40.668C130.176 39.9747 130.725 39.4413 131.418 39.068C132.112 38.684 132.885 38.492 133.738 38.492C134.592 38.492 135.365 38.684 136.058 39.068C136.752 39.4413 137.296 39.9747 137.69 40.668C138.096 41.3613 138.298 42.1613 138.298 43.068C138.298 43.9747 138.09 44.7747 137.674 45.468C137.269 46.1613 136.714 46.7 136.01 47.084C135.317 47.4573 134.538 47.644 133.674 47.644ZM133.674 45.692C134.08 45.692 134.458 45.596 134.81 45.404C135.173 45.2013 135.461 44.9027 135.674 44.508C135.888 44.1133 135.994 43.6333 135.994 43.068C135.994 42.2253 135.77 41.58 135.322 41.132C134.885 40.6733 134.346 40.444 133.706 40.444C133.066 40.444 132.528 40.6733 132.09 41.132C131.664 41.58 131.45 42.2253 131.45 43.068C131.45 43.9107 131.658 44.5613 132.074 45.02C132.501 45.468 133.034 45.692 133.674 45.692ZM142.981 40.012C143.269 39.5427 143.643 39.1747 144.101 38.908C144.571 38.6413 145.104 38.508 145.701 38.508V40.86H145.109C144.405 40.86 143.872 41.0253 143.509 41.356C143.157 41.6867 142.981 42.2627 142.981 43.084V47.5H140.741V38.636H142.981V40.012ZM156.25 42.876C156.25 43.196 156.229 43.484 156.186 43.74H149.706C149.76 44.38 149.984 44.8813 150.378 45.244C150.773 45.6067 151.258 45.788 151.834 45.788C152.666 45.788 153.258 45.4307 153.61 44.716H156.026C155.77 45.5693 155.28 46.2733 154.554 46.828C153.829 47.372 152.938 47.644 151.882 47.644C151.029 47.644 150.261 47.4573 149.578 47.084C148.906 46.7 148.378 46.1613 147.994 45.468C147.621 44.7747 147.434 43.9747 147.434 43.068C147.434 42.1507 147.621 41.3453 147.994 40.652C148.368 39.9587 148.89 39.4253 149.562 39.052C150.234 38.6787 151.008 38.492 151.882 38.492C152.725 38.492 153.477 38.6733 154.138 39.036C154.81 39.3987 155.328 39.916 155.69 40.588C156.064 41.2493 156.25 42.012 156.25 42.876ZM153.93 42.236C153.92 41.66 153.712 41.2013 153.306 40.86C152.901 40.508 152.405 40.332 151.818 40.332C151.264 40.332 150.794 40.5027 150.41 40.844C150.037 41.1747 149.808 41.6387 149.722 42.236H153.93Z" fill="#152934"/>
</g>
<defs>
<filter id="filter0_d_533_281" x="0" y="0" width="184.667" height="71.6667" filterUnits="userSpaceOnUse" color-interpolation-filters="sRGB">
<feFlood flood-opacity="0" result="BackgroundImageFix"/>
<feColorMatrix in="SourceAlpha" type="matrix" values="0 0 0 0 0 0 0 0 0 0 0 0 0 0 0 0 0 0 127 0" result="hardAlpha"/>
<feOffset dx="3.33333" dy="3.33333"/>
<feGaussianBlur stdDeviation="1.66667"/>
<feComposite in2="hardAlpha" operator="out"/>
<feColorMatrix type="matrix" values="0 0 0 0 0 0 0 0 0 0.654902 0 0 0 0 0.27451 0 0 0 0.25 0"/>
<feBlend mode="normal" in2="BackgroundImageFix" result="effect1_dropShadow_533_281"/>
<feBlend mode="normal" in="SourceGraphic" in2="effect1_dropShadow_533_281" result="shape"/>
</filter>
</defs>
</svg>
