<svg width="254" height="171" viewBox="0 0 254 171" fill="none" xmlns="http://www.w3.org/2000/svg">
<path d="M76.4635 48.0397H33.5747V18.5821H76.4635V48.0397ZM33.9134 47.6997H76.1248V18.9221H33.9134V47.6997Z" fill="#EBEBEB"/>
<path d="M36.931 20.469C36.931 20.6384 36.8809 20.8041 36.7872 20.945C36.6934 21.0859 36.5601 21.1957 36.4042 21.2606C36.2482 21.3254 36.0766 21.3424 35.9111 21.3093C35.7455 21.2763 35.5934 21.1947 35.4741 21.0748C35.3547 20.955 35.2735 20.8023 35.2405 20.6361C35.2076 20.4699 35.2245 20.2977 35.2891 20.1411C35.3537 19.9845 35.4631 19.8507 35.6034 19.7566C35.7438 19.6624 35.9088 19.6122 36.0776 19.6122C36.3039 19.6122 36.521 19.7025 36.681 19.8631C36.8411 20.0238 36.931 20.2417 36.931 20.469Z" fill="#A6A6A6"/>
<path d="M40.4159 20.469C40.4159 20.6384 40.3658 20.8041 40.272 20.945C40.1783 21.0859 40.045 21.1957 39.889 21.2606C39.7331 21.3254 39.5615 21.3424 39.3959 21.3093C39.2304 21.2763 39.0783 21.1947 38.959 21.0748C38.8396 20.955 38.7583 20.8023 38.7254 20.6361C38.6925 20.4699 38.7094 20.2977 38.7739 20.1411C38.8385 19.9845 38.9479 19.8507 39.0883 19.7566C39.2286 19.6624 39.3936 19.6122 39.5624 19.6122C39.7888 19.6122 40.0058 19.7025 40.1659 19.8631C40.3259 20.0238 40.4159 20.2417 40.4159 20.469Z" fill="#EBEBEB"/>
<path d="M43.9012 20.469C43.9012 20.6384 43.8512 20.8041 43.7574 20.945C43.6636 21.0859 43.5303 21.1957 43.3744 21.2606C43.2184 21.3254 43.0468 21.3424 42.8813 21.3093C42.7157 21.2763 42.5637 21.1947 42.4443 21.0748C42.3249 20.955 42.2437 20.8023 42.2107 20.6361C42.1778 20.4699 42.1947 20.2977 42.2593 20.1411C42.3239 19.9845 42.4333 19.8507 42.5736 19.7566C42.714 19.6624 42.879 19.6122 43.0478 19.6122C43.2741 19.6122 43.4912 19.7025 43.6512 19.8631C43.8113 20.0238 43.9012 20.2417 43.9012 20.469Z" fill="#00A746"/>
<path d="M76.2942 21.9889H33.7441V22.3289H76.2942V21.9889Z" fill="#EBEBEB"/>
<path d="M231.096 100.104L226.652 100.199L224.397 100.236C223.642 100.253 222.883 100.236 222.128 100.257H221.979V100.104L221.958 96.289V96.119H222.128L226.612 96.1394C228.109 96.1394 229.602 96.1768 231.096 96.1938H231.191V96.289C231.191 96.935 231.163 97.5776 231.147 98.2134L231.096 100.104ZM231.096 100.104L231.048 98.1828C231.031 97.5504 231.011 96.9248 231.004 96.2992L231.096 96.3944C229.602 96.4114 228.109 96.4488 226.612 96.4488L222.128 96.4692L222.297 96.2992V100.104L222.145 99.9542C222.883 99.9542 223.621 99.9542 224.363 99.9712L226.568 100.029L231.096 100.104Z" fill="#EBEBEB"/>
<path d="M226.093 104.901L221.65 104.996L219.391 105.034C218.639 105.034 217.881 105.034 217.126 105.054H216.977V104.901V101.097V100.927H217.146L221.63 100.95C223.123 100.95 224.62 100.988 226.114 101.005H226.209V101.097C226.209 101.743 226.182 102.385 226.165 103.021L226.093 104.901ZM226.093 104.901L226.046 102.98C226.029 102.348 226.009 101.722 226.002 101.097L226.093 101.192C224.6 101.209 223.103 101.246 221.61 101.246L217.126 101.267L217.295 101.097V104.901L217.143 104.752C217.881 104.752 218.619 104.752 219.361 104.769L221.586 104.809L226.093 104.901Z" fill="#EBEBEB"/>
<path d="M236.098 104.901L231.654 104.996L229.399 105.034C228.644 105.034 227.885 105.034 227.13 105.054H226.981V104.901L226.96 101.097V100.927H227.13L231.614 100.95C233.111 100.95 234.604 100.988 236.098 101.005H236.193V101.097C236.193 101.743 236.162 102.385 236.148 103.021L236.098 104.901ZM236.098 104.901L236.05 102.98C236.05 102.348 236.013 101.722 236.006 101.097L236.098 101.192C234.604 101.209 233.111 101.246 231.614 101.246L227.13 101.267L227.299 101.097V104.901L227.147 104.752C227.888 104.752 228.623 104.752 229.365 104.769L231.593 104.809L236.098 104.901Z" fill="#EBEBEB"/>
<path d="M109.995 54.8328L105.552 54.928L103.296 54.9654C102.541 54.9654 101.782 54.9654 101.027 54.9654H100.878V54.8124L100.858 51.0078V50.8378H101.027L105.511 50.8582C107.008 50.8582 108.502 50.8956 109.995 50.9126H110.09V51.0044C110.09 51.6504 110.059 52.2896 110.043 52.9254L109.995 54.8328ZM109.995 54.8328L109.948 52.9084C109.948 52.276 109.91 51.6504 109.904 51.0282L109.995 51.12C108.502 51.12 107.008 51.1744 105.511 51.1744L101.027 51.1982L101.197 51.0282L101.18 54.8328L101.027 54.6798C101.766 54.6798 102.504 54.6798 103.246 54.7002L105.474 54.7376L109.995 54.8328Z" fill="#EBEBEB"/>
<path d="M104.986 59.6303L100.543 59.7255L98.2841 59.7629C97.5322 59.7629 96.7736 59.7629 96.0184 59.7799H95.8694V59.6269L95.8423 55.8291V55.6591H96.0116L100.496 55.6795C101.989 55.6795 103.486 55.7169 104.98 55.7339H105.074V55.8291C105.074 56.4751 105.047 57.1143 105.03 57.7501L104.986 59.6303ZM104.986 59.6303L104.939 57.7059C104.922 57.0735 104.902 56.4479 104.895 55.8257L104.986 55.9175C103.493 55.9345 101.996 55.9719 100.502 55.9719L96.0184 55.9957L96.1877 55.8257L96.181 59.6303L96.0285 59.4773C96.7668 59.4773 97.5051 59.4773 98.2468 59.4977L100.472 59.5351L104.986 59.6303Z" fill="#EBEBEB"/>
<path d="M114.997 59.6303L110.554 59.7255L108.298 59.7629C107.543 59.7629 106.788 59.7629 106.029 59.7799H105.88V59.6269L105.86 55.8291V55.6591H106.029L110.513 55.6795C112.01 55.6795 113.504 55.7169 114.997 55.7339H115.092V55.8291C115.092 56.4751 115.061 57.1143 115.048 57.7501L114.997 59.6303ZM114.997 59.6303L114.95 57.7059C114.95 57.0735 114.912 56.4479 114.906 55.8257L114.997 55.9175C113.504 55.9345 112.01 55.9719 110.513 55.9719L106.029 55.9957L106.199 55.8257L106.182 59.6303L106.029 59.4773C106.771 59.4773 107.506 59.4773 108.247 59.4977L110.476 59.5351L114.997 59.6303Z" fill="#EBEBEB"/>
<path d="M27.9055 112.572L23.4622 112.664L21.2033 112.704C20.4514 112.704 19.6928 112.704 18.9376 112.721H18.7886V112.572V108.767V108.594H18.9579L23.4419 108.614C24.9354 108.614 26.4323 108.652 27.9258 108.669H28.0206V108.76C28.0206 109.403 27.9935 110.046 27.9766 110.681L27.9055 112.572ZM27.9055 112.572L27.8581 110.647C27.8411 110.015 27.8208 109.389 27.814 108.767L27.9055 108.859C26.412 108.859 24.9151 108.913 23.4215 108.913L18.9376 108.937L19.1069 108.767L19.0866 112.572L18.9376 112.419C19.6759 112.419 20.4142 112.419 21.1525 112.436L23.3809 112.477L27.9055 112.572Z" fill="#EBEBEB"/>
<path d="M185.542 54.8294L181.098 54.9246L178.843 54.962C178.087 54.979 177.329 54.962 176.574 54.979H176.425V54.826L176.404 51.0214V50.8514H176.574L181.058 50.8718C182.554 50.8718 184.048 50.9126 185.542 50.9296H185.636V51.0214C185.636 51.6674 185.609 52.31 185.592 52.9424L185.542 54.8294ZM185.542 54.8294L185.494 52.9084C185.477 52.2726 185.457 51.647 185.45 51.0248L185.542 51.1166C184.048 51.1336 182.554 51.171 181.058 51.1744L176.574 51.1948L176.743 51.0248V54.8294L176.591 54.6764C177.329 54.6764 178.067 54.6764 178.809 54.6968L181.037 54.7342L185.542 54.8294Z" fill="#EBEBEB"/>
<path d="M230.577 17.8783L226.134 17.9735L223.875 18.0109C223.123 18.0109 222.365 18.0109 221.609 18.0313H221.46V17.8783V14.0737V13.9037H221.63L226.114 13.9241C227.607 13.9241 229.104 13.9649 230.598 13.9819H230.693V14.0737C230.693 14.7197 230.665 15.3623 230.648 15.9947L230.577 17.8783ZM230.577 17.8783L230.53 15.9573C230.513 15.3215 230.493 14.6959 230.486 14.0737L230.577 14.1655C229.084 14.1655 227.587 14.2199 226.093 14.2233L221.609 14.2437L221.779 14.0737L221.762 17.8783L221.609 17.7253C222.348 17.7253 223.086 17.7253 223.828 17.7457L226.053 17.7831L230.577 17.8783Z" fill="#EBEBEB"/>
<path d="M235.58 22.6756L231.136 22.7708L228.881 22.8082C228.126 22.8252 227.367 22.8082 226.612 22.8252H226.463V22.6722L226.442 18.8676V18.6976H226.612L231.096 18.718C232.593 18.718 234.086 18.7588 235.58 18.7758H235.674V18.8676C235.674 19.5136 235.644 20.1562 235.627 20.7886L235.58 22.6756ZM235.58 22.6756L235.532 20.7546C235.532 20.1188 235.495 19.4932 235.488 18.871L235.58 18.9628C234.086 18.9628 232.593 19.0172 231.096 19.0206L226.612 19.041L226.781 18.871V22.6756L226.629 22.5226C227.367 22.5226 228.105 22.5226 228.847 22.543L231.075 22.5804L235.58 22.6756Z" fill="#EBEBEB"/>
<path d="M26.8693 17.8818L22.4226 17.977L20.1671 18.0144C19.4153 18.0144 18.6567 18.0144 17.9014 18.0348H17.749V17.8818V14.0772V13.9072H17.9217L22.4057 13.931C23.8992 13.931 25.3927 13.9684 26.8896 13.9854H26.9811V14.0772C26.9811 14.7232 26.9506 15.3658 26.937 16.0016L26.8693 17.8818ZM26.8693 17.8818L26.8185 15.9608C26.8185 15.325 26.7813 14.6994 26.7745 14.0772L26.8693 14.169C25.3724 14.1894 23.8789 14.2234 22.3854 14.2268L17.9014 14.2472L18.0708 14.0772L18.0504 17.8818L17.9014 17.7492C18.6397 17.7492 19.3746 17.7492 20.1163 17.7492L22.3447 17.7866L26.8693 17.8818Z" fill="#EBEBEB"/>
<path d="M52.4387 97.4178L28.8404 103.616L20.9189 73.203L38.4382 68.6028L44.5139 67.0082L46.0243 72.8018L52.4387 97.4178Z" fill="#EBEBEB"/>
<path d="M24.7598 78.4751L43.9834 73.43L43.7804 72.6504L24.5568 77.6955L24.7598 78.4751Z" fill="#DBDBDB"/>
<path d="M25.2725 80.4446L44.4961 75.3995L44.2931 74.6199L25.0695 79.665L25.2725 80.4446Z" fill="#DBDBDB"/>
<path d="M25.7852 82.421L45.0088 77.3759L44.8058 76.5963L25.5822 81.6414L25.7852 82.421Z" fill="#DBDBDB"/>
<path d="M26.2979 84.3898L45.5215 79.3447L45.3185 78.5651L26.0949 83.6101L26.2979 84.3898Z" fill="#DBDBDB"/>
<path d="M26.8101 86.3593L46.0337 81.3142L45.8307 80.5346L26.6071 85.5797L26.8101 86.3593Z" fill="#DBDBDB"/>
<path d="M27.4545 87.9812L46.728 82.9942L46.5274 82.2126L27.2539 87.1996L27.4545 87.9812Z" fill="#DBDBDB"/>
<path d="M27.8384 90.3044L47.062 85.2594L46.859 84.4798L27.6354 89.5248L27.8384 90.3044Z" fill="#DBDBDB"/>
<path d="M28.4887 91.911L47.7622 86.9241L47.5615 86.1424L28.2881 91.1294L28.4887 91.911Z" fill="#DBDBDB"/>
<path d="M29.0083 93.8733L48.2817 88.8864L48.0811 88.1048L28.8076 93.0917L29.0083 93.8733Z" fill="#DBDBDB"/>
<path d="M29.379 96.2191L48.6025 91.174L48.3995 90.3944L29.176 95.4395L29.379 96.2191Z" fill="#DBDBDB"/>
<path d="M30.0458 97.8055L49.3193 92.8186L49.1187 92.037L29.8452 97.0239L30.0458 97.8055Z" fill="#DBDBDB"/>
<path d="M30.5629 99.7686L49.8364 94.7816L49.6358 94L30.3623 98.987L30.5629 99.7686Z" fill="#DBDBDB"/>
<path d="M58.7041 106.193L34.3505 107.56L32.603 76.1747L50.6844 75.1615L57.2884 80.7885L58.7041 106.193Z" fill="#EBEBEB"/>
<path d="M50.6846 75.1615L57.2886 80.7885L51.0165 81.1421L50.6846 75.1615Z" fill="#DBDBDB"/>
<path d="M35.3223 82.1115L48.8613 81.3516L48.8165 80.547L35.2775 81.307L35.3223 82.1115Z" fill="#DBDBDB"/>
<path d="M35.4331 84.1475L48.9722 83.3876L48.9274 82.583L35.3883 83.343L35.4331 84.1475Z" fill="#DBDBDB"/>
<path d="M35.5469 86.1799L49.0859 85.42L49.0411 84.6154L35.5021 85.3754L35.5469 86.1799Z" fill="#DBDBDB"/>
<path d="M35.6599 88.2153L55.4985 87.1018L55.4537 86.2972L35.6151 87.4107L35.6599 88.2153Z" fill="#DBDBDB"/>
<path d="M35.7742 90.2481L55.6128 89.1345L55.568 88.33L35.7294 89.4435L35.7742 90.2481Z" fill="#DBDBDB"/>
<path d="M35.888 92.2838L55.7266 91.1703L55.6818 90.3658L35.8432 91.4793L35.888 92.2838Z" fill="#DBDBDB"/>
<path d="M35.9988 94.3164L55.8374 93.2028L55.7926 92.3983L35.954 93.5118L35.9988 94.3164Z" fill="#DBDBDB"/>
<path d="M36.1126 96.3522L55.9512 95.2387L55.9064 94.4342L36.0678 95.5477L36.1126 96.3522Z" fill="#DBDBDB"/>
<path d="M36.2268 98.3849L56.0654 97.2714L56.0206 96.4668L36.182 97.5804L36.2268 98.3849Z" fill="#DBDBDB"/>
<path d="M36.3406 100.417L56.1792 99.3039L56.1344 98.4994L36.2958 99.6129L36.3406 100.417Z" fill="#DBDBDB"/>
<path d="M36.451 102.453L56.2896 101.34L56.2447 100.535L36.4062 101.649L36.451 102.453Z" fill="#DBDBDB"/>
<path d="M36.5686 104.489L56.4072 103.376L56.3624 102.571L36.5238 103.685L36.5686 104.489Z" fill="#DBDBDB"/>
<path d="M196.233 42.4365L219.595 59.6983L231.079 44.0005L207.718 26.7386L196.233 42.4365Z" fill="#EBEBEB"/>
<path d="M197.917 42.1746L219.341 58.005L229.392 44.2588L207.968 28.4318L197.917 42.1746Z" fill="white"/>
<path d="M206.78 34.1506C206.441 34.6132 206.246 35.1664 206.22 35.74C206.194 36.3137 206.339 36.8822 206.635 37.3736C206.931 37.8649 207.365 38.2572 207.883 38.5006C208.401 38.744 208.98 38.8278 209.545 38.7413C210.111 38.6547 210.638 38.4018 211.06 38.0144C211.483 37.6271 211.781 37.1227 211.918 36.5651C212.055 36.0075 212.024 35.4217 211.829 34.8818C211.634 34.3419 211.284 33.8721 210.823 33.5318C210.205 33.0764 209.432 32.8858 208.674 33.0018C207.916 33.1178 207.235 33.5309 206.78 34.1506Z" fill="#DBDBDB"/>
<path d="M204.554 47.1114L219.31 58.0186L219.293 42.5248L204.554 47.1114Z" fill="#DBDBDB"/>
<path d="M198.767 42.8444L210.948 51.8442L209.651 40.8044L198.767 42.8444Z" fill="#EBEBEB"/>
<path d="M187.763 35.0107L216.767 35.4017L217.007 15.9265L188 15.5355L187.763 35.0107Z" fill="#EBEBEB"/>
<path d="M188.982 33.814L215.581 34.1744L215.788 17.1234L189.189 16.7664L188.982 33.814Z" fill="white"/>
<path d="M191.536 22.1146C191.529 22.6895 191.692 23.2536 192.004 23.7357C192.316 24.2178 192.763 24.5962 193.289 24.823C193.816 25.0498 194.397 25.1149 194.96 25.0099C195.523 24.905 196.043 24.6349 196.453 24.2336C196.863 23.8323 197.145 23.318 197.264 22.7556C197.383 22.1932 197.333 21.608 197.121 21.074C196.909 20.5401 196.543 20.0813 196.071 19.7557C195.599 19.4302 195.042 19.2524 194.469 19.245C194.089 19.2401 193.711 19.3104 193.358 19.4519C193.005 19.5934 192.683 19.8034 192.411 20.0699C192.138 20.3364 191.921 20.6541 191.771 21.0049C191.621 21.3558 191.541 21.7328 191.536 22.1146Z" fill="#DBDBDB"/>
<path d="M197.239 33.9535L215.561 34.2016L206.57 21.6115L197.239 33.9535Z" fill="#DBDBDB"/>
<path d="M190.059 33.8616L205.184 34.0656L197.73 25.8478L190.059 33.8616Z" fill="#EBEBEB"/>
<path d="M231.776 92.488C227.445 98.3802 222.927 105.218 221.826 112.609C221.826 112.721 221.992 112.759 222.016 112.647C222.516 110.633 223.157 108.657 223.933 106.734C226.781 105.945 229.578 105.299 231.072 102.46C232.599 99.543 232.406 95.7384 232.115 92.5594C232.095 92.3826 231.864 92.3758 231.776 92.488Z" fill="#00A746"/>
<path d="M223.977 106.669C225.921 102.287 228.42 97.8836 231.597 94.2762C231.617 94.2524 231.651 94.2762 231.631 94.3102C229.551 96.8806 227.973 99.6754 226.429 102.521C227.865 101.059 229.436 99.7502 230.794 98.1998C230.821 98.1692 230.865 98.1998 230.838 98.244C229.483 99.8692 228.017 101.644 226.259 102.837C225.785 103.711 225.311 104.588 224.83 105.462C224.945 105.398 225.067 105.34 225.189 105.279C225.213 105.279 225.23 105.299 225.209 105.309C225.074 105.377 224.942 105.449 224.803 105.51C224.576 105.925 224.349 106.339 224.126 106.751C224.061 106.829 223.936 106.764 223.977 106.669Z" fill="#263238"/>
<path d="M225.423 105.129C226.588 104.477 227.701 103.732 228.748 102.902C228.779 102.878 228.82 102.902 228.789 102.943C227.772 103.824 226.659 104.586 225.47 105.214C225.459 105.22 225.446 105.222 225.433 105.218C225.421 105.215 225.41 105.207 225.404 105.195C225.398 105.184 225.396 105.171 225.4 105.158C225.403 105.146 225.412 105.135 225.423 105.129Z" fill="#263238"/>
<path d="M221.325 111.504C221.329 111.523 221.339 111.539 221.354 111.551C221.368 111.563 221.386 111.569 221.405 111.569C221.424 111.569 221.442 111.563 221.456 111.551C221.471 111.539 221.481 111.523 221.484 111.504C221.505 109.073 221.484 106.629 221.522 104.184C222.141 102.926 223.476 102.229 224.4 101.223C225.068 100.486 225.649 99.6752 226.131 98.8051C227.246 96.7276 227.928 94.4441 228.136 92.0935C228.39 89.4925 227.408 80.9041 226.314 81.2135C225.748 81.3665 223.913 85.6335 223.428 87.0275C222.639 89.35 222.062 91.7399 221.705 94.1675C220.811 99.8659 220.892 105.745 221.325 111.504Z" fill="#00A746"/>
<path d="M221.308 101.012C221.44 97.9314 222.131 94.8238 222.778 91.8318C223.476 88.6154 224.289 85.586 225.938 82.7164C225.945 82.7072 225.955 82.7008 225.966 82.6986C225.978 82.6963 225.99 82.6983 226 82.7041C226.01 82.71 226.017 82.7193 226.021 82.7303C226.024 82.7413 226.024 82.7533 226.019 82.764C224.92 84.9956 224.069 87.3422 223.483 89.7612C223.591 89.5878 223.726 89.4212 223.842 89.258C223.886 89.1934 223.994 89.258 223.947 89.3226C223.8 89.5833 223.628 89.8282 223.432 90.0536C223.432 90.0536 223.432 90.0536 223.412 90.0536C222.843 92.352 222.436 94.7014 222.087 97.0474C222.114 97.0202 222.138 96.9862 222.165 96.959C222.192 96.9318 222.213 96.959 222.202 96.9862C222.158 97.0644 222.108 97.1392 222.064 97.2174C221.888 98.4074 221.725 99.5974 221.559 100.774C223.672 98.9616 225.474 96.8264 226.493 94.1948C226.493 94.1948 226.517 94.1948 226.51 94.1948C225.515 96.9148 223.943 99.3492 221.525 100.995L221.393 101.947C221.393 102.011 221.278 101.994 221.281 101.947C221.281 101.665 221.281 101.382 221.305 101.104C221.299 101.097 221.295 101.09 221.292 101.082C221.289 101.074 221.287 101.066 221.288 101.057C221.288 101.048 221.29 101.04 221.294 101.032C221.297 101.025 221.302 101.018 221.308 101.012Z" fill="#263238"/>
<path d="M222.301 96.5509C223.916 94.1335 225.423 91.7909 226.605 89.1117C226.605 89.0811 226.669 89.1117 226.656 89.1321C225.66 91.7875 224.285 94.4803 222.382 96.6121C222.345 96.6563 222.27 96.5985 222.301 96.5509Z" fill="#263238"/>
<path d="M224.448 88.5132C225.125 87.3266 225.802 86.1706 226.449 84.9602C226.466 84.9262 226.514 84.9602 226.5 84.9874C225.98 86.2526 225.321 87.4556 224.536 88.5744C224.505 88.6356 224.407 88.5812 224.448 88.5132Z" fill="#263238"/>
<path d="M219.686 104.469C219.651 106.082 219.461 107.688 219.117 109.263C219.144 109.437 219.168 109.603 219.195 109.787C219.688 108.048 219.974 106.256 220.048 104.449C220.063 104.424 220.07 104.395 220.07 104.366C220.07 104.337 220.063 104.308 220.048 104.282C220.117 101.856 219.938 99.4297 219.513 97.0404C218.778 92.549 217.129 88.2719 214.037 84.9229C214.012 84.9014 213.981 84.886 213.949 84.8779C213.917 84.8697 213.883 84.8691 213.85 84.876C213.818 84.8829 213.787 84.8971 213.761 84.9176C213.735 84.938 213.713 84.9643 213.698 84.9943C212.445 88.1937 212.882 92.0085 213.949 95.1943C214.526 96.9253 215.355 98.5614 216.408 100.049C217.461 101.556 218.819 102.827 219.686 104.469Z" fill="#00A746"/>
<path d="M214.376 86.4291C217.322 91.2265 219.368 96.9113 219.618 102.579C219.618 102.678 219.456 102.705 219.442 102.603C219.371 102.093 219.293 101.583 219.212 101.087C217.993 99.9169 216.743 98.6827 215.873 97.2173C215.871 97.212 215.871 97.2063 215.873 97.2011C215.875 97.1958 215.878 97.1912 215.882 97.1878C215.887 97.1845 215.892 97.1826 215.898 97.1824C215.903 97.1822 215.909 97.1837 215.913 97.1867C216.929 98.4234 218.016 99.5996 219.168 100.709C218.958 99.4579 218.706 98.2249 218.413 97.0099C218.331 96.9181 218.257 96.8263 218.179 96.7345C218.101 96.6427 218.213 96.5883 218.267 96.6461L218.338 96.7243C217.921 95.0609 217.407 93.4238 216.797 91.8215C216.049 90.9239 215.212 90.1487 214.663 89.0675C214.661 89.0622 214.661 89.0562 214.663 89.0507C214.665 89.0452 214.668 89.0405 214.673 89.0376C214.678 89.0347 214.684 89.0337 214.69 89.0348C214.696 89.036 214.701 89.0391 214.704 89.0437C215.125 89.6706 215.577 90.2754 216.059 90.8559C216.255 91.0871 216.475 91.2979 216.679 91.5359C216.002 89.7972 215.198 88.1117 214.271 86.4937C214.267 86.4803 214.268 86.4661 214.273 86.4533C214.278 86.4404 214.288 86.4296 214.299 86.4224C214.311 86.4151 214.325 86.4119 214.339 86.4131C214.352 86.4143 214.365 86.4199 214.376 86.4291Z" fill="#263238"/>
<path d="M214.985 92.3349C215.937 93.6201 217.017 94.8475 217.905 96.1769C217.932 96.2143 217.877 96.2551 217.844 96.2245C216.709 95.1535 215.747 93.6915 214.921 92.3723C214.897 92.3315 214.958 92.2975 214.985 92.3349Z" fill="#263238"/>
<path d="M218.04 96.4727L218.081 96.5135C218.108 96.5441 218.064 96.5883 218.037 96.5577L217.996 96.5169C217.99 96.511 217.987 96.5031 217.987 96.4948C217.987 96.4865 217.99 96.4786 217.996 96.4727C218.002 96.4668 218.01 96.4635 218.018 96.4635C218.026 96.4635 218.034 96.4668 218.04 96.4727Z" fill="#263238"/>
<path d="M209.78 95.6397C210.014 98.1081 211.307 101.056 212.886 102.957C213.579 103.783 214.437 104.455 215.405 104.929C216.496 105.473 217.637 106.095 218.765 106.54C219.301 107.911 219.7 109.333 219.957 110.783C219.994 110.661 220.028 110.532 220.065 110.409C219.341 104.16 215.324 98.8221 210.163 95.3949C210.123 95.3678 210.076 95.353 210.028 95.3523C209.979 95.3516 209.932 95.3651 209.891 95.3912C209.851 95.4172 209.818 95.4546 209.799 95.4988C209.779 95.5429 209.772 95.5919 209.78 95.6397Z" fill="#00A746"/>
<path d="M211.558 97.486C211.521 97.452 211.558 97.3874 211.612 97.418C214.442 99.5302 216.699 102.322 218.176 105.537C218.213 105.622 218.094 105.697 218.047 105.612C217.806 105.19 217.563 104.782 217.315 104.381C216.14 104.157 215.026 103.327 214.152 102.538C214.128 102.518 214.152 102.484 214.186 102.504C214.637 102.915 215.138 103.267 215.676 103.552C216.154 103.796 216.668 103.949 217.17 104.147C216.733 103.467 216.279 102.787 215.815 102.141C214.546 101.655 213.356 100.984 212.283 100.148C212.249 100.121 212.283 100.067 212.317 100.09C213.379 100.735 214.475 101.322 215.598 101.852C214.882 100.898 214.109 99.9898 213.282 99.1316C212.882 98.9208 212.476 98.7066 212.09 98.4788C212.082 98.4756 212.076 98.4695 212.073 98.4619C212.07 98.4542 212.07 98.4456 212.073 98.438C212.076 98.4303 212.082 98.4242 212.09 98.421C212.097 98.4178 212.106 98.4178 212.113 98.421C212.435 98.5337 212.742 98.6844 213.028 98.8698C212.55 98.404 212.073 97.9382 211.558 97.486Z" fill="#263238"/>
<path d="M211.666 99.6414C211.735 99.6851 211.802 99.7328 211.866 99.7842C211.887 99.8012 211.866 99.825 211.843 99.8182C211.77 99.7847 211.701 99.7449 211.635 99.6992C211.598 99.689 211.632 99.621 211.666 99.6414Z" fill="#263238"/>
<path d="M228.105 124.315H213.99L215.128 111.409L215.378 108.563H226.713L226.964 111.409L228.105 124.315Z" fill="#455A64"/>
<path d="M226.964 111.409H215.127L215.378 108.563H226.713L226.964 111.409Z" fill="#263238"/>
<path d="M227.391 106.574H214.704V109.389H227.391V106.574Z" fill="#455A64"/>
<path d="M12.9741 124.315L41.4831 124.23L69.9887 124.203L127 124.145L184.011 124.203L212.517 124.23L241.022 124.315L212.517 124.397L184.011 124.427L127 124.485L69.9887 124.427L41.4831 124.397L12.9741 124.315Z" fill="#263238"/>
<path d="M127 153.885C187.653 153.885 236.822 149.971 236.822 145.144C236.822 140.316 187.653 136.402 127 136.402C66.3461 136.402 17.1768 140.316 17.1768 145.144C17.1768 149.971 66.3461 153.885 127 153.885Z" fill="#EBEBEB"/>
<path d="M205.754 24.1785H48.25V129.952H205.754V24.1785Z" fill="#EBEBEB"/>
<path d="M204.608 25.4705H49.394V128.664H204.608V25.4705Z" fill="#263238"/>
<path d="M226.263 137.885H27.7334V145.144H226.263V137.885Z" fill="#DBDBDB"/>
<path d="M27.7334 137.885L48.2498 129.953H205.75L226.267 137.885H27.7334Z" fill="#EBEBEB"/>
<path d="M50.082 135.07L63.3171 129.953H190.683L203.921 135.07H50.082Z" fill="#263238"/>
<path d="M195.837 33.3109H58.166V120.823H195.837V33.3109Z" fill="white"/>
<path d="M193.392 36.6768H58.0474V58.7598H193.392V36.6768Z" fill="#00A746"/>
<path d="M195.834 33.3109H58.0474V36.6769H195.834V33.3109Z" fill="#455A64"/>
<path d="M60.7126 34.9938C60.7126 35.1594 60.6637 35.3213 60.572 35.4589C60.4803 35.5965 60.35 35.7037 60.1975 35.7669C60.0451 35.8301 59.8774 35.8465 59.7157 35.8139C59.554 35.7814 59.4056 35.7014 59.2892 35.5841C59.1728 35.4667 59.0937 35.3174 59.062 35.1549C59.0302 34.9925 59.0472 34.8242 59.1108 34.6714C59.1744 34.5186 59.2817 34.3882 59.4191 34.2967C59.5566 34.2053 59.718 34.1568 59.8829 34.1574C59.9921 34.1574 60.1003 34.1791 60.2012 34.2212C60.3021 34.2633 60.3937 34.3249 60.4708 34.4026C60.5479 34.4803 60.6089 34.5726 60.6504 34.674C60.6919 34.7755 60.7131 34.8842 60.7126 34.9938Z" fill="#C7C7C7"/>
<path d="M64.1096 34.9938C64.1096 35.1594 64.0606 35.3213 63.969 35.4589C63.8773 35.5965 63.7469 35.7037 63.5945 35.7669C63.4421 35.8301 63.2744 35.8465 63.1127 35.8139C62.951 35.7814 62.8026 35.7014 62.6862 35.5841C62.5698 35.4667 62.4907 35.3174 62.459 35.1549C62.4272 34.9925 62.4442 34.8242 62.5078 34.6714C62.5713 34.5186 62.6786 34.3882 62.8161 34.2967C62.9535 34.2053 63.1149 34.1568 63.2799 34.1574C63.3891 34.1574 63.4973 34.1791 63.5982 34.2212C63.6991 34.2633 63.7907 34.3249 63.8678 34.4026C63.9449 34.4803 64.0059 34.5726 64.0474 34.674C64.0889 34.7755 64.11 34.8842 64.1096 34.9938Z" fill="white"/>
<path d="M67.5061 34.9938C67.5061 35.1594 67.4571 35.3213 67.3654 35.4589C67.2737 35.5965 67.1434 35.7037 66.991 35.7669C66.8386 35.8301 66.6709 35.8465 66.5092 35.8139C66.3475 35.7814 66.199 35.7014 66.0827 35.5841C65.9663 35.4667 65.8872 35.3174 65.8554 35.1549C65.8237 34.9925 65.8407 34.8242 65.9042 34.6714C65.9678 34.5186 66.0751 34.3882 66.2126 34.2967C66.35 34.2053 66.5114 34.1568 66.6764 34.1574C66.7856 34.1574 66.8938 34.1791 66.9947 34.2212C67.0955 34.2633 67.1872 34.3249 67.2643 34.4026C67.3414 34.4803 67.4024 34.5726 67.4439 34.674C67.4854 34.7755 67.5065 34.8842 67.5061 34.9938Z" fill="#00A746"/>
<path d="M195.837 36.6768H193.392V120.82H195.837V36.6768Z" fill="#DBDBDB"/>
<path d="M194.611 65.8489C194.444 65.8489 194.284 65.7822 194.166 65.6636C194.048 65.545 193.981 65.3842 193.981 65.2164V37.8091C193.981 37.6413 194.048 37.4805 194.166 37.3619C194.284 37.2433 194.444 37.1767 194.611 37.1767C194.779 37.1766 194.939 37.2432 195.058 37.3617C195.177 37.4802 195.244 37.641 195.245 37.8091V65.2233C195.242 65.3901 195.174 65.5492 195.056 65.6662C194.937 65.7833 194.778 65.8489 194.611 65.8489Z" fill="#A6A6A6"/>
<path d="M186.337 40.784H153.433V45.1938H186.337V40.784Z" fill="white"/>
<path d="M186.382 45.238H153.389V40.7364H186.382V45.238ZM153.477 45.1462H186.294V40.8282H153.477V45.1462Z" fill="#C7C7C7"/>
<path d="M186.385 40.7364H181.901V45.238H186.385V40.7364Z" fill="#455A64"/>
<path d="M185.535 44.2215L185.129 44.5309L184.377 43.5347L184.103 43.1709C184.159 43.1495 184.211 43.1197 184.258 43.0825C184.35 43.0107 184.422 42.9172 184.468 42.8105L184.76 43.1981L185.535 44.2215Z" fill="white"/>
<path d="M184.736 41.8891C184.607 41.7204 184.434 41.5921 184.235 41.5194C184.036 41.4467 183.821 41.4325 183.615 41.4786C183.409 41.5247 183.22 41.6291 183.071 41.7795C182.921 41.9299 182.818 42.1201 182.773 42.3274C182.728 42.5348 182.744 42.7507 182.817 42.9497C182.89 43.1488 183.019 43.3226 183.187 43.4506C183.356 43.5786 183.558 43.6555 183.768 43.6722C183.979 43.6889 184.19 43.6447 184.377 43.5449C184.431 43.5172 184.482 43.4842 184.529 43.4463C184.617 43.3792 184.695 43.2989 184.759 43.2083C184.896 43.0147 184.968 42.7821 184.963 42.5448C184.959 42.3074 184.879 42.0776 184.736 41.8891ZM184.258 43.0927C184.211 43.1299 184.158 43.1597 184.102 43.1811C183.968 43.2328 183.821 43.2403 183.682 43.2024C183.543 43.1645 183.42 43.0832 183.33 42.9703C183.254 42.9042 183.193 42.8219 183.153 42.7294C183.112 42.6369 183.093 42.5365 183.096 42.4355C183.099 42.3345 183.124 42.2355 183.17 42.1455C183.216 42.0556 183.281 41.9771 183.361 41.9157C183.441 41.8543 183.534 41.8115 183.632 41.7905C183.731 41.7695 183.833 41.7709 183.93 41.7944C184.028 41.8179 184.12 41.863 184.198 41.9264C184.277 41.9898 184.34 42.07 184.383 42.1611C184.453 42.2545 184.497 42.3643 184.512 42.4798C184.526 42.5953 184.511 42.7126 184.468 42.8207C184.42 42.9237 184.348 43.0135 184.258 43.0825V43.0927Z" fill="white"/>
<path d="M154.588 41.6477H154.351V44.3235H154.588V41.6477Z" fill="#C7C7C7"/>
<path d="M151.783 40.7841H76V45.1939H151.783V40.7841Z" fill="white"/>
<path d="M151.827 45.238H75.9658V40.7364H151.827V45.238ZM76.0437 45.1462H151.722V40.8282H76.0437V45.1462Z" fill="#C7C7C7"/>
<path d="M77.1556 41.6477H76.918V44.3235H77.1556V41.6477Z" fill="#C7C7C7"/>
<path d="M67.7098 44.4968L66.1113 43.0178L67.7064 41.481L67.9571 41.7394L66.6329 43.011L67.9537 44.2316L67.7098 44.4968Z" fill="white"/>
<path d="M71.57 41.4777L73.1685 42.9567L71.5734 44.4935L71.3262 44.2351L72.647 42.9601L71.3262 41.7429L71.57 41.4777Z" fill="white"/>
<path d="M109.582 90.5023H144.479V63.6219H109.582V90.5023Z" fill="#00A746"/>
<path opacity="0.6" d="M113.057 69.5038C112.924 70.1736 113.01 70.8686 113.301 71.486C113.591 72.1033 114.072 72.6104 114.672 72.9322C115.273 73.2539 115.96 73.3734 116.633 73.2729C117.306 73.1723 117.928 72.8572 118.409 72.3739C118.89 71.8906 119.203 71.265 119.302 70.5893C119.401 69.9136 119.281 69.2239 118.96 68.6219C118.639 68.0199 118.133 67.5377 117.518 67.2465C116.902 66.9553 116.21 66.8706 115.543 67.0048C114.929 67.1284 114.365 67.4316 113.923 67.8764C113.481 68.3211 113.179 68.8874 113.057 69.5038Z" fill="white"/>
<path d="M121.094 84.7121H144.479L132.788 70.2451L121.094 84.7121Z" fill="#00A746"/>
<path opacity="0.2" d="M121.094 84.7121H144.479L132.788 70.2451L121.094 84.7121Z" fill="black"/>
<path d="M109.582 84.7256H130.319L119.952 75.3042L109.582 84.7256Z" fill="#00A746"/>
<path opacity="0.1" d="M109.582 84.7256H130.319L119.952 75.3042L109.582 84.7256Z" fill="black"/>
<path d="M144.478 84.7121H109.582V90.5023H144.478V84.7121Z" fill="#00A746"/>
<path opacity="0.1" d="M144.478 84.7121H109.582V90.5023H144.478V84.7121Z" fill="black"/>
<path d="M83.9657 94.2219H65.5117V95.7791H83.9657V94.2219Z" fill="#A6A6A6"/>
<path d="M143.94 97.8395H65.5117V99.3967H143.94V97.8395Z" fill="#EBEBEB"/>
<path d="M143.94 101.267H65.5117V102.824H143.94V101.267Z" fill="#EBEBEB"/>
<path d="M143.94 104.697H65.5117V106.254H143.94V104.697Z" fill="#EBEBEB"/>
<path d="M143.94 108.128H65.5117V109.685H143.94V108.128Z" fill="#EBEBEB"/>
<path d="M143.94 111.555H65.5117V113.112H143.94V111.555Z" fill="#EBEBEB"/>
<path d="M167.728 63.8598H149.274V65.417H167.728V63.8598Z" fill="#A6A6A6"/>
<path d="M188.488 67.4741H149.274V69.0313H188.488V67.4741Z" fill="#EBEBEB"/>
<path d="M188.488 70.9047H149.274V72.4619H188.488V70.9047Z" fill="#EBEBEB"/>
<path d="M188.488 74.3319H149.274V75.8891H188.488V74.3319Z" fill="#EBEBEB"/>
<path d="M188.488 77.7625H149.274V79.3197H188.488V77.7625Z" fill="#EBEBEB"/>
<path d="M188.488 84.1205H149.274V85.6777H188.488V84.1205Z" fill="#EBEBEB"/>
<path d="M188.488 87.5511H149.274V89.1083H188.488V87.5511Z" fill="#EBEBEB"/>
<path d="M188.488 90.9817H149.274V92.5389H188.488V90.9817Z" fill="#EBEBEB"/>
<path d="M188.488 94.4089H149.274V95.9661H188.488V94.4089Z" fill="#EBEBEB"/>
<path d="M188.488 97.8395H149.274V99.3967H188.488V97.8395Z" fill="#EBEBEB"/>
<path d="M188.488 104.697H149.274V106.254H188.488V104.697Z" fill="#EBEBEB"/>
<path d="M175.703 108.128H149.274V109.685H175.703V108.128Z" fill="#EBEBEB"/>
<path d="M176.662 107.145H176.493V110.668H176.662V107.145Z" fill="#263238"/>
<path d="M83.9657 63.6252H65.5117V67.7936H83.9657V63.6252Z" fill="#A6A6A6"/>
<path d="M104.665 70.6701H65.5117V72.2273H104.665V70.6701Z" fill="#EBEBEB"/>
<path d="M104.665 74.1007H65.5117V75.6579H104.665V74.1007Z" fill="#EBEBEB"/>
<path d="M104.665 77.5279H65.5117V79.0851H104.665V77.5279Z" fill="#EBEBEB"/>
<path d="M104.665 80.9585H65.5117V82.5157H104.665V80.9585Z" fill="#EBEBEB"/>
<path d="M104.665 85.5179H65.5117V87.0751H104.665V85.5179Z" fill="#EBEBEB"/>
<path d="M104.665 88.9484H65.5117V90.5056H104.665V88.9484Z" fill="#EBEBEB"/>
<path d="M136.689 149.829C136.689 149.829 128.9 150.376 128.947 145.008C128.995 139.639 136.794 140.36 136.794 140.36L136.689 149.829Z" fill="#00A746"/>
<path d="M198.208 144.62L198.181 146.97L191.347 150.451L160.528 150.111L140.689 149.887L138.505 149.863H138.274H136.656H136.378L136.486 140.391H136.798L138.379 140.408H138.61L140.794 140.431L191.462 141.009L198.198 144.647L198.208 144.62Z" fill="#00A746"/>
<path d="M199.719 145.81L198.188 146.602H198.185L198.205 145.004L199.123 145.491L199.719 145.81Z" fill="#455A64"/>
<path d="M136.21 139.571L136.085 150.627L138.269 150.652L138.394 139.596L136.21 139.571Z" fill="#263238"/>
<path d="M138.446 139.403L138.335 150.459L140.52 150.481L140.63 139.424L138.446 139.403Z" fill="#263238"/>
<path d="M140.675 150.669L140.716 147.102L160.582 149.295L160.491 150.608L140.675 150.669Z" fill="#263238"/>
<path d="M88.6084 83.7941C90.5286 86.1333 92.0526 99.3967 89.6244 104.575C87.1962 109.753 76.7551 110.848 74.5029 104.184C73.321 100.716 76.2979 96.8399 77.683 87.6565C78.7092 80.8123 85.9228 80.5301 88.6084 83.7941Z" fill="#263238"/>
<path d="M87.4432 106.489C88.2767 106.025 89.0105 105.401 89.6022 104.651C90.1939 103.901 90.6319 103.041 90.8908 102.12C91.4428 100.128 91.3649 97.9177 91.2667 95.8709C91.0441 91.7541 90.1577 87.7008 88.642 83.8689C88.642 83.8689 88.659 83.8417 88.6658 83.8689C90.3724 87.8907 91.3209 92.1954 91.4631 96.5645C91.5343 98.6351 91.5884 100.937 90.7858 102.885C90.1322 104.453 88.9551 105.743 87.4567 106.533C87.4432 106.533 87.4228 106.489 87.4432 106.489Z" fill="#263238"/>
<path d="M74.6482 96.5C75.2374 95.242 75.9385 94.0418 76.3415 92.7056C76.7445 91.3694 76.9172 90.0706 77.1915 88.748C77.6081 86.708 78.3261 84.668 80.0296 83.3658C78.2922 84.7598 77.6894 86.9426 77.283 89.0438C77.0595 90.193 76.8867 91.3558 76.565 92.4812C76.2491 93.4914 75.841 94.4702 75.3458 95.4052C74.218 97.656 73.3375 99.9748 73.8523 102.545C74.0548 103.595 74.5032 104.581 75.1604 105.422C75.8176 106.264 76.6647 106.936 77.6318 107.383C77.6928 107.411 77.6487 107.519 77.5878 107.496C76.7116 107.109 75.9289 106.537 75.293 105.818C74.6571 105.1 74.183 104.253 73.9031 103.334C73.1885 101.049 73.6491 98.6318 74.6482 96.5Z" fill="#263238"/>
<path d="M75.3965 96.6052C75.9211 95.4225 76.3141 94.1854 76.5682 92.9162C76.7952 91.7024 76.9069 90.475 77.1169 89.2578C77.4556 87.177 78.1058 85.0384 79.7483 83.5832C79.7686 83.5832 79.7991 83.5832 79.7788 83.6138C78.2311 85.1472 77.5978 87.211 77.2591 89.2952C76.8934 91.5426 76.7105 93.7594 75.8604 95.898C75.0341 97.9754 73.8826 100.063 73.9978 102.358C74.1129 104.653 75.6335 106.356 77.4962 107.519C77.5027 107.526 77.5068 107.534 77.508 107.543C77.5091 107.552 77.5072 107.561 77.5025 107.569C77.4978 107.577 77.4906 107.583 77.4821 107.586C77.4736 107.59 77.4643 107.59 77.4556 107.587C75.8096 106.639 74.3771 105.132 73.9605 103.256C73.4491 100.947 74.5058 98.6894 75.3965 96.6052Z" fill="#263238"/>
<path d="M157.009 134.828C156.206 135.138 132.892 135.566 131.978 135.042C131.879 134.981 131.907 133.948 131.565 131.275C131.548 131.149 131.016 130.653 130.183 129.953C127.067 127.331 119.738 121.793 119.738 121.793L131.375 111.644L142.649 122.772L145.582 125.662C145.582 125.662 155.109 130.826 156.054 131.51C156.998 132.193 157.818 134.519 157.009 134.828Z" fill="#D3766A"/>
<path d="M157.008 134.828C156.209 135.141 132.889 135.562 131.978 135.042C131.876 134.981 131.907 133.947 131.564 131.278C134.426 132.043 151.939 132.513 153.276 131.357C154.17 130.585 150.723 128.504 149.311 127.705C152.094 129.228 155.508 131.122 156.053 131.516C156.988 132.2 157.818 134.519 157.008 134.828Z" fill="#00A746"/>
<path d="M142.812 122.156L128.429 129.636C128.429 129.636 113.446 116.036 112.071 115.917C110.696 115.798 90.5419 129.551 80.3921 129.609C69.8934 129.653 69.3481 118.597 69.3481 118.597L84.683 115.061C95.7337 109.593 107.248 99.7606 114.777 100.685C122.956 101.668 142.812 122.156 142.812 122.156Z" fill="#455A64"/>
<path d="M139.297 120.249C136.872 121.456 137.552 121.078 135.134 122.309C133.952 122.911 128.022 125.923 127.006 126.668C127.001 126.672 126.998 126.677 126.997 126.683C126.995 126.69 126.996 126.696 126.999 126.701C127.002 126.707 127.006 126.711 127.012 126.714C127.018 126.717 127.024 126.717 127.03 126.716C128.219 126.314 134.101 123.176 135.273 122.551C137.664 121.276 136.966 121.616 139.337 120.317C139.346 120.311 139.353 120.303 139.355 120.292C139.358 120.282 139.356 120.271 139.351 120.262C139.345 120.253 139.337 120.247 139.326 120.244C139.316 120.242 139.306 120.243 139.297 120.249Z" fill="#263238"/>
<path d="M125.882 126.189C123.068 123.7 113.856 115.598 113.483 115.309C113.192 115.031 112.869 114.789 112.522 114.588C112.378 114.531 112.223 114.508 112.07 114.521C111.916 114.533 111.767 114.58 111.634 114.659C111.211 114.856 110.791 115.077 110.371 115.285L107.878 116.505C104.654 118.083 101.444 119.705 98.2028 121.231C95.0803 122.7 92.8518 124.081 89.5905 125.213C86.3478 126.355 82.9947 127.153 79.5863 127.593C79.1663 127.644 78.743 127.688 78.323 127.729C78.3167 127.729 78.3107 127.731 78.3063 127.736C78.3018 127.74 78.2993 127.746 78.2993 127.753C78.2993 127.759 78.3018 127.765 78.3063 127.769C78.3107 127.774 78.3167 127.776 78.323 127.776C81.6694 127.578 84.978 126.96 88.1715 125.937C91.4023 124.941 93.5901 123.645 96.6618 122.228C99.8419 120.759 102.978 119.188 106.111 117.624C107.767 116.798 109.419 115.965 111.079 115.149C111.455 114.962 111.99 114.561 112.434 114.761C112.615 114.859 112.781 114.983 112.928 115.128L113.48 115.587C114.195 116.182 125.486 125.947 125.855 126.229C125.872 126.25 125.909 126.209 125.882 126.189Z" fill="#263238"/>
<path d="M69.321 118.583C69.321 118.583 67.6006 128.565 72.5722 132.489C77.5438 136.412 113.971 135.936 119.498 134.145C125.025 132.353 125.201 123.397 119.159 121.32C113.402 119.348 88.9637 118.389 88.3609 118.148C88.2085 118.086 90.5283 116.689 90.5182 116.604L84.9539 114.904L69.321 118.583Z" fill="#455A64"/>
<path d="M76.8767 118.331C76.8767 118.287 76.8055 118.301 76.8055 118.331C76.8047 119.492 76.3971 120.615 75.6541 121.504C74.8074 122.486 73.5611 123.034 72.43 123.608C72.3216 123.663 72.4029 123.836 72.5146 123.802C73.21 123.587 73.88 123.296 74.5128 122.935C75.0936 122.626 75.6044 122.2 76.0131 121.684C76.3802 121.215 76.6465 120.676 76.7951 120.099C76.9438 119.522 76.9715 118.92 76.8767 118.331Z" fill="#263238"/>
<path d="M87.9578 117.094C87.7038 116.771 87.4295 116.461 87.1653 116.149C86.5422 115.404 85.919 114.656 85.2654 113.939C85.2045 113.871 85.0825 113.966 85.1401 114.041C85.577 114.619 86.0443 115.176 86.4948 115.741C86.7284 116.03 86.9655 116.315 87.2026 116.601C87.4488 116.86 87.67 117.142 87.863 117.444C88.0323 117.764 87.8088 118.036 87.4769 118.07C87.185 118.079 86.9009 117.974 86.6844 117.777C86.1885 117.338 85.7349 116.853 85.3298 116.329C85.069 116.033 84.8048 115.737 84.5407 115.445C84.2765 115.152 83.9548 114.84 83.6737 114.527C83.6534 114.51 83.6195 114.527 83.6364 114.557C83.8837 114.897 84.1106 115.237 84.3578 115.577C84.605 115.917 84.8556 116.257 85.1096 116.597C85.3636 116.937 85.6007 117.223 85.8581 117.526C86.0726 117.792 86.3288 118.022 86.6167 118.206C87.0908 118.484 87.9104 118.546 88.1644 117.934C88.2059 117.788 88.2086 117.633 88.1724 117.486C88.1361 117.339 88.0622 117.203 87.9578 117.094Z" fill="#263238"/>
<path d="M118.743 134.175C116.84 134.213 114.94 134.325 113.036 134.366C111.133 134.406 109.26 134.417 107.371 134.396C103.58 134.362 99.7912 134.215 96.0049 133.954C92.1813 133.689 88.0598 133.305 84.2599 132.778C82.4447 132.526 80.6023 132.315 78.804 131.928C77.1901 131.619 75.6978 130.853 74.5029 129.721C72.0442 127.324 71.0858 123.805 70.6929 120.439C70.641 119.986 70.597 119.533 70.5609 119.079C70.5623 119.076 70.5628 119.072 70.5624 119.068C70.562 119.064 70.5606 119.06 70.5585 119.057C70.5563 119.054 70.5534 119.051 70.55 119.049C70.5465 119.048 70.5427 119.047 70.5388 119.047C70.535 119.047 70.5312 119.048 70.5277 119.049C70.5243 119.051 70.5214 119.054 70.5192 119.057C70.517 119.06 70.5157 119.064 70.5153 119.068C70.5149 119.072 70.5154 119.076 70.5168 119.079C70.737 122.527 71.2721 126.124 73.4327 128.898C74.3434 130.111 75.5574 131.06 76.9515 131.649C78.6448 132.329 80.5414 132.492 82.3363 132.737C86.1497 133.257 90.2882 133.658 94.1253 133.958C97.9624 134.257 101.854 134.444 105.721 134.502C109.589 134.559 113.467 134.502 117.331 134.311C117.8 134.291 118.271 134.26 118.743 134.219C118.747 134.218 118.751 134.215 118.754 134.211C118.756 134.207 118.758 134.202 118.758 134.197C118.758 134.193 118.756 134.188 118.754 134.184C118.751 134.18 118.747 134.177 118.743 134.175Z" fill="#263238"/>
<path d="M106.744 119.501C105.548 119.324 104.353 119.161 103.147 119.028C101.941 118.896 100.712 118.79 99.4927 118.688C97.0848 118.481 94.6667 118.297 92.252 118.185C90.877 118.12 89.5054 118.114 88.1338 118.131C88.0898 118.131 88.0932 118.195 88.1338 118.199C90.5485 118.416 92.9666 118.569 95.3881 118.732C97.8095 118.896 100.214 119.106 102.622 119.338C103.977 119.467 105.358 119.569 106.727 119.678C106.825 119.688 106.845 119.518 106.744 119.501Z" fill="#263238"/>
<path d="M90.7991 116.482C89.8347 116.901 88.9069 117.4 88.0255 117.974C87.1283 118.513 86.2705 119.115 85.4584 119.776C85.4381 119.797 85.4584 119.824 85.4889 119.814C86.4303 119.375 87.3346 118.831 88.2321 118.307C89.1401 117.794 90.0165 117.226 90.8567 116.607C90.9143 116.567 90.8804 116.451 90.7991 116.482Z" fill="#263238"/>
<path d="M80.5108 98.6386C82.3565 104.932 85.8448 112.402 87.2096 113.568C88.9368 115.037 99.913 117.26 100.455 117.284C101.81 117.339 103.889 107.536 102.453 107.424C100.272 107.244 92.3844 107.295 91.8832 106.836C91.382 106.377 87.7921 102.362 84.0939 97.8226C81.5369 94.6742 79.3661 94.732 80.5108 98.6386Z" fill="#D3766A"/>
<path d="M99.354 116.832C100.623 117.388 101.929 117.854 103.262 118.226C104.322 118.464 107.391 119.073 107.77 117.927C108.027 117.145 106.266 116.567 105.03 116.145C104.376 115.917 103.554 115.299 103.716 114.877C104.001 114.139 105.68 114.758 106.795 115.322C108.948 116.407 111.854 118.423 113.06 117.288C113.517 116.856 112.914 116.162 112.044 115.496C113.419 116.247 114.875 116.856 115.4 116.39C115.535 116.272 115.62 116.107 115.638 115.928C115.656 115.749 115.604 115.57 115.495 115.428C115.667 115.497 115.856 115.513 116.037 115.473C116.218 115.434 116.383 115.341 116.511 115.207C116.914 114.727 116.667 114.071 116.152 113.415C116.233 113.402 116.309 113.37 116.375 113.32C116.44 113.271 116.493 113.207 116.528 113.133C117.354 111.684 112.548 107.955 110.95 107.676C107.777 107.182 104.557 107.075 101.359 107.356C99.6284 108.93 99.3506 116.829 99.354 116.832Z" fill="#D3766A"/>
<path d="M105.921 112.123C107.038 112.233 108.118 112.581 109.091 113.143C110.317 113.853 111.153 114.717 112.196 115.577C112.202 115.582 112.206 115.588 112.207 115.596C112.208 115.603 112.206 115.611 112.201 115.616C112.197 115.622 112.19 115.626 112.183 115.627C112.176 115.628 112.168 115.626 112.162 115.621C111.665 115.213 109.616 113.687 109.087 113.347C108.135 112.713 107.051 112.305 105.917 112.157L105.921 112.123Z" fill="#263238"/>
<path d="M106.679 110.093C107.938 110.306 109.171 110.648 110.361 111.113C111.637 111.671 112.67 112.646 113.683 113.581C114.293 114.146 114.892 114.72 115.474 115.309C115.498 115.332 115.474 115.377 115.441 115.353C114.409 114.383 113.35 113.445 112.264 112.541C111.261 111.695 110.1 111.058 108.85 110.664C108.136 110.44 107.407 110.27 106.676 110.1C106.649 110.11 106.652 110.09 106.679 110.093Z" fill="#263238"/>
<path d="M107.865 108.284C109.067 108.454 110.113 108.601 111.201 109.175C112.433 109.888 113.571 110.754 114.587 111.752C115.139 112.276 115.674 112.82 116.203 113.371C116.223 113.395 116.186 113.432 116.165 113.412C114.961 112.204 113.679 111.076 112.328 110.035C111.694 109.528 110.984 109.124 110.225 108.839C109.46 108.588 108.675 108.405 107.878 108.291C107.878 108.291 107.861 108.281 107.865 108.284Z" fill="#263238"/>
<path d="M100.583 107.006L97.9011 117.774C97.9011 117.774 88.7571 115.734 86.9994 114.068C85.2417 112.402 81.6586 103.385 80.497 98.9853C79.3354 94.5857 81.5841 94.5653 83.8159 97.2411C86.0477 99.9169 91.6052 106.421 91.8897 106.547C92.1742 106.673 100.583 107.006 100.583 107.006Z" fill="#00A746"/>
<path d="M96.7632 113.133C97.1019 111.864 97.4405 110.596 97.7081 109.314C97.8673 108.583 98.0298 107.856 98.1822 107.125C98.1822 107.098 98.1416 107.084 98.1348 107.125C97.7555 108.386 97.3796 109.654 97.0578 110.933C96.7361 112.211 96.4076 113.476 96.1062 114.751C95.9335 115.479 95.7845 116.206 95.6558 116.944C95.6558 116.944 95.6761 116.964 95.6829 116.944C96.1028 115.686 96.4347 114.411 96.7632 113.133Z" fill="#263238"/>
<path d="M96.7969 106.931C96.8008 107.173 96.7861 107.415 96.7529 107.655C96.7158 107.895 96.658 108.13 96.5802 108.359C96.4209 108.818 96.1862 109.246 95.8859 109.627C95.5896 110.014 95.2083 110.327 94.7717 110.542C94.3356 110.749 93.869 110.885 93.3899 110.943C92.986 110.998 92.5783 111.021 92.1707 111.011H91.9506C91.4731 111.011 90.9956 110.96 90.518 110.919C89.568 110.807 88.6128 110.743 87.6563 110.729C87.1803 110.729 86.7065 110.793 86.2475 110.919C85.9035 111.016 85.583 111.183 85.306 111.409L85.2856 111.368C85.565 111.141 85.8877 110.973 86.2339 110.875C86.697 110.745 87.1755 110.679 87.6563 110.678C88.6139 110.688 89.5703 110.749 90.5214 110.862C90.999 110.902 91.4765 110.94 91.954 110.95H92.2486C92.6269 110.953 93.0049 110.93 93.3798 110.879C93.8497 110.82 94.3071 110.686 94.7344 110.481C95.1694 110.274 95.549 109.966 95.8419 109.583C96.1339 109.207 96.3627 108.786 96.5192 108.335C96.6716 107.883 96.7438 107.408 96.7326 106.931C96.7343 106.902 96.7343 106.872 96.7326 106.843H96.8071C96.8055 106.872 96.8022 106.902 96.7969 106.931ZM93.942 106.724V106.707H93.8742C93.8759 106.715 93.8759 106.723 93.8742 106.731C93.9066 107.207 93.8759 107.686 93.7828 108.155C93.5728 109.092 93.1194 109.957 92.4688 110.661C92.371 110.764 92.2682 110.861 92.1606 110.953C92.1373 110.976 92.1124 110.996 92.0861 111.015C91.853 111.207 91.6011 111.376 91.3342 111.518C90.9091 111.736 90.4632 111.912 90.0033 112.041C89.0695 112.256 88.1526 112.539 87.2601 112.888C86.9693 113.02 86.6925 113.18 86.4337 113.367C86.4431 113.378 86.4511 113.389 86.4574 113.401C86.7149 113.216 86.9906 113.057 87.2804 112.929C88.1708 112.582 89.0854 112.301 90.0168 112.089C90.4845 111.96 90.9383 111.784 91.3715 111.565C91.6617 111.414 91.9334 111.229 92.1809 111.015C92.2091 110.997 92.2352 110.977 92.2588 110.953C92.3514 110.872 92.4394 110.787 92.523 110.698C92.8545 110.348 93.1349 109.952 93.3561 109.522C93.5861 109.095 93.7538 108.637 93.8539 108.162C93.9488 107.689 93.9784 107.205 93.942 106.724Z" fill="white"/>
<path opacity="0.1" d="M98.1791 116.689L97.9115 117.76C97.9115 117.76 88.7675 115.72 87.0098 114.054C85.2522 112.388 81.6691 103.371 80.5074 98.9717C79.6574 95.7553 80.6327 94.8747 82.089 95.6839C86.1428 100.886 93.7866 110.729 98.1791 116.689Z" fill="black"/>
<path d="M68.522 119.637C69.1993 119.895 89.1163 115.19 89.1163 115.19L87.1419 108.23C87.1419 108.23 88.3983 106.088 87.9716 103.942C87.406 101.08 82.4242 96.1667 82.0314 95.8743C80.4397 94.6945 78.9834 94.4667 77.5982 95.1229C71.7698 97.8633 68.522 119.637 68.522 119.637Z" fill="#00A746"/>
<path d="M87.2298 102.13L87.2602 102.188H87.1146H87.0367C86.8969 102.18 86.7566 102.18 86.6168 102.188C86.1404 102.218 85.6706 102.315 85.2215 102.477C84.7704 102.628 84.3437 102.845 83.9549 103.12C83.5664 103.398 83.2167 103.727 82.9152 104.099C82.616 104.472 82.3443 104.866 82.1024 105.279C81.8551 105.687 81.6214 106.108 81.3708 106.516C81.1234 106.931 80.8388 107.323 80.5208 107.686C80.3584 107.864 80.1829 108.03 79.9958 108.182C79.8071 108.334 79.6041 108.468 79.3896 108.58C78.9659 108.804 78.5082 108.957 78.035 109.032C77.5554 109.112 77.0641 109.079 76.599 108.937C76.1388 108.791 75.7052 108.57 75.3155 108.284C74.9863 108.047 74.675 107.786 74.3841 107.502L74.3232 107.441L74.2216 107.346C73.8829 107.006 73.5442 106.666 73.2361 106.295C72.806 105.816 72.3894 105.326 71.9457 104.861C71.9529 104.841 71.9586 104.82 71.9627 104.799C72.4165 105.272 72.8432 105.768 73.2801 106.255C73.5984 106.612 73.9236 106.965 74.2622 107.302L74.4146 107.445L74.4756 107.506C74.7507 107.768 75.0438 108.01 75.3527 108.23C75.7373 108.512 76.1651 108.729 76.6193 108.873C77.0736 109.01 77.5535 109.041 78.0214 108.961C78.4942 108.888 78.9518 108.737 79.3761 108.516C79.7932 108.287 80.1688 107.989 80.4869 107.635C80.8034 107.277 81.0858 106.89 81.3302 106.479C81.5808 106.071 81.8145 105.653 82.0651 105.241C82.309 104.826 82.5841 104.431 82.8881 104.058C83.1913 103.683 83.5446 103.351 83.9379 103.072C84.7398 102.519 85.6762 102.195 86.6473 102.134C86.7692 102.134 86.8911 102.134 87.013 102.134H87.1078L87.2298 102.13ZM87.416 102.47L87.2162 102.266L87.1146 102.168L87.057 102.11C86.7659 101.826 86.4534 101.564 86.1223 101.328C85.733 101.041 85.2994 100.821 84.8388 100.675C84.374 100.532 83.8823 100.499 83.4028 100.58C82.9302 100.655 82.4727 100.807 82.0482 101.029C81.8352 101.144 81.6324 101.277 81.442 101.427C81.2548 101.58 81.0794 101.747 80.917 101.926C80.599 102.288 80.3145 102.679 80.067 103.093C79.8164 103.504 79.5827 103.922 79.3354 104.334C79.093 104.746 78.8214 105.14 78.5226 105.513C78.2205 105.882 77.8722 106.21 77.4863 106.489C77.0953 106.763 76.6678 106.981 76.2163 107.135C75.767 107.296 75.2972 107.392 74.821 107.421C74.6801 107.431 74.5386 107.431 74.3977 107.421C74.3673 107.424 74.3366 107.424 74.3062 107.421C74.003 107.402 73.7023 107.354 73.4088 107.275C72.951 107.142 72.5074 106.965 72.0846 106.744C71.8712 106.635 71.6579 106.523 71.4479 106.404C71.4464 106.42 71.4464 106.436 71.4479 106.452C71.6545 106.564 71.8645 106.68 72.0744 106.792C72.4997 107.016 72.9468 107.196 73.4088 107.329C73.7265 107.415 74.0522 107.467 74.3808 107.485H74.4722C74.5941 107.485 74.716 107.485 74.838 107.485C75.3196 107.454 75.7948 107.357 76.2502 107.196C76.7065 107.042 77.1387 106.823 77.5337 106.547C77.9258 106.265 78.2799 105.934 78.587 105.561C78.8888 105.186 79.1627 104.79 79.4066 104.374C79.6572 103.963 79.8909 103.545 80.1415 103.137C80.389 102.728 80.6711 102.341 80.9848 101.981C81.3044 101.628 81.6811 101.331 82.099 101.104C82.523 100.88 82.9806 100.729 83.4536 100.655C83.9219 100.578 84.4014 100.609 84.8557 100.747C85.3095 100.89 85.7373 101.105 86.1223 101.386C86.4313 101.607 86.7245 101.85 86.9995 102.113L87.057 102.171L87.2128 102.317C87.3246 102.426 87.433 102.538 87.5515 102.657C87.5278 102.6 87.4973 102.542 87.4702 102.487L87.416 102.47Z" fill="white"/>
<path d="M84.5986 98.4719C85.0761 99.0907 85.5909 99.6789 86.0819 100.284C85.8618 99.8387 85.6417 99.3967 85.4046 98.9615C85.7633 99.4774 86.0707 100.027 86.3224 100.604C86.6923 101.061 87.0317 101.543 87.3384 102.045C87.7142 102.645 87.9834 103.305 88.1343 103.997C88.2619 104.698 88.2469 105.417 88.0902 106.112C87.8995 106.908 87.6376 107.685 87.3079 108.434C87.2673 108.536 87.125 108.464 87.1589 108.366C87.5958 107.047 88.0835 105.646 87.8566 104.248C87.6296 102.851 86.8406 101.644 86.0548 100.508C85.5974 99.813 85.0963 99.1476 84.5545 98.5161C84.5342 98.4787 84.5783 98.4447 84.5986 98.4719Z" fill="#263238"/>
<path d="M75.6815 96.3843C71.7089 99.4443 61.234 111.865 63.4218 114.809C65.6095 117.753 80.6193 116.774 84.9982 115.489C86.3021 115.112 82.9662 106.792 81.5675 106.38C80.4127 106.04 73.9137 107.808 73.7985 107.428C73.6834 107.047 75.1024 104.252 77.4256 99.2233C80.1011 93.4433 77.4392 95.0311 75.6815 96.3843Z" fill="#D3766A"/>
<path d="M87.9717 104.952C90.9723 105.031 91.7309 105.513 94.298 104.228C95.9913 103.385 97.2444 104.102 96.0997 105.697C94.2269 108.308 90.3423 109.026 88.9098 108.883L87.9717 104.952Z" fill="#D3766A"/>
<path d="M79.708 106.489C79.708 106.489 83.308 105.197 86.5152 104.962C88.7335 104.799 93.5967 104.986 97.3796 110.464C98.2771 111.762 98.6361 114.251 96.4043 112.663C94.8193 111.535 94.1521 110.341 93.1124 109.852C93.1124 109.852 93.1937 113.075 91.8628 113.932C90.6987 114.676 89.4832 115.336 88.2255 115.907C88.0687 115.7 87.9251 115.483 87.7954 115.258C87.7954 115.258 86.478 115.938 84.3003 115.356L79.708 106.489Z" fill="#D3766A"/>
<path d="M88.6552 105.153C89.5899 105.857 91.5373 107.38 92.7192 109.182C94.0095 111.188 95.9603 115.394 94.4803 116.322C93.3932 117.002 92.5059 115.472 92.5059 115.472C92.5059 115.472 92.9461 117.383 91.8285 117.791C90.8125 118.165 90.1961 116.93 90.1961 116.93C90.1961 116.93 90.2673 118.134 89.214 118.29C87.9508 118.494 88.0151 115.934 86.5589 115.03C86.2134 114.856 88.6552 105.153 88.6552 105.153Z" fill="#D3766A"/>
<path d="M90.366 110.202C91.5965 111.689 92.3456 113.518 92.5132 115.445C92.5132 115.492 92.4793 115.519 92.4691 115.475C91.9755 113.647 91.2625 111.885 90.3457 110.229L90.366 110.202Z" fill="#263238"/>
<path d="M88.3914 111.569C88.9807 112.334 90.1931 114.741 90.2202 116.93C90.2202 116.978 90.183 117.005 90.1762 116.961C89.7778 115.108 89.1722 113.306 88.3711 111.589C88.3711 111.589 88.3914 111.558 88.3914 111.569Z" fill="#263238"/>
<path d="M93.1328 109.842C94.0404 110.28 94.5857 110.862 95.3003 111.542C95.6488 111.893 96.0174 112.223 96.4043 112.531C96.743 112.806 97.2781 113.211 97.759 112.959C97.8728 112.873 97.9612 112.757 98.0149 112.624C98.0685 112.491 98.0854 112.346 98.0638 112.205C98.0149 111.796 97.9006 111.397 97.7251 111.025C97.7251 111.025 97.7421 110.998 97.7488 111.025C97.9257 111.366 98.0653 111.725 98.1654 112.096C98.2296 112.348 98.2166 112.613 98.1281 112.857C97.9012 113.364 97.2679 113.33 96.8514 113.112C96.6037 112.972 96.3711 112.807 96.1571 112.619C95.9471 112.449 95.7473 112.279 95.5509 112.079C95.1445 111.695 94.7652 111.29 94.3656 110.899C93.9736 110.535 93.5608 110.195 93.1294 109.879C93.0786 109.859 93.0955 109.831 93.1328 109.842Z" fill="#263238"/>
<path d="M94.5618 113.551C94.1504 112.29 93.6595 111.057 93.092 109.858C93.092 109.858 93.092 109.831 93.1157 109.858C93.8259 110.972 94.3948 112.17 94.8091 113.425C95.0383 114.107 95.1271 114.829 95.0698 115.547C94.9039 116.55 94.2096 116.631 93.959 116.638C93.6588 116.639 93.3671 116.537 93.1327 116.349C92.8598 116.112 92.6385 115.822 92.4824 115.496C92.4824 115.479 92.4824 115.465 92.5061 115.479C92.7872 115.931 93.2986 116.417 93.8608 116.437C93.9836 116.446 94.1068 116.429 94.2231 116.389C94.3395 116.349 94.4466 116.285 94.5381 116.203C94.7255 115.987 94.83 115.711 94.8328 115.424C94.8489 114.789 94.7573 114.155 94.5618 113.551Z" fill="#263238"/>
<path d="M79.708 106.489L82.7222 117.029C82.7222 117.029 63.9566 118.103 62.9169 114.683C61.8772 111.263 70.9433 100.063 74.7059 96.9758C79.0612 93.4092 79.2949 94.9086 77.8792 98.4752C76.3925 102.215 73.8355 107.543 73.8355 107.543L79.708 106.489Z" fill="#00A746"/>
<path d="M74.6959 105.721L74.6655 105.789C74.5527 105.796 74.4396 105.796 74.3268 105.789C73.8453 105.747 73.3739 105.627 72.9315 105.432C72.5583 105.271 72.1972 105.084 71.8511 104.871L71.7766 104.826L71.6615 104.755C71.2551 104.5 70.8622 104.225 70.4728 103.942C70.019 103.602 69.5685 103.279 69.1181 102.96L69.152 102.919C69.6126 103.235 70.063 103.572 70.5066 103.895C70.8961 104.174 71.289 104.449 71.692 104.701L71.8715 104.809L71.946 104.854C72.2713 105.052 72.6109 105.226 72.962 105.374C73.3992 105.56 73.8635 105.675 74.337 105.714C74.4564 105.723 74.5762 105.725 74.6959 105.721ZM77.4595 97.4179C77.3079 97.607 77.172 97.8083 77.0531 98.0197C76.8198 98.4412 76.627 98.8841 76.4773 99.3423C76.3182 99.7979 76.1827 100.26 76.0303 100.702C75.8828 101.158 75.7017 101.603 75.4884 102.032C75.2744 102.458 75.0057 102.855 74.6892 103.211C74.3668 103.564 73.9962 103.868 73.5885 104.116C73.1853 104.37 72.7487 104.567 72.2914 104.701C72.1549 104.741 72.0157 104.772 71.8748 104.792C71.8433 104.796 71.8115 104.796 71.78 104.792C71.4824 104.842 71.1804 104.859 70.8792 104.843C70.4031 104.815 69.9311 104.739 69.4703 104.616C69.0063 104.497 68.5458 104.354 68.0852 104.231L68.0547 104.269C68.522 104.398 68.986 104.544 69.4568 104.663C69.9205 104.789 70.3961 104.867 70.8758 104.894C71.2032 104.911 71.5313 104.892 71.8545 104.837L71.9494 104.82C72.0693 104.799 72.188 104.772 72.305 104.738C73.2335 104.464 74.072 103.945 74.7332 103.235C75.0563 102.877 75.3297 102.477 75.546 102.045C75.7603 101.614 75.9437 101.167 76.0946 100.709C76.247 100.253 76.3859 99.7911 76.5451 99.3491C76.6938 98.8954 76.8854 98.457 77.1174 98.0401C77.3509 97.6245 77.6533 97.252 78.0115 96.9385C78.1692 96.8022 78.338 96.6794 78.5161 96.5712C78.5161 96.5338 78.5161 96.5033 78.5398 96.4693C78.3363 96.5892 78.1436 96.7269 77.9641 96.8807C77.7809 97.0449 77.612 97.2246 77.4595 97.4179ZM79.1697 106.598H79.146C79.1732 106.808 79.1867 107.019 79.1867 107.23C79.1867 107.363 79.1867 107.492 79.1867 107.625C79.1867 107.625 79.1867 107.655 79.1867 107.672C79.1603 108.003 79.1047 108.331 79.0207 108.651C78.9033 109.116 78.722 109.563 78.4822 109.977C78.2396 110.391 77.9359 110.764 77.5814 111.086C76.8398 111.691 76.0567 112.243 75.2378 112.738C74.8373 113.004 74.4651 113.311 74.127 113.653C73.898 113.889 73.6948 114.149 73.5208 114.428L73.47 114.513C73.409 114.618 73.3514 114.724 73.3006 114.833C72.9683 115.552 72.7939 116.335 72.7892 117.128H72.8502C72.8508 116.825 72.8768 116.522 72.9281 116.223C73.0035 115.752 73.1449 115.294 73.348 114.863C73.4091 114.736 73.4769 114.612 73.5512 114.493C73.5657 114.463 73.5839 114.436 73.6054 114.411C73.7664 114.154 73.9537 113.915 74.1642 113.697C74.4988 113.356 74.8677 113.051 75.2649 112.786C76.0506 112.242 76.904 111.783 77.6119 111.123C77.9676 110.798 78.2724 110.421 78.5161 110.005C78.7574 109.587 78.9387 109.137 79.0546 108.668C79.1336 108.357 79.1857 108.04 79.2104 107.72C79.2104 107.703 79.2104 107.686 79.2104 107.672C79.2104 107.526 79.2104 107.383 79.2104 107.237C79.2089 107.021 79.1953 106.805 79.1697 106.591V106.598ZM80.3415 110.202C80.2834 109.724 80.1327 109.262 79.8979 108.842C79.6879 108.441 79.4407 108.063 79.2002 107.682L79.1731 107.642C78.9765 107.34 78.7978 107.026 78.638 106.703H78.6177C78.7818 107.042 78.9661 107.37 79.1697 107.686L79.1934 107.727C79.4271 108.097 79.6676 108.468 79.8708 108.855C80.1016 109.276 80.2488 109.738 80.3043 110.215C80.3472 110.692 80.2716 111.173 80.0841 111.613C79.8883 112.051 79.5723 112.423 79.1731 112.687C78.7748 112.944 78.3443 113.146 77.893 113.289C76.9809 113.573 76.0551 113.81 75.1193 114C74.6519 114.108 74.1846 114.221 73.7274 114.36L73.5953 114.401L73.5106 114.425C73.1235 114.545 72.7455 114.692 72.3795 114.867C71.9418 115.072 71.5404 115.348 71.1907 115.683C70.841 116.021 70.5744 116.437 70.4118 116.896L70.3813 116.988H70.4558C70.4622 116.963 70.4701 116.938 70.4795 116.913C70.6381 116.464 70.8976 116.056 71.2382 115.723C71.582 115.394 71.9765 115.123 72.4066 114.921C72.7474 114.757 73.0993 114.617 73.4598 114.503C73.4858 114.491 73.5131 114.482 73.5411 114.476L73.7443 114.411C74.2015 114.275 74.6655 114.159 75.1294 114.051C76.0679 113.858 76.9959 113.617 77.9099 113.33C78.3674 113.178 78.8025 112.965 79.2036 112.697C79.6091 112.428 79.9298 112.048 80.1282 111.603C80.3133 111.158 80.3866 110.675 80.3415 110.195V110.202Z" fill="white"/>
<path d="M67.9057 109.233C68.8432 108.791 69.8108 108.417 70.8013 108.114C71.7818 107.82 72.7824 107.599 73.7951 107.451C74.3709 107.359 74.95 107.298 75.5291 107.234C75.5494 107.234 75.5494 107.257 75.5291 107.261C74.512 107.415 73.5045 107.627 72.5116 107.897C71.5227 108.155 70.5406 108.432 69.5652 108.726C69.0098 108.893 68.4645 109.087 67.9193 109.274C67.9148 109.273 67.9106 109.271 67.9071 109.268C67.9037 109.266 67.9011 109.262 67.8997 109.258C67.8982 109.253 67.8981 109.249 67.8991 109.244C67.9002 109.24 67.9025 109.236 67.9057 109.233Z" fill="#263238"/>
<path d="M79.664 106.459C79.5692 106.459 74.3503 107.285 74.1742 107.336C74.2081 107.264 75.5289 104.769 75.7287 104.405C75.749 104.367 75.766 104.33 75.7863 104.296C75.9048 104.136 76.0233 103.98 76.1249 103.82L76.555 103.191L76.1012 103.796C76.029 103.891 75.9613 103.987 75.898 104.082C76.0301 103.824 76.1588 103.565 76.2875 103.303C76.4941 102.885 76.6837 102.464 76.8768 102.042C76.8768 102.042 76.8598 102.018 76.8531 102.042C76.4636 102.77 76.0538 103.484 75.661 104.208C75.2681 104.932 73.7848 107.608 73.7915 107.608C73.7983 107.608 79.5489 106.588 79.6742 106.557C79.6872 106.556 79.6991 106.549 79.7074 106.539C79.7157 106.529 79.7195 106.516 79.7182 106.503C79.7168 106.49 79.7104 106.478 79.7002 106.469C79.6901 106.461 79.677 106.457 79.664 106.459Z" fill="#263238"/>
<path d="M78.9459 112.888C78.6072 111.711 78.2956 110.535 77.9299 109.372C77.7199 108.692 77.5099 108.05 77.2932 107.39C77.2932 107.366 77.2424 107.39 77.2458 107.39C77.5302 108.583 77.8181 109.77 78.1568 110.957C78.4954 112.143 78.8341 113.306 79.1728 114.476C79.3715 115.142 79.5972 115.799 79.8501 116.448C79.8501 116.448 79.8772 116.448 79.8738 116.448C79.6063 115.251 79.2778 114.071 78.9459 112.888Z" fill="#263238"/>
<path d="M82.932 117.223C82.7999 116.883 82.6408 116.421 82.4951 116.098C82.4579 116.009 82.3969 116.016 82.424 116.098C82.5154 116.393 82.5798 116.72 82.6712 117.022C82.4071 117.022 82.1463 117.022 81.8821 117.046L80.9711 117.084C80.3785 117.107 79.7824 117.124 79.1897 117.138C77.9841 117.158 76.7796 117.158 75.5762 117.138C73.16 117.092 70.7478 116.922 68.349 116.628C67.6717 116.54 66.9943 116.441 66.3441 116.322C65.6872 116.214 65.0362 116.074 64.3934 115.9C64.3934 115.9 64.3663 115.924 64.3934 115.931C64.9377 116.145 65.4983 116.314 66.0698 116.438C66.6658 116.567 67.2687 116.682 67.8749 116.778C69.0805 116.965 70.293 117.087 71.5088 117.175C73.9201 117.348 76.3359 117.42 78.7562 117.393C79.4336 117.393 80.1109 117.378 80.7882 117.349L81.8042 117.308C82.1819 117.312 82.5592 117.284 82.932 117.223Z" fill="#263238"/>
<path d="M79.2476 95.4867C79.2476 95.8539 80.3956 98.4889 81.9975 98.7745C82.5191 98.8663 83.1456 96.0307 83.1456 96.0307L83.2404 95.8301L84.5511 93.0489L81.1915 89.6489C81.1915 89.6489 79.2476 95.3337 79.2476 95.4867Z" fill="#D3766A"/>
<path d="M84.541 93.0454L83.2303 95.83C82.5088 95.3541 81.8947 94.7315 81.428 94.0023C80.9613 93.2731 80.6523 92.4537 80.521 91.597C80.8597 90.611 81.134 89.7916 81.1712 89.6726C81.1727 89.667 81.1727 89.6612 81.1712 89.6556L81.6047 90.0602L84.541 93.0454Z" fill="#263238"/>
<path d="M89.936 89.9242C89.1841 95.2724 85.9058 95.4254 84.7577 95.2622C83.7146 95.1126 80.1824 94.47 80.3822 89.0708C80.582 83.6716 83.2947 82.332 85.6992 82.5462C88.1038 82.7604 90.6912 84.5726 89.936 89.9242Z" fill="#D3766A"/>
<path d="M89.2858 89.3428C89.1638 89.302 89.0622 89.2442 88.9471 89.1932C88.82 89.156 88.7083 89.0785 88.6287 88.9722C88.6106 88.9335 88.6057 88.8898 88.6149 88.848C88.6241 88.8061 88.6468 88.7685 88.6795 88.741C88.7525 88.6983 88.8355 88.6758 88.92 88.6758C89.0045 88.6758 89.0874 88.6983 89.1604 88.741C89.3237 88.8032 89.4579 88.9245 89.5364 89.081C89.5485 89.1165 89.5507 89.1547 89.5427 89.1914C89.5346 89.228 89.5167 89.2618 89.4907 89.2888C89.4648 89.3159 89.432 89.3353 89.3958 89.3448C89.3596 89.3543 89.3216 89.3537 89.2858 89.3428Z" fill="#263238"/>
<path d="M85.699 88.6289C85.8243 88.6289 85.9428 88.6289 86.0715 88.6289C86.2023 88.647 86.3354 88.6219 86.4508 88.5575C86.4825 88.5293 86.5042 88.4915 86.5128 88.4498C86.5213 88.4082 86.5162 88.3648 86.4982 88.3263C86.4509 88.2561 86.3858 88.1999 86.3096 88.1634C86.2333 88.127 86.1488 88.1116 86.0647 88.1189C85.8911 88.1086 85.7198 88.1631 85.5838 88.2719C85.5552 88.2988 85.5349 88.3333 85.5251 88.3714C85.5153 88.4095 85.5165 88.4496 85.5286 88.4871C85.5407 88.5245 85.5631 88.5577 85.5933 88.5828C85.6234 88.6079 85.6601 88.6239 85.699 88.6289Z" fill="#263238"/>
<path d="M86.3967 89.564C86.3967 89.564 86.3662 89.564 86.3628 89.5912C86.3086 89.955 86.1799 90.363 85.8345 90.4208V90.4412C86.2409 90.4616 86.4034 89.9176 86.3967 89.564Z" fill="#263238"/>
<path d="M86.1462 89.1252C85.5773 88.9722 85.3131 90.1452 85.8414 90.2744C86.3697 90.4036 86.6271 89.2544 86.1462 89.1252Z" fill="#263238"/>
<path d="M85.9055 89.149C85.7904 89.1898 85.6651 89.285 85.5431 89.268C85.4212 89.251 85.3196 89.1048 85.2553 88.9654C85.2553 88.9654 85.235 88.9654 85.2316 88.9654C85.1895 89.0673 85.1878 89.1814 85.2268 89.2844C85.2659 89.3875 85.3427 89.4716 85.4415 89.5196C85.6481 89.6012 85.8479 89.4414 85.9563 89.2306C85.9766 89.1864 85.9529 89.1184 85.9055 89.149Z" fill="#263238"/>
<path d="M88.3916 89.931C88.3916 89.931 88.4153 89.9548 88.4119 89.9684C88.3169 90.3084 88.266 90.747 88.5613 90.9442C88.5613 90.9442 88.5613 90.968 88.5613 90.9612C88.1573 90.8116 88.2286 90.2506 88.3916 89.931Z" fill="#263238"/>
<path d="M88.7838 89.6319C89.3697 89.7271 89.1225 90.8932 88.5976 90.8048C88.0726 90.7164 88.2962 89.5537 88.7838 89.6319Z" fill="#263238"/>
<path d="M89.0114 89.7577C89.0927 89.8393 89.1604 89.9685 89.2688 89.9957C89.3772 90.0229 89.5127 89.9243 89.6075 89.8189H89.6244C89.5872 90.0399 89.4652 90.2575 89.2451 90.2609C89.025 90.2643 88.9369 90.0399 88.9268 89.8087C88.9369 89.7815 88.9809 89.7271 89.0114 89.7577Z" fill="#263238"/>
<path d="M85.5974 92.6952C85.6583 92.804 85.7091 92.94 85.8344 92.9876C85.9684 93.0165 86.1069 93.0165 86.2408 92.9876C86.2408 92.9876 86.2612 92.9876 86.2408 93.008C86.1715 93.0643 86.0881 93.1003 85.9997 93.1123C85.9113 93.1243 85.8214 93.1117 85.7396 93.076C85.6727 93.0371 85.6187 92.9793 85.5843 92.9097C85.55 92.8402 85.5369 92.762 85.5466 92.685C85.5567 92.6816 85.5872 92.6816 85.5974 92.6952Z" fill="#263238"/>
<path d="M87.4292 91.6958C87.4292 91.6958 87.3852 92.25 87.331 92.505C87.331 92.5288 87.2633 92.5254 87.1752 92.505C86.9502 92.4973 86.7315 92.4276 86.5434 92.3034C86.3552 92.1793 86.2047 92.0055 86.1084 91.8012C86.1084 91.774 86.1355 91.7536 86.1524 91.774C86.4229 92.0636 86.7792 92.2579 87.1684 92.3282C87.2023 92.2636 87.2125 91.3796 87.2531 91.3864C87.4447 91.4456 87.627 91.5315 87.795 91.6414C87.9169 90.4922 87.8559 89.3328 87.9948 88.1904C87.9948 88.1813 87.9983 88.1727 88.0047 88.1663C88.011 88.1599 88.0197 88.1564 88.0286 88.1564C88.0376 88.1564 88.0462 88.1599 88.0526 88.1663C88.0589 88.1727 88.0625 88.1813 88.0625 88.1904C88.1691 89.4357 88.151 90.6887 88.0083 91.9304C87.9982 92.0664 87.5206 91.7638 87.4292 91.6958Z" fill="#263238"/>
<path d="M87.0368 92.3893C86.8596 92.5468 86.645 92.6557 86.4137 92.7055C86.2865 92.7304 86.1548 92.7137 86.0377 92.6579C85.7803 92.5355 85.821 92.2873 85.9124 92.0833C85.9615 91.9768 86.0229 91.8763 86.0953 91.7841C86.3366 92.0817 86.6666 92.2938 87.0368 92.3893Z" fill="#263238"/>
<path d="M86.4268 92.7054C86.2997 92.7303 86.1679 92.7136 86.0509 92.6578C85.7935 92.5354 85.8342 92.2872 85.9256 92.0832C86.0664 92.1158 86.1922 92.1948 86.283 92.3076C86.3739 92.4203 86.4245 92.5604 86.4268 92.7054Z" fill="#FF9BBC"/>
<path d="M80.3142 89.3565C80.6915 89.2911 81.0456 89.1291 81.3422 88.886C81.6388 88.643 81.868 88.3273 82.0075 87.9693C83.0301 87.8412 84.0002 87.4422 84.8185 86.8133C84.7507 86.9085 84.2732 87.6089 84.0192 87.9557C87.4838 88.3195 89.2448 86.0993 89.2448 86.0993C89.7007 86.866 89.9785 87.726 90.0576 88.6153C90.0576 88.6153 90.6808 86.6025 90.0576 84.9399C89.8616 84.369 89.5176 83.8609 89.0611 83.4677C88.6045 83.0745 88.0519 82.8105 87.4601 82.7027C86.7071 82.2637 85.8503 82.0364 84.9796 82.0448C84.1089 82.0532 83.2566 82.2969 82.5121 82.7503C79.6944 84.4469 80.3142 89.3565 80.3142 89.3565Z" fill="#263238"/>
<path d="M86.6981 88.1563C86.0852 88.2874 85.4565 88.3275 84.832 88.2753C85.8299 88.2989 86.8144 88.0409 87.6734 87.5307C88.0436 87.314 88.385 87.0513 88.6894 86.7487C89.0308 86.431 89.3059 86.0485 89.4989 85.6233C89.5011 85.617 89.5057 85.6118 89.5118 85.6089C89.5148 85.6075 89.518 85.6067 89.5213 85.6065C89.5246 85.6064 89.5279 85.6068 89.531 85.608C89.5341 85.6091 89.537 85.6108 89.5395 85.613C89.5419 85.6153 89.5439 85.6179 89.5453 85.6209C89.5467 85.6239 89.5475 85.6272 89.5477 85.6305C89.5479 85.6338 89.5474 85.6371 89.5463 85.6403C89.4016 86.0816 89.1841 86.4954 88.9028 86.8643C88.6074 87.2172 88.2505 87.5133 87.8495 87.7381C87.4918 87.933 87.1088 88.0772 86.7116 88.1665" fill="#263238"/>
<path d="M81.1711 89.6013C81.1711 89.6013 80.4023 87.6939 79.5658 87.9319C78.7293 88.1699 79.0409 90.7505 79.8401 91.2775C79.9378 91.3519 80.0493 91.4057 80.1682 91.4358C80.2871 91.4659 80.4108 91.4716 80.5319 91.4525C80.653 91.4335 80.769 91.3901 80.873 91.325C80.9771 91.2598 81.0669 91.1743 81.1372 91.0735L81.1711 89.6013Z" fill="#D3766A"/>
<path d="M79.6741 88.6697C79.6741 88.6697 79.6538 88.6697 79.6741 88.6901C80.2295 89.0811 80.4191 89.7101 80.5072 90.3663C80.4858 90.2967 80.4496 90.2326 80.4011 90.1784C80.3526 90.1243 80.2929 90.0813 80.2263 90.0525C80.1596 90.0238 80.0875 90.0099 80.015 90.0118C79.9425 90.0137 79.8712 90.0314 79.8061 90.0637C79.7892 90.0637 79.8061 90.1011 79.8061 90.1011C79.9226 90.092 80.0389 90.1199 80.1386 90.181C80.2383 90.242 80.3163 90.333 80.3616 90.4411C80.4405 90.6188 80.4995 90.8046 80.5377 90.9953C80.5546 91.0565 80.6596 91.0497 80.6528 90.9953V90.9783C80.8459 90.1691 80.4936 88.9417 79.6741 88.6697Z" fill="#263238"/>
<path d="M108.992 119.481H86.8335V120.477H108.992V119.481Z" fill="#C7C7C7"/>
<path d="M108.993 119.481V120.477H93.9321L94.6907 119.481H108.993Z" fill="#A6A6A6"/>
<path d="M95.6455 120.477H117.242L119.041 105.751H97.4438L95.6455 120.477Z" fill="#C7C7C7"/>
<path d="M106.029 113.116C106.025 113.288 106.056 113.459 106.119 113.619C106.183 113.779 106.277 113.925 106.398 114.048C106.518 114.171 106.661 114.269 106.82 114.335C106.978 114.401 107.148 114.435 107.319 114.435C107.669 114.431 108.003 114.291 108.252 114.045C108.502 113.799 108.647 113.466 108.657 113.116C108.661 112.943 108.631 112.772 108.568 112.612C108.505 112.451 108.41 112.305 108.29 112.182C108.169 112.059 108.026 111.962 107.867 111.895C107.709 111.829 107.539 111.795 107.367 111.796C107.017 111.801 106.683 111.94 106.434 112.186C106.185 112.432 106.04 112.765 106.029 113.116Z" fill="white"/>
<path d="M110.155 79.3911C110 80.8862 109.434 82.3085 108.52 83.4994C107.606 84.6902 106.381 85.6026 104.981 86.1348C103.581 86.667 102.06 86.798 100.59 86.5132C99.1202 86.2283 97.7579 85.5388 96.6555 84.5217L92.6118 85.1201L94.6438 81.6113C94.1794 80.4693 93.9805 79.236 94.0623 78.0051C94.1441 76.7743 94.5044 75.5785 95.1158 74.5085C95.7272 73.4385 96.5736 72.5226 97.5906 71.8304C98.6076 71.1382 99.7685 70.6879 100.985 70.5139C102.201 70.3398 103.441 70.4466 104.61 70.826C105.78 71.2054 106.847 71.8475 107.732 72.7034C108.617 73.5593 109.295 74.6066 109.716 75.7654C110.137 76.9243 110.29 78.1643 110.162 79.3911H110.155Z" fill="white"/>
<path d="M107.797 72.6319C106.446 71.3124 104.685 70.4974 102.807 70.3228C100.93 70.1482 99.0497 70.6244 97.4795 71.6721C95.9093 72.7198 94.744 74.2759 94.1774 76.0812C93.6109 77.8865 93.6775 79.8322 94.3659 81.5943L92.2662 85.2629C92.2588 85.2771 92.2549 85.2928 92.2549 85.3088C92.2549 85.3248 92.2588 85.3405 92.2662 85.3547C92.2753 85.3682 92.2882 85.3787 92.3033 85.3847C92.3184 85.3908 92.335 85.3922 92.3508 85.3887L96.5909 84.7291C97.713 85.7268 99.0856 86.397 100.56 86.6671C100.931 86.7363 101.307 86.7761 101.684 86.7861C101.8 86.7861 101.915 86.7861 102.023 86.7861C102.226 86.7861 102.426 86.7861 102.623 86.7623H102.822C103.575 86.6939 104.314 86.5176 105.017 86.2387C105.721 85.9673 106.383 85.5976 106.985 85.1405C107.205 84.9819 107.415 84.8081 107.611 84.6203L107.852 84.3993L108.075 84.1579C108.261 83.9684 108.432 83.7649 108.587 83.5493C109.509 82.3443 110.08 80.906 110.236 79.3945C110.361 78.1558 110.207 76.9046 109.785 75.7339C109.363 74.5631 108.684 73.5029 107.797 72.6319ZM110.066 79.3843C109.906 80.862 109.338 82.2654 108.427 83.4371C108.274 83.6447 108.107 83.8412 107.926 84.0253C107.848 84.1035 107.774 84.1851 107.706 84.2599L107.469 84.4707C107.278 84.6527 107.073 84.8198 106.856 84.9705C106.268 85.4121 105.619 85.7639 104.929 86.0143C104.244 86.2683 103.527 86.4273 102.799 86.4869H102.602C102.301 86.509 101.999 86.509 101.698 86.4869C101.335 86.4723 100.974 86.428 100.618 86.3543C99.1844 86.0706 97.8587 85.3899 96.7908 84.3891L96.7535 84.3517C96.7375 84.3375 96.7172 84.3291 96.6959 84.3279L93.0587 84.8413L94.8976 81.6793C94.9036 81.6677 94.9067 81.6549 94.9067 81.6419C94.9067 81.6289 94.9036 81.6161 94.8976 81.6045L94.8705 81.5331C94.4266 80.4245 94.2345 79.2304 94.3083 78.0379C94.3839 76.8415 94.7314 75.6784 95.3243 74.6379C95.9239 73.6003 96.7408 72.7058 97.7187 72.0165C98.7051 71.3346 99.8331 70.887 101.017 70.7075C102.208 70.5263 103.423 70.6182 104.573 70.9761C106.312 71.5301 107.808 72.6687 108.808 74.2001C109.809 75.7316 110.253 77.5624 110.066 79.3843Z" fill="#263238"/>
<path d="M98.9959 78.871C98.9966 79.046 98.9455 79.2172 98.8492 79.363C98.7528 79.5089 98.6155 79.6227 98.4547 79.6901C98.2939 79.7575 98.1167 79.7755 97.9457 79.7418C97.7747 79.7081 97.6175 79.6242 97.494 79.5007C97.3705 79.3772 97.2863 79.2197 97.252 79.0481C97.2178 78.8765 97.235 78.6986 97.3016 78.5369C97.3681 78.3752 97.481 78.2369 97.6258 78.1396C97.7707 78.0423 97.9411 77.9904 98.1154 77.9904C98.3483 77.9904 98.5718 78.0831 98.7368 78.2481C98.9019 78.4132 98.995 78.6371 98.9959 78.871Z" fill="#263238"/>
<path d="M102.217 79.7516C102.701 79.7516 103.094 79.3573 103.094 78.871C103.094 78.3846 102.701 77.9904 102.217 77.9904C101.732 77.9904 101.339 78.3846 101.339 78.871C101.339 79.3573 101.732 79.7516 102.217 79.7516Z" fill="#263238"/>
<path d="M106.318 79.7515C106.802 79.7515 107.195 79.3572 107.195 78.8709C107.195 78.3845 106.802 77.9903 106.318 77.9903C105.833 77.9903 105.44 78.3845 105.44 78.8709C105.44 79.3572 105.833 79.7515 106.318 79.7515Z" fill="#263238"/>
</svg>
