<svg width="185" height="73" viewBox="0 0 185 73" fill="none" xmlns="http://www.w3.org/2000/svg">
<g filter="url(#filter0_d_590_698)">
<rect y="0.833496" width="178" height="65" rx="10" fill="#B0E4C6" shape-rendering="crispEdges"/>
<g clip-path="url(#clip0_590_698)">
<path d="M30.2743 32.7751L20.0913 43.3033C20.2057 43.7033 20.4112 44.0721 20.6921 44.3816C20.973 44.6911 21.322 44.9332 21.7122 45.0893C22.1025 45.2453 22.5237 45.3113 22.9437 45.282C23.3638 45.2528 23.7715 45.1292 24.1357 44.9207L35.5935 38.481L30.2743 32.7751Z" fill="#EA4335"/>
<path d="M40.571 30.9857L35.6162 28.1851L30.0391 33.0147L35.6389 38.466L40.5559 35.6954C40.9915 35.4704 41.3564 35.1319 41.6109 34.7168C41.8655 34.3017 42.0001 33.8257 42.0001 33.3405C42.0001 32.8553 41.8655 32.3793 41.6109 31.9642C41.3564 31.5491 40.9915 31.2107 40.5559 30.9856L40.571 30.9857Z" fill="#FBBC04"/>
<path d="M20.0911 23.3257C20.0296 23.5502 19.9989 23.7819 20 24.0146V42.6147C20.0007 42.8473 20.0313 43.0788 20.0911 43.3037L30.6232 33.0451L20.0911 23.3257Z" fill="#4285F4"/>
<path d="M30.3502 33.3143L35.6163 28.185L24.1737 21.7154C23.7432 21.4666 23.2535 21.3348 22.7546 21.3335C21.5165 21.3311 20.428 22.142 20.0913 23.3179L30.3502 33.3143Z" fill="#34A853"/>
</g>
<path d="M58.936 19.3935C58.72 18.9775 58.42 18.6655 58.036 18.4575C57.652 18.2415 57.208 18.1335 56.704 18.1335C56.152 18.1335 55.66 18.2575 55.228 18.5055C54.796 18.7535 54.456 19.1055 54.208 19.5615C53.968 20.0175 53.848 20.5455 53.848 21.1455C53.848 21.7455 53.968 22.2775 54.208 22.7415C54.456 23.1975 54.796 23.5495 55.228 23.7975C55.66 24.0455 56.152 24.1695 56.704 24.1695C57.448 24.1695 58.052 23.9615 58.516 23.5455C58.98 23.1295 59.264 22.5655 59.368 21.8535H56.236V20.7615H60.832V21.8295C60.744 22.4775 60.512 23.0735 60.136 23.6175C59.768 24.1615 59.284 24.5975 58.684 24.9255C58.092 25.2455 57.432 25.4055 56.704 25.4055C55.92 25.4055 55.204 25.2255 54.556 24.8655C53.908 24.4975 53.392 23.9895 53.008 23.3415C52.632 22.6935 52.444 21.9615 52.444 21.1455C52.444 20.3295 52.632 19.5975 53.008 18.9495C53.392 18.3015 53.908 17.7975 54.556 17.4375C55.212 17.0695 55.928 16.8855 56.704 16.8855C57.592 16.8855 58.38 17.1055 59.068 17.5455C59.764 17.9775 60.268 18.5935 60.58 19.3935H58.936ZM68.8413 21.8655C68.8413 22.1135 68.8253 22.3375 68.7933 22.5375H63.7413C63.7813 23.0655 63.9773 23.4895 64.3293 23.8095C64.6813 24.1295 65.1133 24.2895 65.6253 24.2895C66.3613 24.2895 66.8813 23.9815 67.1853 23.3655H68.6613C68.4613 23.9735 68.0973 24.4735 67.5693 24.8655C67.0493 25.2495 66.4013 25.4415 65.6253 25.4415C64.9933 25.4415 64.4253 25.3015 63.9213 25.0215C63.4253 24.7335 63.0333 24.3335 62.7453 23.8215C62.4653 23.3015 62.3253 22.7015 62.3253 22.0215C62.3253 21.3415 62.4613 20.7455 62.7333 20.2335C63.0133 19.7135 63.4013 19.3135 63.8973 19.0335C64.4013 18.7535 64.9773 18.6135 65.6253 18.6135C66.2493 18.6135 66.8053 18.7495 67.2933 19.0215C67.7813 19.2935 68.1613 19.6775 68.4333 20.1735C68.7053 20.6615 68.8413 21.2255 68.8413 21.8655ZM67.4133 21.4335C67.4053 20.9295 67.2253 20.5255 66.8733 20.2215C66.5213 19.9175 66.0853 19.7655 65.5653 19.7655C65.0933 19.7655 64.6893 19.9175 64.3533 20.2215C64.0173 20.5175 63.8173 20.9215 63.7533 21.4335H67.4133ZM72.3835 19.8375V23.4975C72.3835 23.7455 72.4395 23.9255 72.5515 24.0375C72.6715 24.1415 72.8715 24.1935 73.1515 24.1935H73.9915V25.3335H72.9115C72.2955 25.3335 71.8235 25.1895 71.4955 24.9015C71.1675 24.6135 71.0035 24.1455 71.0035 23.4975V19.8375H70.2235V18.7215H71.0035V17.0775H72.3835V18.7215H73.9915V19.8375H72.3835ZM80.2655 17.8455C80.0175 17.8455 79.8095 17.7615 79.6415 17.5935C79.4735 17.4255 79.3895 17.2175 79.3895 16.9695C79.3895 16.7215 79.4735 16.5135 79.6415 16.3455C79.8095 16.1775 80.0175 16.0935 80.2655 16.0935C80.5055 16.0935 80.7095 16.1775 80.8775 16.3455C81.0455 16.5135 81.1295 16.7215 81.1295 16.9695C81.1295 17.2175 81.0455 17.4255 80.8775 17.5935C80.7095 17.7615 80.5055 17.8455 80.2655 17.8455ZM80.9375 18.7215V25.3335H79.5695V18.7215H80.9375ZM84.9296 19.8375V23.4975C84.9296 23.7455 84.9856 23.9255 85.0976 24.0375C85.2176 24.1415 85.4176 24.1935 85.6976 24.1935H86.5376V25.3335H85.4576C84.8416 25.3335 84.3696 25.1895 84.0416 24.9015C83.7136 24.6135 83.5496 24.1455 83.5496 23.4975V19.8375H82.7696V18.7215H83.5496V17.0775H84.9296V18.7215H86.5376V19.8375H84.9296ZM94.8876 19.8375H93.6636V25.3335H92.2836V19.8375H91.5036V18.7215H92.2836V18.2535C92.2836 17.4935 92.4836 16.9415 92.8836 16.5975C93.2916 16.2455 93.9276 16.0695 94.7916 16.0695V17.2095C94.3756 17.2095 94.0836 17.2895 93.9156 17.4495C93.7476 17.6015 93.6636 17.8695 93.6636 18.2535V18.7215H94.8876V19.8375ZM98.068 19.6815C98.268 19.3455 98.532 19.0855 98.86 18.9015C99.196 18.7095 99.592 18.6135 100.048 18.6135V20.0295H99.7C99.164 20.0295 98.756 20.1655 98.476 20.4375C98.204 20.7095 98.068 21.1815 98.068 21.8535V25.3335H96.7V18.7215H98.068V19.6815ZM104.773 25.4415C104.149 25.4415 103.585 25.3015 103.081 25.0215C102.577 24.7335 102.181 24.3335 101.893 23.8215C101.605 23.3015 101.461 22.7015 101.461 22.0215C101.461 21.3495 101.609 20.7535 101.905 20.2335C102.201 19.7135 102.605 19.3135 103.117 19.0335C103.629 18.7535 104.201 18.6135 104.833 18.6135C105.465 18.6135 106.037 18.7535 106.549 19.0335C107.061 19.3135 107.465 19.7135 107.761 20.2335C108.057 20.7535 108.205 21.3495 108.205 22.0215C108.205 22.6935 108.053 23.2895 107.749 23.8095C107.445 24.3295 107.029 24.7335 106.501 25.0215C105.981 25.3015 105.405 25.4415 104.773 25.4415ZM104.773 24.2535C105.125 24.2535 105.453 24.1695 105.757 24.0015C106.069 23.8335 106.321 23.5815 106.513 23.2455C106.705 22.9095 106.801 22.5015 106.801 22.0215C106.801 21.5415 106.709 21.1375 106.525 20.8095C106.341 20.4735 106.097 20.2215 105.793 20.0535C105.489 19.8855 105.161 19.8015 104.809 19.8015C104.457 19.8015 104.129 19.8855 103.825 20.0535C103.529 20.2215 103.293 20.4735 103.117 20.8095C102.941 21.1375 102.853 21.5415 102.853 22.0215C102.853 22.7335 103.033 23.2855 103.393 23.6775C103.761 24.0615 104.221 24.2535 104.773 24.2535ZM118.162 18.6135C118.682 18.6135 119.146 18.7215 119.554 18.9375C119.97 19.1535 120.294 19.4735 120.526 19.8975C120.766 20.3215 120.886 20.8335 120.886 21.4335V25.3335H119.53V21.6375C119.53 21.0455 119.382 20.5935 119.086 20.2815C118.79 19.9615 118.386 19.8015 117.874 19.8015C117.362 19.8015 116.954 19.9615 116.65 20.2815C116.354 20.5935 116.206 21.0455 116.206 21.6375V25.3335H114.85V21.6375C114.85 21.0455 114.702 20.5935 114.406 20.2815C114.11 19.9615 113.706 19.8015 113.194 19.8015C112.682 19.8015 112.274 19.9615 111.97 20.2815C111.674 20.5935 111.526 21.0455 111.526 21.6375V25.3335H110.158V18.7215H111.526V19.4775C111.75 19.2055 112.034 18.9935 112.378 18.8415C112.722 18.6895 113.09 18.6135 113.482 18.6135C114.01 18.6135 114.482 18.7255 114.898 18.9495C115.314 19.1735 115.634 19.4975 115.858 19.9215C116.058 19.5215 116.37 19.2055 116.794 18.9735C117.218 18.7335 117.674 18.6135 118.162 18.6135Z" fill="#707070"/>
<path d="M60.88 40.5255C60.624 40.0562 60.272 39.6988 59.824 39.4535C59.376 39.2082 58.8533 39.0855 58.256 39.0855C57.5947 39.0855 57.008 39.2348 56.496 39.5335C55.984 39.8322 55.584 40.2588 55.296 40.8135C55.008 41.3682 54.864 42.0082 54.864 42.7335C54.864 43.4802 55.008 44.1308 55.296 44.6855C55.5947 45.2402 56.0053 45.6668 56.528 45.9655C57.0507 46.2642 57.6587 46.4135 58.352 46.4135C59.2053 46.4135 59.904 46.1895 60.448 45.7415C60.992 45.2828 61.3493 44.6482 61.52 43.8375H57.68V42.1255H63.728V44.0775C63.5787 44.8562 63.2587 45.5762 62.768 46.2375C62.2773 46.8988 61.6427 47.4322 60.864 47.8375C60.096 48.2322 59.232 48.4295 58.272 48.4295C57.1947 48.4295 56.2187 48.1895 55.344 47.7095C54.48 47.2188 53.7973 46.5415 53.296 45.6775C52.8053 44.8135 52.56 43.8322 52.56 42.7335C52.56 41.6348 52.8053 40.6535 53.296 39.7895C53.7973 38.9148 54.48 38.2375 55.344 37.7575C56.2187 37.2668 57.1893 37.0215 58.256 37.0215C59.5147 37.0215 60.608 37.3308 61.536 37.9495C62.464 38.5575 63.104 39.4162 63.456 40.5255H60.88ZM70.1213 48.4775C69.2679 48.4775 68.4999 48.2908 67.8173 47.9175C67.1346 47.5335 66.5959 46.9948 66.2013 46.3015C65.8173 45.6082 65.6253 44.8082 65.6253 43.9015C65.6253 42.9948 65.8226 42.1948 66.2173 41.5015C66.6226 40.8082 67.1719 40.2748 67.8653 39.9015C68.5586 39.5175 69.3319 39.3255 70.1853 39.3255C71.0386 39.3255 71.8119 39.5175 72.5053 39.9015C73.1986 40.2748 73.7426 40.8082 74.1373 41.5015C74.5426 42.1948 74.7453 42.9948 74.7453 43.9015C74.7453 44.8082 74.5373 45.6082 74.1213 46.3015C73.7159 46.9948 73.1613 47.5335 72.4573 47.9175C71.7639 48.2908 70.9853 48.4775 70.1213 48.4775ZM70.1213 46.5255C70.5266 46.5255 70.9053 46.4295 71.2573 46.2375C71.6199 46.0348 71.9079 45.7362 72.1213 45.3415C72.3346 44.9468 72.4413 44.4668 72.4413 43.9015C72.4413 43.0588 72.2173 42.4135 71.7693 41.9655C71.3319 41.5068 70.7933 41.2775 70.1533 41.2775C69.5133 41.2775 68.9746 41.5068 68.5373 41.9655C68.1106 42.4135 67.8973 43.0588 67.8973 43.9015C67.8973 44.7442 68.1053 45.3948 68.5213 45.8535C68.9479 46.3015 69.4813 46.5255 70.1213 46.5255ZM81.1244 48.4775C80.271 48.4775 79.503 48.2908 78.8204 47.9175C78.1377 47.5335 77.599 46.9948 77.2044 46.3015C76.8204 45.6082 76.6284 44.8082 76.6284 43.9015C76.6284 42.9948 76.8257 42.1948 77.2204 41.5015C77.6257 40.8082 78.175 40.2748 78.8684 39.9015C79.5617 39.5175 80.335 39.3255 81.1884 39.3255C82.0417 39.3255 82.815 39.5175 83.5084 39.9015C84.2017 40.2748 84.7457 40.8082 85.1404 41.5015C85.5457 42.1948 85.7484 42.9948 85.7484 43.9015C85.7484 44.8082 85.5404 45.6082 85.1244 46.3015C84.719 46.9948 84.1644 47.5335 83.4604 47.9175C82.767 48.2908 81.9884 48.4775 81.1244 48.4775ZM81.1244 46.5255C81.5297 46.5255 81.9084 46.4295 82.2604 46.2375C82.623 46.0348 82.911 45.7362 83.1244 45.3415C83.3377 44.9468 83.4444 44.4668 83.4444 43.9015C83.4444 43.0588 83.2204 42.4135 82.7724 41.9655C82.335 41.5068 81.7964 41.2775 81.1564 41.2775C80.5164 41.2775 79.9777 41.5068 79.5404 41.9655C79.1137 42.4135 78.9004 43.0588 78.9004 43.9015C78.9004 44.7442 79.1084 45.3948 79.5244 45.8535C79.951 46.3015 80.4844 46.5255 81.1244 46.5255ZM91.6635 39.3255C92.3248 39.3255 92.9062 39.4588 93.4075 39.7255C93.9088 39.9815 94.3035 40.3175 94.5915 40.7335V39.4695H96.8475V48.3975C96.8475 49.2188 96.6822 49.9495 96.3515 50.5895C96.0208 51.2402 95.5248 51.7522 94.8635 52.1255C94.2022 52.5095 93.4022 52.7015 92.4635 52.7015C91.2048 52.7015 90.1702 52.4082 89.3595 51.8215C88.5595 51.2348 88.1062 50.4348 87.9995 49.4215H90.2235C90.3408 49.8268 90.5915 50.1468 90.9755 50.3815C91.3702 50.6268 91.8448 50.7495 92.3995 50.7495C93.0502 50.7495 93.5782 50.5522 93.9835 50.1575C94.3888 49.7735 94.5915 49.1868 94.5915 48.3975V47.0215C94.3035 47.4375 93.9035 47.7842 93.3915 48.0615C92.8902 48.3388 92.3142 48.4775 91.6635 48.4775C90.9168 48.4775 90.2342 48.2855 89.6155 47.9015C88.9968 47.5175 88.5062 46.9788 88.1435 46.2855C87.7915 45.5815 87.6155 44.7762 87.6155 43.8695C87.6155 42.9735 87.7915 42.1788 88.1435 41.4855C88.5062 40.7922 88.9915 40.2588 89.5995 39.8855C90.2182 39.5122 90.9062 39.3255 91.6635 39.3255ZM94.5915 43.9015C94.5915 43.3575 94.4848 42.8935 94.2715 42.5095C94.0582 42.1148 93.7702 41.8162 93.4075 41.6135C93.0448 41.4002 92.6555 41.2935 92.2395 41.2935C91.8235 41.2935 91.4395 41.3948 91.0875 41.5975C90.7355 41.8002 90.4475 42.0988 90.2235 42.4935C90.0102 42.8775 89.9035 43.3362 89.9035 43.8695C89.9035 44.4028 90.0102 44.8722 90.2235 45.2775C90.4475 45.6722 90.7355 45.9762 91.0875 46.1895C91.4502 46.4028 91.8342 46.5095 92.2395 46.5095C92.6555 46.5095 93.0448 46.4082 93.4075 46.2055C93.7702 45.9922 94.0582 45.6935 94.2715 45.3095C94.4848 44.9148 94.5915 44.4455 94.5915 43.9015ZM102.075 36.4935V48.3335H99.8353V36.4935H102.075ZM113.328 43.7095C113.328 44.0295 113.307 44.3175 113.264 44.5735H106.784C106.838 45.2135 107.062 45.7148 107.456 46.0775C107.851 46.4402 108.336 46.6215 108.912 46.6215C109.744 46.6215 110.336 46.2642 110.688 45.5495H113.104C112.848 46.4028 112.358 47.1068 111.632 47.6615C110.907 48.2055 110.016 48.4775 108.96 48.4775C108.107 48.4775 107.339 48.2908 106.656 47.9175C105.984 47.5335 105.456 46.9948 105.072 46.3015C104.699 45.6082 104.512 44.8082 104.512 43.9015C104.512 42.9842 104.699 42.1788 105.072 41.4855C105.446 40.7922 105.968 40.2588 106.64 39.8855C107.312 39.5122 108.086 39.3255 108.96 39.3255C109.803 39.3255 110.555 39.5068 111.216 39.8695C111.888 40.2322 112.406 40.7495 112.768 41.4215C113.142 42.0828 113.328 42.8455 113.328 43.7095ZM111.008 43.0695C110.998 42.4935 110.79 42.0348 110.384 41.6935C109.979 41.3415 109.483 41.1655 108.896 41.1655C108.342 41.1655 107.872 41.3362 107.488 41.6775C107.115 42.0082 106.886 42.4722 106.8 43.0695H111.008ZM128.52 40.6215C128.52 41.2188 128.376 41.7788 128.088 42.3015C127.811 42.8242 127.368 43.2455 126.76 43.5655C126.163 43.8855 125.405 44.0455 124.488 44.0455H122.616V48.3335H120.376V37.1655H124.488C125.352 37.1655 126.088 37.3148 126.696 37.6135C127.304 37.9122 127.757 38.3228 128.056 38.8455C128.365 39.3682 128.52 39.9602 128.52 40.6215ZM124.392 42.2375C125.011 42.2375 125.469 42.0988 125.768 41.8215C126.067 41.5335 126.216 41.1335 126.216 40.6215C126.216 39.5335 125.608 38.9895 124.392 38.9895H122.616V42.2375H124.392ZM133.15 36.4935V48.3335H130.91V36.4935H133.15ZM135.587 43.8695C135.587 42.9735 135.763 42.1788 136.115 41.4855C136.478 40.7922 136.963 40.2588 137.571 39.8855C138.19 39.5122 138.878 39.3255 139.635 39.3255C140.297 39.3255 140.873 39.4588 141.363 39.7255C141.865 39.9922 142.265 40.3282 142.563 40.7335V39.4695H144.819V48.3335H142.563V47.0375C142.275 47.4535 141.875 47.8002 141.363 48.0775C140.862 48.3442 140.281 48.4775 139.619 48.4775C138.873 48.4775 138.19 48.2855 137.571 47.9015C136.963 47.5175 136.478 46.9788 136.115 46.2855C135.763 45.5815 135.587 44.7762 135.587 43.8695ZM142.563 43.9015C142.563 43.3575 142.457 42.8935 142.243 42.5095C142.03 42.1148 141.742 41.8162 141.379 41.6135C141.017 41.4002 140.627 41.2935 140.211 41.2935C139.795 41.2935 139.411 41.3948 139.059 41.5975C138.707 41.8002 138.419 42.0988 138.195 42.4935C137.982 42.8775 137.875 43.3362 137.875 43.8695C137.875 44.4028 137.982 44.8722 138.195 45.2775C138.419 45.6722 138.707 45.9762 139.059 46.1895C139.422 46.4028 139.806 46.5095 140.211 46.5095C140.627 46.5095 141.017 46.4082 141.379 46.2055C141.742 45.9922 142.03 45.6935 142.243 45.3095C142.457 44.9148 142.563 44.4455 142.563 43.9015ZM156.287 39.4695L150.799 52.5255H148.415L150.335 48.1095L146.783 39.4695H149.295L151.583 45.6615L153.903 39.4695H156.287Z" fill="#152934"/>
</g>
<defs>
<filter id="filter0_d_590_698" x="0" y="0.833496" width="184.667" height="71.6667" filterUnits="userSpaceOnUse" color-interpolation-filters="sRGB">
<feFlood flood-opacity="0" result="BackgroundImageFix"/>
<feColorMatrix in="SourceAlpha" type="matrix" values="0 0 0 0 0 0 0 0 0 0 0 0 0 0 0 0 0 0 127 0" result="hardAlpha"/>
<feOffset dx="3.33333" dy="3.33333"/>
<feGaussianBlur stdDeviation="1.66667"/>
<feComposite in2="hardAlpha" operator="out"/>
<feColorMatrix type="matrix" values="0 0 0 0 0 0 0 0 0 0.654902 0 0 0 0 0.27451 0 0 0 0.25 0"/>
<feBlend mode="normal" in2="BackgroundImageFix" result="effect1_dropShadow_590_698"/>
<feBlend mode="normal" in="SourceGraphic" in2="effect1_dropShadow_590_698" result="shape"/>
</filter>
<clipPath id="clip0_590_698">
<rect width="22" height="24" fill="white" transform="translate(20 21.3335)"/>
</clipPath>
</defs>
</svg>
