<svg width="185" height="73" viewBox="0 0 185 73" fill="none" xmlns="http://www.w3.org/2000/svg">
<g filter="url(#filter0_d_590_708)">
<rect y="0.833496" width="178" height="65" rx="10" fill="#B0E4C6" shape-rendering="crispEdges"/>
<path d="M37.0502 41.6135C36.0702 42.5635 35.0002 42.4135 33.9702 41.9635C32.8802 41.5035 31.8802 41.4835 30.7302 41.9635C29.2902 42.5835 28.5302 42.4035 27.6702 41.6135C22.7902 36.5835 23.5102 28.9235 29.0502 28.6435C30.4002 28.7135 31.3402 29.3835 32.1302 29.4435C33.3102 29.2035 34.4402 28.5135 35.7002 28.6035C37.2102 28.7235 38.3502 29.3235 39.1002 30.4035C35.9802 32.2735 36.7202 36.3835 39.5802 37.5335C39.0102 39.0335 38.2702 40.5235 37.0402 41.6235L37.0502 41.6135ZM32.0302 28.5835C31.8802 26.3535 33.6902 24.5135 35.7702 24.3335C36.0602 26.9135 33.4302 28.8335 32.0302 28.5835Z" fill="black"/>
<path d="M60.936 19.3935C60.72 18.9775 60.42 18.6655 60.036 18.4575C59.652 18.2415 59.208 18.1335 58.704 18.1335C58.152 18.1335 57.66 18.2575 57.228 18.5055C56.796 18.7535 56.456 19.1055 56.208 19.5615C55.968 20.0175 55.848 20.5455 55.848 21.1455C55.848 21.7455 55.968 22.2775 56.208 22.7415C56.456 23.1975 56.796 23.5495 57.228 23.7975C57.66 24.0455 58.152 24.1695 58.704 24.1695C59.448 24.1695 60.052 23.9615 60.516 23.5455C60.98 23.1295 61.264 22.5655 61.368 21.8535H58.236V20.7615H62.832V21.8295C62.744 22.4775 62.512 23.0735 62.136 23.6175C61.768 24.1615 61.284 24.5975 60.684 24.9255C60.092 25.2455 59.432 25.4055 58.704 25.4055C57.92 25.4055 57.204 25.2255 56.556 24.8655C55.908 24.4975 55.392 23.9895 55.008 23.3415C54.632 22.6935 54.444 21.9615 54.444 21.1455C54.444 20.3295 54.632 19.5975 55.008 18.9495C55.392 18.3015 55.908 17.7975 56.556 17.4375C57.212 17.0695 57.928 16.8855 58.704 16.8855C59.592 16.8855 60.38 17.1055 61.068 17.5455C61.764 17.9775 62.268 18.5935 62.58 19.3935H60.936ZM70.8413 21.8655C70.8413 22.1135 70.8253 22.3375 70.7933 22.5375H65.7413C65.7813 23.0655 65.9773 23.4895 66.3293 23.8095C66.6813 24.1295 67.1133 24.2895 67.6253 24.2895C68.3613 24.2895 68.8813 23.9815 69.1853 23.3655H70.6613C70.4613 23.9735 70.0973 24.4735 69.5693 24.8655C69.0493 25.2495 68.4013 25.4415 67.6253 25.4415C66.9933 25.4415 66.4253 25.3015 65.9213 25.0215C65.4253 24.7335 65.0333 24.3335 64.7453 23.8215C64.4653 23.3015 64.3253 22.7015 64.3253 22.0215C64.3253 21.3415 64.4613 20.7455 64.7333 20.2335C65.0133 19.7135 65.4013 19.3135 65.8973 19.0335C66.4013 18.7535 66.9773 18.6135 67.6253 18.6135C68.2493 18.6135 68.8053 18.7495 69.2933 19.0215C69.7813 19.2935 70.1613 19.6775 70.4333 20.1735C70.7053 20.6615 70.8413 21.2255 70.8413 21.8655ZM69.4133 21.4335C69.4053 20.9295 69.2253 20.5255 68.8733 20.2215C68.5213 19.9175 68.0853 19.7655 67.5653 19.7655C67.0933 19.7655 66.6893 19.9175 66.3533 20.2215C66.0173 20.5175 65.8173 20.9215 65.7533 21.4335H69.4133ZM74.3835 19.8375V23.4975C74.3835 23.7455 74.4395 23.9255 74.5515 24.0375C74.6715 24.1415 74.8715 24.1935 75.1515 24.1935H75.9915V25.3335H74.9115C74.2955 25.3335 73.8235 25.1895 73.4955 24.9015C73.1675 24.6135 73.0035 24.1455 73.0035 23.4975V19.8375H72.2235V18.7215H73.0035V17.0775H74.3835V18.7215H75.9915V19.8375H74.3835ZM82.2655 17.8455C82.0175 17.8455 81.8095 17.7615 81.6415 17.5935C81.4735 17.4255 81.3895 17.2175 81.3895 16.9695C81.3895 16.7215 81.4735 16.5135 81.6415 16.3455C81.8095 16.1775 82.0175 16.0935 82.2655 16.0935C82.5055 16.0935 82.7095 16.1775 82.8775 16.3455C83.0455 16.5135 83.1295 16.7215 83.1295 16.9695C83.1295 17.2175 83.0455 17.4255 82.8775 17.5935C82.7095 17.7615 82.5055 17.8455 82.2655 17.8455ZM82.9375 18.7215V25.3335H81.5695V18.7215H82.9375ZM86.9296 19.8375V23.4975C86.9296 23.7455 86.9856 23.9255 87.0976 24.0375C87.2176 24.1415 87.4176 24.1935 87.6976 24.1935H88.5376V25.3335H87.4576C86.8416 25.3335 86.3696 25.1895 86.0416 24.9015C85.7136 24.6135 85.5496 24.1455 85.5496 23.4975V19.8375H84.7696V18.7215H85.5496V17.0775H86.9296V18.7215H88.5376V19.8375H86.9296ZM96.8876 19.8375H95.6636V25.3335H94.2836V19.8375H93.5036V18.7215H94.2836V18.2535C94.2836 17.4935 94.4836 16.9415 94.8836 16.5975C95.2916 16.2455 95.9276 16.0695 96.7916 16.0695V17.2095C96.3756 17.2095 96.0836 17.2895 95.9156 17.4495C95.7476 17.6015 95.6636 17.8695 95.6636 18.2535V18.7215H96.8876V19.8375ZM100.068 19.6815C100.268 19.3455 100.532 19.0855 100.86 18.9015C101.196 18.7095 101.592 18.6135 102.048 18.6135V20.0295H101.7C101.164 20.0295 100.756 20.1655 100.476 20.4375C100.204 20.7095 100.068 21.1815 100.068 21.8535V25.3335H98.7V18.7215H100.068V19.6815ZM106.773 25.4415C106.149 25.4415 105.585 25.3015 105.081 25.0215C104.577 24.7335 104.181 24.3335 103.893 23.8215C103.605 23.3015 103.461 22.7015 103.461 22.0215C103.461 21.3495 103.609 20.7535 103.905 20.2335C104.201 19.7135 104.605 19.3135 105.117 19.0335C105.629 18.7535 106.201 18.6135 106.833 18.6135C107.465 18.6135 108.037 18.7535 108.549 19.0335C109.061 19.3135 109.465 19.7135 109.761 20.2335C110.057 20.7535 110.205 21.3495 110.205 22.0215C110.205 22.6935 110.053 23.2895 109.749 23.8095C109.445 24.3295 109.029 24.7335 108.501 25.0215C107.981 25.3015 107.405 25.4415 106.773 25.4415ZM106.773 24.2535C107.125 24.2535 107.453 24.1695 107.757 24.0015C108.069 23.8335 108.321 23.5815 108.513 23.2455C108.705 22.9095 108.801 22.5015 108.801 22.0215C108.801 21.5415 108.709 21.1375 108.525 20.8095C108.341 20.4735 108.097 20.2215 107.793 20.0535C107.489 19.8855 107.161 19.8015 106.809 19.8015C106.457 19.8015 106.129 19.8855 105.825 20.0535C105.529 20.2215 105.293 20.4735 105.117 20.8095C104.941 21.1375 104.853 21.5415 104.853 22.0215C104.853 22.7335 105.033 23.2855 105.393 23.6775C105.761 24.0615 106.221 24.2535 106.773 24.2535ZM120.162 18.6135C120.682 18.6135 121.146 18.7215 121.554 18.9375C121.97 19.1535 122.294 19.4735 122.526 19.8975C122.766 20.3215 122.886 20.8335 122.886 21.4335V25.3335H121.53V21.6375C121.53 21.0455 121.382 20.5935 121.086 20.2815C120.79 19.9615 120.386 19.8015 119.874 19.8015C119.362 19.8015 118.954 19.9615 118.65 20.2815C118.354 20.5935 118.206 21.0455 118.206 21.6375V25.3335H116.85V21.6375C116.85 21.0455 116.702 20.5935 116.406 20.2815C116.11 19.9615 115.706 19.8015 115.194 19.8015C114.682 19.8015 114.274 19.9615 113.97 20.2815C113.674 20.5935 113.526 21.0455 113.526 21.6375V25.3335H112.158V18.7215H113.526V19.4775C113.75 19.2055 114.034 18.9935 114.378 18.8415C114.722 18.6895 115.09 18.6135 115.482 18.6135C116.01 18.6135 116.482 18.7255 116.898 18.9495C117.314 19.1735 117.634 19.4975 117.858 19.9215C118.058 19.5215 118.37 19.2055 118.794 18.9735C119.218 18.7335 119.674 18.6135 120.162 18.6135Z" fill="#707070"/>
<path d="M61.952 46.2055H57.504L56.768 48.3335H54.416L58.432 37.1495H61.04L65.056 48.3335H62.688L61.952 46.2055ZM61.344 44.4135L59.728 39.7415L58.112 44.4135H61.344ZM69.5971 40.7495C69.8851 40.3442 70.2798 40.0082 70.7811 39.7415C71.2931 39.4642 71.8745 39.3255 72.5251 39.3255C73.2825 39.3255 73.9651 39.5122 74.5731 39.8855C75.1918 40.2588 75.6771 40.7922 76.0291 41.4855C76.3918 42.1682 76.5731 42.9628 76.5731 43.8695C76.5731 44.7762 76.3918 45.5815 76.0291 46.2855C75.6771 46.9788 75.1918 47.5175 74.5731 47.9015C73.9651 48.2855 73.2825 48.4775 72.5251 48.4775C71.8745 48.4775 71.2985 48.3442 70.7971 48.0775C70.3065 47.8108 69.9065 47.4748 69.5971 47.0695V52.5575H67.3571V39.4695H69.5971V40.7495ZM74.2851 43.8695C74.2851 43.3362 74.1731 42.8775 73.9491 42.4935C73.7358 42.0988 73.4478 41.8002 73.0851 41.5975C72.7331 41.3948 72.3491 41.2935 71.9331 41.2935C71.5278 41.2935 71.1438 41.4002 70.7811 41.6135C70.4291 41.8162 70.1411 42.1148 69.9171 42.5095C69.7038 42.9042 69.5971 43.3682 69.5971 43.9015C69.5971 44.4348 69.7038 44.8988 69.9171 45.2935C70.1411 45.6882 70.4291 45.9922 70.7811 46.2055C71.1438 46.4082 71.5278 46.5095 71.9331 46.5095C72.3491 46.5095 72.7331 46.4028 73.0851 46.1895C73.4478 45.9762 73.7358 45.6722 73.9491 45.2775C74.1731 44.8828 74.2851 44.4135 74.2851 43.8695ZM81.2409 40.7495C81.5289 40.3442 81.9235 40.0082 82.4249 39.7415C82.9369 39.4642 83.5182 39.3255 84.1689 39.3255C84.9262 39.3255 85.6089 39.5122 86.2169 39.8855C86.8355 40.2588 87.3209 40.7922 87.6729 41.4855C88.0355 42.1682 88.2169 42.9628 88.2169 43.8695C88.2169 44.7762 88.0355 45.5815 87.6729 46.2855C87.3209 46.9788 86.8355 47.5175 86.2169 47.9015C85.6089 48.2855 84.9262 48.4775 84.1689 48.4775C83.5182 48.4775 82.9422 48.3442 82.4409 48.0775C81.9502 47.8108 81.5502 47.4748 81.2409 47.0695V52.5575H79.0009V39.4695H81.2409V40.7495ZM85.9289 43.8695C85.9289 43.3362 85.8169 42.8775 85.5929 42.4935C85.3795 42.0988 85.0915 41.8002 84.7289 41.5975C84.3769 41.3948 83.9929 41.2935 83.5769 41.2935C83.1715 41.2935 82.7875 41.4002 82.4249 41.6135C82.0729 41.8162 81.7849 42.1148 81.5609 42.5095C81.3475 42.9042 81.2409 43.3682 81.2409 43.9015C81.2409 44.4348 81.3475 44.8988 81.5609 45.2935C81.7849 45.6882 82.0729 45.9922 82.4249 46.2055C82.7875 46.4082 83.1715 46.5095 83.5769 46.5095C83.9929 46.5095 84.3769 46.4028 84.7289 46.1895C85.0915 45.9762 85.3795 45.6722 85.5929 45.2775C85.8169 44.8828 85.9289 44.4135 85.9289 43.8695ZM92.8846 36.4935V48.3335H90.6446V36.4935H92.8846ZM104.138 43.7095C104.138 44.0295 104.116 44.3175 104.074 44.5735H97.5938C97.6471 45.2135 97.8711 45.7148 98.2658 46.0775C98.6604 46.4402 99.1458 46.6215 99.7218 46.6215C100.554 46.6215 101.146 46.2642 101.498 45.5495H103.914C103.658 46.4028 103.167 47.1068 102.442 47.6615C101.716 48.2055 100.826 48.4775 99.7698 48.4775C98.9164 48.4775 98.1484 48.2908 97.4658 47.9175C96.7938 47.5335 96.2658 46.9948 95.8818 46.3015C95.5084 45.6082 95.3218 44.8082 95.3218 43.9015C95.3218 42.9842 95.5084 42.1788 95.8818 41.4855C96.2551 40.7922 96.7778 40.2588 97.4498 39.8855C98.1218 39.5122 98.8951 39.3255 99.7698 39.3255C100.612 39.3255 101.364 39.5068 102.026 39.8695C102.698 40.2322 103.215 40.7495 103.578 41.4215C103.951 42.0828 104.138 42.8455 104.138 43.7095ZM101.818 43.0695C101.807 42.4935 101.599 42.0348 101.194 41.6935C100.788 41.3415 100.292 41.1655 99.7058 41.1655C99.1511 41.1655 98.6818 41.3362 98.2978 41.6775C97.9244 42.0082 97.6951 42.4722 97.6098 43.0695H101.818ZM115.041 48.4455C114.263 48.4455 113.559 48.3122 112.929 48.0455C112.311 47.7788 111.82 47.3948 111.457 46.8935C111.095 46.3922 110.908 45.8002 110.897 45.1175H113.297C113.329 45.5762 113.489 45.9388 113.777 46.2055C114.076 46.4722 114.481 46.6055 114.993 46.6055C115.516 46.6055 115.927 46.4828 116.225 46.2375C116.524 45.9815 116.673 45.6508 116.673 45.2455C116.673 44.9148 116.572 44.6428 116.369 44.4295C116.167 44.2162 115.911 44.0508 115.601 43.9335C115.303 43.8055 114.887 43.6668 114.353 43.5175C113.628 43.3042 113.036 43.0962 112.577 42.8935C112.129 42.6802 111.74 42.3655 111.409 41.9495C111.089 41.5228 110.929 40.9575 110.929 40.2535C110.929 39.5922 111.095 39.0162 111.425 38.5255C111.756 38.0348 112.22 37.6615 112.817 37.4055C113.415 37.1388 114.097 37.0055 114.865 37.0055C116.017 37.0055 116.951 37.2882 117.665 37.8535C118.391 38.4082 118.791 39.1868 118.865 40.1895H116.401C116.38 39.8055 116.215 39.4908 115.905 39.2455C115.607 38.9895 115.207 38.8615 114.705 38.8615C114.268 38.8615 113.916 38.9735 113.649 39.1975C113.393 39.4215 113.265 39.7468 113.265 40.1735C113.265 40.4722 113.361 40.7228 113.553 40.9255C113.756 41.1175 114.001 41.2775 114.289 41.4055C114.588 41.5228 115.004 41.6615 115.537 41.8215C116.263 42.0348 116.855 42.2482 117.313 42.4615C117.772 42.6748 118.167 42.9948 118.497 43.4215C118.828 43.8482 118.993 44.4082 118.993 45.1015C118.993 45.6988 118.839 46.2535 118.529 46.7655C118.22 47.2775 117.767 47.6882 117.169 47.9975C116.572 48.2962 115.863 48.4455 115.041 48.4455ZM124.343 41.3095V45.5975C124.343 45.8962 124.413 46.1148 124.551 46.2535C124.701 46.3815 124.946 46.4455 125.287 46.4455H126.327V48.3335H124.919C123.031 48.3335 122.087 47.4162 122.087 45.5815V41.3095H121.031V39.4695H122.087V37.2775H124.343V39.4695H126.327V41.3095H124.343ZM132.674 48.4775C131.821 48.4775 131.053 48.2908 130.37 47.9175C129.688 47.5335 129.149 46.9948 128.754 46.3015C128.37 45.6082 128.178 44.8082 128.178 43.9015C128.178 42.9948 128.376 42.1948 128.77 41.5015C129.176 40.8082 129.725 40.2748 130.418 39.9015C131.112 39.5175 131.885 39.3255 132.738 39.3255C133.592 39.3255 134.365 39.5175 135.058 39.9015C135.752 40.2748 136.296 40.8082 136.69 41.5015C137.096 42.1948 137.298 42.9948 137.298 43.9015C137.298 44.8082 137.09 45.6082 136.674 46.3015C136.269 46.9948 135.714 47.5335 135.01 47.9175C134.317 48.2908 133.538 48.4775 132.674 48.4775ZM132.674 46.5255C133.08 46.5255 133.458 46.4295 133.81 46.2375C134.173 46.0348 134.461 45.7362 134.674 45.3415C134.888 44.9468 134.994 44.4668 134.994 43.9015C134.994 43.0588 134.77 42.4135 134.322 41.9655C133.885 41.5068 133.346 41.2775 132.706 41.2775C132.066 41.2775 131.528 41.5068 131.09 41.9655C130.664 42.4135 130.45 43.0588 130.45 43.9015C130.45 44.7442 130.658 45.3948 131.074 45.8535C131.501 46.3015 132.034 46.5255 132.674 46.5255ZM141.981 40.8455C142.269 40.3762 142.643 40.0082 143.101 39.7415C143.571 39.4748 144.104 39.3415 144.701 39.3415V41.6935H144.109C143.405 41.6935 142.872 41.8588 142.509 42.1895C142.157 42.5202 141.981 43.0962 141.981 43.9175V48.3335H139.741V39.4695H141.981V40.8455ZM155.25 43.7095C155.25 44.0295 155.229 44.3175 155.186 44.5735H148.706C148.76 45.2135 148.984 45.7148 149.378 46.0775C149.773 46.4402 150.258 46.6215 150.834 46.6215C151.666 46.6215 152.258 46.2642 152.61 45.5495H155.026C154.77 46.4028 154.28 47.1068 153.554 47.6615C152.829 48.2055 151.938 48.4775 150.882 48.4775C150.029 48.4775 149.261 48.2908 148.578 47.9175C147.906 47.5335 147.378 46.9948 146.994 46.3015C146.621 45.6082 146.434 44.8082 146.434 43.9015C146.434 42.9842 146.621 42.1788 146.994 41.4855C147.368 40.7922 147.89 40.2588 148.562 39.8855C149.234 39.5122 150.008 39.3255 150.882 39.3255C151.725 39.3255 152.477 39.5068 153.138 39.8695C153.81 40.2322 154.328 40.7495 154.69 41.4215C155.064 42.0828 155.25 42.8455 155.25 43.7095ZM152.93 43.0695C152.92 42.4935 152.712 42.0348 152.306 41.6935C151.901 41.3415 151.405 41.1655 150.818 41.1655C150.264 41.1655 149.794 41.3362 149.41 41.6775C149.037 42.0082 148.808 42.4722 148.722 43.0695H152.93Z" fill="#152934"/>
</g>
<defs>
<filter id="filter0_d_590_708" x="0" y="0.833496" width="184.667" height="71.6667" filterUnits="userSpaceOnUse" color-interpolation-filters="sRGB">
<feFlood flood-opacity="0" result="BackgroundImageFix"/>
<feColorMatrix in="SourceAlpha" type="matrix" values="0 0 0 0 0 0 0 0 0 0 0 0 0 0 0 0 0 0 127 0" result="hardAlpha"/>
<feOffset dx="3.33333" dy="3.33333"/>
<feGaussianBlur stdDeviation="1.66667"/>
<feComposite in2="hardAlpha" operator="out"/>
<feColorMatrix type="matrix" values="0 0 0 0 0 0 0 0 0 0.654902 0 0 0 0 0.27451 0 0 0 0.25 0"/>
<feBlend mode="normal" in2="BackgroundImageFix" result="effect1_dropShadow_590_708"/>
<feBlend mode="normal" in="SourceGraphic" in2="effect1_dropShadow_590_708" result="shape"/>
</filter>
</defs>
</svg>
