<svg width="52" height="53" viewBox="0 0 52 53" fill="none" xmlns="http://www.w3.org/2000/svg">
<path opacity="0.4" d="M47.6663 34.6062C47.6663 40.6512 42.813 45.5478 36.768 45.5695H36.7463H15.2747C9.25134 45.5695 4.33301 40.6945 4.33301 34.6495V34.6278C4.33301 34.6278 4.34601 25.0382 4.36334 20.2152C4.36551 19.3095 5.40551 18.8025 6.11401 19.3658C11.262 23.45 20.4682 30.8968 20.583 30.9943C22.1213 32.2272 24.0713 32.9227 26.0647 32.9227C28.058 32.9227 30.008 32.2272 31.5463 30.9705C31.6612 30.8947 40.6615 23.671 45.8875 19.5197C46.5982 18.9542 47.6425 19.4612 47.6447 20.3647C47.6663 25.1508 47.6663 34.6062 47.6663 34.6062Z" fill="#00A746"/>
<path d="M46.5309 12.3618C44.6546 8.82578 40.9626 6.56812 36.8979 6.56812H15.2746C11.2099 6.56812 7.51792 8.82578 5.64159 12.3618C5.22125 13.1526 5.42059 14.1384 6.12042 14.6974L22.2079 27.5653C23.3346 28.4753 24.6996 28.9281 26.0646 28.9281C26.0733 28.9281 26.0798 28.9281 26.0863 28.9281C26.0928 28.9281 26.1014 28.9281 26.1079 28.9281C27.4729 28.9281 28.8379 28.4753 29.9646 27.5653L46.0521 14.6974C46.7519 14.1384 46.9513 13.1526 46.5309 12.3618Z" fill="#00A746"/>
</svg>
