<svg width="268" height="63" viewBox="0 0 268 63" fill="none" xmlns="http://www.w3.org/2000/svg">
<g filter="url(#filter0_d_533_523)">
<rect y="0.333252" width="261" height="56" rx="12" fill="#20CB68" shape-rendering="crispEdges"/>
<path d="M28.016 24.3813V26.1413H22.448V28.2053C22.448 28.3653 22.4747 28.5039 22.528 28.6213C22.5813 28.7279 22.6933 28.7813 22.864 28.7813C23.0027 28.7813 23.152 28.7333 23.312 28.6373C23.472 28.5306 23.632 28.3866 23.792 28.2053C23.9627 28.0133 24.1333 27.7999 24.304 27.5653L26.176 27.2133C26.5387 27.7359 26.8107 28.2639 26.992 28.7973C27.1733 29.3199 27.264 29.8853 27.264 30.4933C27.264 31.1653 27.0987 31.7679 26.768 32.3013C26.448 32.8239 25.9627 33.2399 25.312 33.5493C24.672 33.8586 23.8773 34.0133 22.928 34.0133C22.224 34.0133 21.5467 33.9119 20.896 33.7093C20.2453 33.5066 19.632 33.1653 19.056 32.6853C18.4907 32.1946 17.968 31.5279 17.488 30.6853C17.0187 29.8319 16.608 28.7653 16.256 27.4853L18.256 26.9253C18.608 28.1946 19.008 29.2186 19.456 29.9973C19.904 30.7653 20.4 31.3253 20.944 31.6773C21.4987 32.0186 22.1013 32.1893 22.752 32.1893C23.52 32.1893 24.112 32.0186 24.528 31.6773C24.9547 31.3253 25.168 30.8399 25.168 30.2213C25.168 29.8053 25.0933 29.4639 24.944 29.1973C24.7947 28.9306 24.624 28.6799 24.432 28.4453L26.064 28.3173C25.68 28.8293 25.2907 29.2506 24.896 29.5813C24.5013 29.9119 24.1013 30.1573 23.696 30.3173C23.3013 30.4773 22.8907 30.5573 22.464 30.5573C22.1227 30.5573 21.8187 30.5093 21.552 30.4133C21.2853 30.3066 21.0613 30.1519 20.88 29.9493C20.6987 29.7466 20.56 29.4853 20.464 29.1653C20.3787 28.8453 20.336 28.4346 20.336 27.9333V26.1413H15.84V24.3813H28.016ZM33.6834 24.3813V26.1413H32.1474V34.3333H30.0354V27.2293C29.9074 26.8986 29.726 26.6373 29.4914 26.4453C29.2567 26.2426 28.9527 26.1413 28.5794 26.1413H28.4994V24.3813H28.8194C29.0647 24.3813 29.294 24.4453 29.5074 24.5733C29.7207 24.7013 29.918 24.9733 30.0994 25.3893C30.0887 25.3359 30.0727 25.2133 30.0514 25.0213C30.0407 24.8293 30.0354 24.6639 30.0354 24.5253V23.3253H31.7634L32.1314 24.3813H33.6834ZM42.4628 24.3813C42.4521 24.0506 42.3668 23.8159 42.2068 23.6773C42.0468 23.5279 41.7641 23.4533 41.3588 23.4533H39.0868C38.2761 23.4533 37.6148 23.3786 37.1028 23.2293C36.6014 23.0693 36.2068 22.8293 35.9188 22.5093C35.7161 22.2853 35.5668 22.0239 35.4708 21.7253C35.3854 21.4159 35.3428 21.0639 35.3428 20.6693C35.3428 20.5093 35.3481 20.3653 35.3588 20.2373C35.3694 20.0986 35.3908 19.9333 35.4228 19.7413L37.4228 19.8693C37.4121 19.9653 37.4014 20.0506 37.3908 20.1253C37.3908 20.1999 37.3908 20.2693 37.3908 20.3333C37.3908 20.5573 37.4121 20.7599 37.4548 20.9413C37.5081 21.1119 37.5934 21.2559 37.7108 21.3733C37.8281 21.4799 37.9774 21.5599 38.1588 21.6133C38.3401 21.6666 38.6334 21.6933 39.0388 21.6933H41.3748C42.0041 21.6933 42.5001 21.7413 42.8628 21.8373C43.2361 21.9333 43.5508 22.1039 43.8068 22.3493C44.0094 22.5519 44.1641 22.8186 44.2708 23.1493C44.3881 23.4693 44.4521 23.8799 44.4628 24.3813H42.4628ZM46.3348 24.3813V26.1413H40.7668V28.2053C40.7668 28.3653 40.7934 28.5039 40.8468 28.6213C40.9001 28.7279 41.0121 28.7813 41.1828 28.7813C41.3214 28.7813 41.4708 28.7333 41.6308 28.6373C41.7908 28.5306 41.9508 28.3866 42.1108 28.2053C42.2814 28.0133 42.4521 27.7999 42.6228 27.5653L44.4948 27.2133C44.8574 27.7359 45.1294 28.2639 45.3108 28.7973C45.4921 29.3199 45.5828 29.8853 45.5828 30.4933C45.5828 31.1653 45.4174 31.7679 45.0868 32.3013C44.7668 32.8239 44.2814 33.2399 43.6308 33.5493C42.9908 33.8586 42.1961 34.0133 41.2468 34.0133C40.5428 34.0133 39.8654 33.9119 39.2148 33.7093C38.5641 33.5066 37.9508 33.1653 37.3748 32.6853C36.8094 32.1946 36.2868 31.5279 35.8068 30.6853C35.3374 29.8319 34.9268 28.7653 34.5748 27.4853L36.5748 26.9253C36.9268 28.1946 37.3268 29.2186 37.7748 29.9973C38.2228 30.7653 38.7188 31.3253 39.2628 31.6773C39.8174 32.0186 40.4201 32.1893 41.0708 32.1893C41.8388 32.1893 42.4308 32.0186 42.8468 31.6773C43.2734 31.3253 43.4868 30.8399 43.4868 30.2213C43.4868 29.8053 43.4121 29.4639 43.2628 29.1973C43.1134 28.9306 42.9428 28.6799 42.7508 28.4453L44.3828 28.3173C43.9988 28.8293 43.6094 29.2506 43.2148 29.5813C42.8201 29.9119 42.4201 30.1573 42.0148 30.3173C41.6201 30.4773 41.2094 30.5573 40.7828 30.5573C40.4414 30.5573 40.1374 30.5093 39.8708 30.4133C39.6041 30.3066 39.3801 30.1519 39.1988 29.9493C39.0174 29.7466 38.8788 29.4853 38.7828 29.1653C38.6974 28.8453 38.6548 28.4346 38.6548 27.9333V26.1413H34.1588V24.3813H46.3348ZM57.2821 24.3813V26.1413H55.7461V34.3333H53.6341V30.9733L53.9541 31.8053C53.6235 31.3786 53.2661 30.9893 52.8821 30.6373C52.4981 30.2853 52.1088 30.0026 51.7141 29.7893C51.3301 29.5759 50.9515 29.4693 50.5781 29.4693C50.3115 29.4693 50.0821 29.5333 49.8901 29.6613C49.7088 29.7786 49.6181 29.9706 49.6181 30.2373C49.6181 30.4719 49.7035 30.6693 49.8741 30.8293C50.0448 30.9893 50.3168 31.1439 50.6901 31.2933L49.7461 33.0533C49.0315 32.7759 48.4661 32.3813 48.0501 31.8693C47.6448 31.3466 47.4421 30.7759 47.4421 30.1573C47.4421 29.5813 47.5755 29.1119 47.8421 28.7493C48.1088 28.3759 48.4501 28.1039 48.8661 27.9333C49.2928 27.7519 49.7301 27.6613 50.1781 27.6613C50.6688 27.6613 51.1328 27.7359 51.5701 27.8853C52.0075 28.0346 52.4235 28.2479 52.8181 28.5253C53.2235 28.7919 53.6181 29.1226 54.0021 29.5173L53.6821 29.6773C53.6608 29.4213 53.6448 29.1599 53.6341 28.8933C53.6341 28.6159 53.6341 28.3599 53.6341 28.1253V26.1413H46.8181V24.3813H57.2821ZM64.4628 24.3813V26.1413H63.5508C63.1881 26.3226 62.8361 26.5466 62.4948 26.8133C62.1641 27.0693 61.8654 27.3679 61.5988 27.7093C61.3428 28.0399 61.1348 28.4079 60.9748 28.8133C60.8254 29.2186 60.7508 29.6559 60.7508 30.1253C60.7508 30.7653 60.8468 31.2666 61.0388 31.6293C61.2308 31.9919 61.4708 32.2479 61.7588 32.3973C62.0468 32.5359 62.3348 32.6053 62.6228 32.6053C62.8148 32.6053 63.0014 32.5893 63.1828 32.5573C63.3641 32.5146 63.5721 32.4346 63.8068 32.3173L64.6068 33.9013C64.2548 34.1039 63.9081 34.2426 63.5668 34.3173C63.2254 34.3813 62.8681 34.4133 62.4948 34.4133C61.7054 34.4133 61.0174 34.2533 60.4308 33.9333C59.8441 33.6026 59.3908 33.1226 59.0708 32.4933C58.7614 31.8533 58.6068 31.0799 58.6068 30.1733C58.6068 29.4373 58.7401 28.7546 59.0068 28.1253C59.2734 27.4959 59.6468 26.9466 60.1268 26.4773C60.6174 25.9973 61.1934 25.6346 61.8548 25.3893L60.8308 26.0773C60.6601 26.0986 60.4628 26.1146 60.2388 26.1253C60.0254 26.1359 59.7481 26.1413 59.4068 26.1413H57.7588V24.3813H64.4628ZM77.6854 24.3813V26.1413H76.1494V34.3333H74.0374V29.2933L74.4694 30.2053C74.2987 29.8959 74.096 29.6293 73.8614 29.4053C73.6267 29.1813 73.36 29.0693 73.0614 29.0693C72.9547 29.0693 72.832 29.0959 72.6934 29.1493C72.5654 29.2026 72.4534 29.3039 72.3574 29.4533C72.272 29.6026 72.2294 29.8213 72.2294 30.1093C72.2294 30.2053 72.2347 30.2959 72.2454 30.3813C72.256 30.4559 72.2667 30.5359 72.2774 30.6213L70.4694 30.7333C70.416 30.3813 70.3094 30.0773 70.1494 29.8213C70 29.5546 69.808 29.3519 69.5734 29.2133C69.3387 29.0746 69.056 29.0053 68.7254 29.0053C68.5334 29.0053 68.3627 29.0426 68.2134 29.1173C68.064 29.1813 67.9467 29.2773 67.8614 29.4053C67.7867 29.5333 67.7494 29.6826 67.7494 29.8533C67.7494 30.2373 67.8987 30.5359 68.1974 30.7493C68.5067 30.9626 68.88 31.1386 69.3174 31.2773L68.7094 33.0693C68.0694 32.8879 67.5147 32.6479 67.0454 32.3493C66.576 32.0399 66.2134 31.6719 65.9574 31.2453C65.7014 30.8186 65.5734 30.3279 65.5734 29.7733C65.5734 29.2399 65.7014 28.7813 65.9574 28.3973C66.224 28.0133 66.576 27.7199 67.0134 27.5173C67.4507 27.3039 67.9307 27.1973 68.4534 27.1973C69.0827 27.1973 69.6107 27.3039 70.0374 27.5173C70.464 27.7199 70.9067 28.0559 71.3654 28.5253L71.0774 28.4133C71.1947 28.0399 71.4027 27.7573 71.7014 27.5653C72 27.3733 72.3147 27.2773 72.6454 27.2773C73.0187 27.2773 73.3494 27.3519 73.6374 27.5013C73.936 27.6506 74.2134 27.8533 74.4694 28.1093L74.1174 28.3653C74.096 28.1306 74.0747 27.8959 74.0534 27.6613C74.0427 27.4266 74.0374 27.1919 74.0374 26.9573V26.1413H64.9494V24.3813H77.6854ZM83.3552 24.3813V26.1413H81.8192V34.3333H79.7072V27.2293C79.5792 26.8986 79.3979 26.6373 79.1632 26.4453C78.9286 26.2426 78.6246 26.1413 78.2512 26.1413H78.1712V24.3813H78.4912C78.7366 24.3813 78.9659 24.4453 79.1792 24.5733C79.3926 24.7013 79.5899 24.9733 79.7712 25.3893C79.7606 25.3359 79.7446 25.2133 79.7232 25.0213C79.7126 24.8293 79.7072 24.6639 79.7072 24.5253V23.3253H81.4352L81.8032 24.3813H83.3552ZM96.0066 24.3813V26.1413H90.4386V28.2053C90.4386 28.3653 90.4653 28.5039 90.5186 28.6213C90.572 28.7279 90.684 28.7813 90.8546 28.7813C90.9933 28.7813 91.1426 28.7333 91.3026 28.6373C91.4626 28.5306 91.6226 28.3866 91.7826 28.2053C91.9533 28.0133 92.124 27.7999 92.2946 27.5653L94.1666 27.2133C94.5293 27.7359 94.8013 28.2639 94.9826 28.7973C95.164 29.3199 95.2546 29.8853 95.2546 30.4933C95.2546 31.1653 95.0893 31.7679 94.7586 32.3013C94.4386 32.8239 93.9533 33.2399 93.3026 33.5493C92.6626 33.8586 91.868 34.0133 90.9186 34.0133C90.2146 34.0133 89.5373 33.9119 88.8866 33.7093C88.236 33.5066 87.6226 33.1653 87.0466 32.6853C86.4813 32.1946 85.9586 31.5279 85.4786 30.6853C85.0093 29.8319 84.5986 28.7653 84.2466 27.4853L86.2466 26.9253C86.5986 28.1946 86.9986 29.2186 87.4466 29.9973C87.8946 30.7653 88.3906 31.3253 88.9346 31.6773C89.4893 32.0186 90.092 32.1893 90.7426 32.1893C91.5106 32.1893 92.1026 32.0186 92.5186 31.6773C92.9453 31.3253 93.1586 30.8399 93.1586 30.2213C93.1586 29.8053 93.084 29.4639 92.9346 29.1973C92.7853 28.9306 92.6146 28.6799 92.4226 28.4453L94.0546 28.3173C93.6706 28.8293 93.2813 29.2506 92.8866 29.5813C92.492 29.9119 92.092 30.1573 91.6866 30.3173C91.292 30.4773 90.8813 30.5573 90.4546 30.5573C90.1133 30.5573 89.8093 30.5093 89.5426 30.4133C89.276 30.3066 89.052 30.1519 88.8706 29.9493C88.6893 29.7466 88.5506 29.4853 88.4546 29.1653C88.3693 28.8453 88.3266 28.4346 88.3266 27.9333V26.1413H83.8306V24.3813H96.0066ZM116.782 24.3813V26.1413H115.246V34.3333H113.134C112.836 33.7679 112.414 33.2826 111.87 32.8773C111.337 32.4613 110.82 32.1199 110.318 31.8533L111.246 30.4933C111.652 30.7279 112.02 30.9786 112.35 31.2453C112.692 31.5013 112.969 31.7519 113.182 31.9973C113.172 31.8799 113.161 31.7626 113.15 31.6453C113.15 31.5279 113.145 31.4053 113.134 31.2773C113.134 31.1386 113.134 30.9999 113.134 30.8613V26.1413H101.102V24.3813H116.782ZM107.63 33.0213C106.756 33.0213 105.934 32.8506 105.166 32.5093C104.409 32.1679 103.721 31.5919 103.102 30.7813C102.494 29.9706 101.961 28.8719 101.502 27.4853L103.502 26.9253C103.844 27.9173 104.201 28.7279 104.574 29.3573C104.948 29.9866 105.374 30.4506 105.854 30.7493C106.334 31.0373 106.894 31.1813 107.534 31.1813C108.036 31.1813 108.446 31.1173 108.766 30.9893C109.097 30.8613 109.342 30.6746 109.502 30.4293C109.662 30.1839 109.742 29.8959 109.742 29.5653C109.742 29.1599 109.63 28.8453 109.406 28.6213C109.193 28.3866 108.916 28.2693 108.574 28.2693C108.34 28.2693 108.158 28.3279 108.03 28.4453C107.902 28.5626 107.838 28.7173 107.838 28.9093C107.838 28.9946 107.849 29.0906 107.87 29.1973C107.892 29.2933 107.918 29.3839 107.95 29.4693L105.966 29.7573C105.881 29.5546 105.817 29.3573 105.774 29.1653C105.732 28.9733 105.71 28.8079 105.71 28.6693C105.71 28.1466 105.833 27.7359 106.078 27.4373C106.324 27.1279 106.644 26.9039 107.038 26.7653C107.444 26.6266 107.865 26.5573 108.302 26.5573C109.038 26.5573 109.673 26.7013 110.206 26.9893C110.74 27.2666 111.145 27.6506 111.422 28.1413C111.71 28.6319 111.854 29.1866 111.854 29.8053C111.854 30.3813 111.71 30.9146 111.422 31.4053C111.134 31.8959 110.676 32.2906 110.046 32.5893C109.428 32.8773 108.622 33.0213 107.63 33.0213ZM106.622 27.4853C106.58 27.1333 106.425 26.8293 106.158 26.5733C105.892 26.3173 105.508 26.1306 105.006 26.0133L106.206 25.3093L106.942 25.4853C107.54 25.7306 107.972 26.0026 108.238 26.3013C108.505 26.5999 108.665 26.9786 108.718 27.4373L106.622 27.4853ZM122.142 24.3813V26.1413H120.862L121.806 25.8373C121.507 26.1039 121.267 26.3546 121.086 26.5893C120.915 26.8239 120.793 27.0586 120.718 27.2933C120.643 27.5279 120.606 27.7893 120.606 28.0773C120.606 28.4293 120.649 28.7973 120.734 29.1813C120.83 29.5546 120.921 29.9386 121.006 30.3333C121.102 30.7173 121.15 31.1013 121.15 31.4853C121.15 31.9226 121.097 32.3279 120.99 32.7013C120.894 33.0746 120.713 33.4159 120.446 33.7253C120.179 34.0239 119.806 34.2906 119.326 34.5253C118.846 34.7706 118.222 34.9839 117.454 35.1653L116.99 33.4373C117.587 33.2879 118.03 33.1173 118.318 32.9253C118.606 32.7333 118.793 32.5146 118.878 32.2693C118.974 32.0239 119.022 31.7573 119.022 31.4693C119.022 31.0639 118.974 30.6746 118.878 30.3013C118.793 29.9279 118.702 29.5599 118.606 29.1973C118.521 28.8346 118.478 28.4613 118.478 28.0773C118.478 27.7573 118.515 27.4799 118.59 27.2453C118.665 26.9999 118.777 26.7653 118.926 26.5413C119.086 26.3173 119.278 26.0826 119.502 25.8373L119.31 26.1413H117.262V24.3813H122.142ZM127.808 24.3813V26.1413H126.272V34.3333H124.16V27.2293C124.032 26.8986 123.851 26.6373 123.616 26.4453C123.382 26.2426 123.078 26.1413 122.704 26.1413H122.624V24.3813H122.944C123.19 24.3813 123.419 24.4453 123.632 24.5733C123.846 24.7013 124.043 24.9733 124.224 25.3893C124.214 25.3359 124.198 25.2133 124.176 25.0213C124.166 24.8293 124.16 24.6639 124.16 24.5253V23.3253H125.888L126.256 24.3813H127.808ZM140.844 24.3813V26.1413H139.308V34.3333H137.196V28.0613L137.292 28.8773C136.961 28.4293 136.63 28.0293 136.3 27.6773C135.969 27.3253 135.638 27.0266 135.308 26.7813C134.977 26.5359 134.641 26.3493 134.3 26.2213C133.958 26.0933 133.612 26.0293 133.26 26.0293C132.833 26.0293 132.444 26.1093 132.092 26.2693C131.75 26.4293 131.43 26.6479 131.132 26.9253C130.844 27.2026 130.55 27.5279 130.252 27.9013L130.204 27.5333C130.417 27.3946 130.646 27.2719 130.892 27.1653C131.148 27.0479 131.446 26.9893 131.788 26.9893C132.321 26.9893 132.705 27.1386 132.94 27.4373C133.185 27.7253 133.308 28.0506 133.308 28.4133C133.308 28.5839 133.302 28.7439 133.292 28.8933C133.292 29.0426 133.281 29.1439 133.26 29.1973L132.764 29.0533C132.87 28.9253 132.993 28.7919 133.132 28.6533C133.281 28.5039 133.436 28.3546 133.596 28.2053C133.756 28.0559 133.91 27.9173 134.06 27.7893L135.98 26.1253L137.244 27.3893L132.508 31.6933L131.052 30.3333L132.556 28.9573L131.948 29.7733L131.292 30.1573C131.473 29.9759 131.612 29.7893 131.708 29.5973C131.804 29.4053 131.852 29.2239 131.852 29.0533C131.852 28.7973 131.782 28.6159 131.644 28.5093C131.505 28.3919 131.329 28.3333 131.116 28.3333C130.977 28.3333 130.833 28.3599 130.684 28.4133C130.545 28.4559 130.396 28.5253 130.236 28.6213L128.652 27.1653C129.142 26.5573 129.617 26.0399 130.076 25.6133C130.534 25.1759 131.014 24.8453 131.516 24.6213C132.017 24.3866 132.577 24.2693 133.196 24.2693C133.74 24.2693 134.236 24.3599 134.684 24.5413C135.132 24.7226 135.569 24.9839 135.996 25.3253C136.433 25.6666 136.886 26.0773 137.356 26.5573L137.292 26.8933C137.27 26.6799 137.249 26.4346 137.228 26.1573C137.206 25.8799 137.196 25.6079 137.196 25.3413V23.3253H138.924L139.292 24.3813H140.844ZM156.571 24.3813V26.1413H155.035V34.3333H152.923V32.2533L153.195 33.1013C152.8 32.5573 152.421 32.0933 152.059 31.7093C151.696 31.3146 151.333 31.0159 150.971 30.8133C150.608 30.5999 150.224 30.4933 149.819 30.4933C149.573 30.4933 149.36 30.5573 149.179 30.6853C148.997 30.8133 148.907 31.0053 148.907 31.2613C148.907 31.5386 149.008 31.7573 149.211 31.9173C149.424 32.0666 149.712 32.2053 150.075 32.3333L149.467 34.1733C148.827 33.9919 148.304 33.7466 147.899 33.4373C147.504 33.1173 147.211 32.7653 147.019 32.3813C146.827 31.9973 146.731 31.6026 146.731 31.1973C146.731 30.6319 146.864 30.1679 147.131 29.8053C147.397 29.4426 147.739 29.1759 148.155 29.0053C148.581 28.8346 149.019 28.7493 149.467 28.7493C149.989 28.7493 150.469 28.8186 150.907 28.9573C151.355 29.0959 151.771 29.3146 152.155 29.6133C152.539 29.9013 152.912 30.2799 153.275 30.7493L152.955 30.9893C152.944 30.7333 152.933 30.4773 152.923 30.2213C152.923 29.9546 152.923 29.6933 152.923 29.4373V26.1413H145.931V24.3813H156.571ZM151.227 29.1973C151.227 29.2506 151.221 29.3306 151.211 29.4373C151.211 29.5333 151.2 29.6293 151.179 29.7253L149.115 29.1973C149.093 28.6959 149.003 28.3013 148.843 28.0133C148.683 27.7253 148.416 27.5066 148.043 27.3573C147.669 27.2079 147.136 27.1013 146.443 27.0373L146.859 25.4213L147.755 25.6773C148.395 25.7519 148.933 25.8799 149.371 26.0613C149.819 26.2426 150.176 26.4773 150.443 26.7653C150.72 27.0426 150.917 27.3839 151.035 27.7893C151.163 28.1946 151.227 28.6639 151.227 29.1973ZM161.923 24.3813V26.1413H160.643L161.587 25.8373C161.288 26.1039 161.048 26.3546 160.867 26.5893C160.696 26.8239 160.574 27.0586 160.499 27.2933C160.424 27.5279 160.387 27.7893 160.387 28.0773C160.387 28.4293 160.43 28.7973 160.515 29.1813C160.611 29.5546 160.702 29.9386 160.787 30.3333C160.883 30.7173 160.931 31.1013 160.931 31.4853C160.931 31.9226 160.878 32.3279 160.771 32.7013C160.675 33.0746 160.494 33.4159 160.227 33.7253C159.96 34.0239 159.587 34.2906 159.107 34.5253C158.627 34.7706 158.003 34.9839 157.235 35.1653L156.771 33.4373C157.368 33.2879 157.811 33.1173 158.099 32.9253C158.387 32.7333 158.574 32.5146 158.659 32.2693C158.755 32.0239 158.803 31.7573 158.803 31.4693C158.803 31.0639 158.755 30.6746 158.659 30.3013C158.574 29.9279 158.483 29.5599 158.387 29.1973C158.302 28.8346 158.259 28.4613 158.259 28.0773C158.259 27.7573 158.296 27.4799 158.371 27.2453C158.446 26.9999 158.558 26.7653 158.707 26.5413C158.867 26.3173 159.059 26.0826 159.283 25.8373L159.091 26.1413H157.043V24.3813H161.923ZM167.59 24.3813V26.1413H166.054V34.3333H163.942V27.2293C163.814 26.8986 163.632 26.6373 163.398 26.4453C163.163 26.2426 162.859 26.1413 162.486 26.1413H162.406V24.3813H162.726C162.971 24.3813 163.2 24.4453 163.414 24.5733C163.627 24.7013 163.824 24.9733 164.006 25.3893C163.995 25.3359 163.979 25.2133 163.958 25.0213C163.947 24.8293 163.942 24.6639 163.942 24.5253V23.3253H165.67L166.038 24.3813H167.59ZM178.529 24.3813V26.1413H176.993V34.3333H174.881V30.9733L175.201 31.8053C174.87 31.3786 174.513 30.9893 174.129 30.6373C173.745 30.2853 173.356 30.0026 172.961 29.7893C172.577 29.5759 172.198 29.4693 171.825 29.4693C171.558 29.4693 171.329 29.5333 171.137 29.6613C170.956 29.7786 170.865 29.9706 170.865 30.2373C170.865 30.4719 170.95 30.6693 171.121 30.8293C171.292 30.9893 171.564 31.1439 171.937 31.2933L170.993 33.0533C170.278 32.7759 169.713 32.3813 169.297 31.8693C168.892 31.3466 168.689 30.7759 168.689 30.1573C168.689 29.5813 168.822 29.1119 169.089 28.7493C169.356 28.3759 169.697 28.1039 170.113 27.9333C170.54 27.7519 170.977 27.6613 171.425 27.6613C171.916 27.6613 172.38 27.7359 172.817 27.8853C173.254 28.0346 173.67 28.2479 174.065 28.5253C174.47 28.7919 174.865 29.1226 175.249 29.5173L174.929 29.6773C174.908 29.4213 174.892 29.1599 174.881 28.8933C174.881 28.6159 174.881 28.3599 174.881 28.1253V26.1413H168.065V24.3813H178.529ZM174.27 38.5893C173.907 38.5893 173.534 38.5199 173.15 38.3813C172.755 38.2533 172.424 38.0453 172.158 37.7573C171.891 37.4693 171.758 37.0853 171.758 36.6053C171.758 36.0186 171.982 35.5493 172.43 35.1973C172.867 34.8453 173.507 34.6693 174.35 34.6693C175.118 34.6693 175.832 34.7653 176.494 34.9573C177.155 35.1599 177.816 35.4586 178.478 35.8533C179.139 36.2479 179.854 36.7439 180.622 37.3413L179.486 38.6693C178.867 38.1039 178.275 37.6293 177.71 37.2453C177.144 36.8613 176.606 36.5733 176.094 36.3813C175.582 36.1893 175.096 36.0933 174.638 36.0933C174.307 36.0933 174.072 36.1466 173.934 36.2533C173.784 36.3599 173.71 36.4986 173.71 36.6693C173.71 36.8613 173.774 36.9999 173.902 37.0853C174.03 37.1706 174.206 37.2133 174.43 37.2133C174.696 37.2133 174.915 37.1493 175.086 37.0213C175.246 36.8933 175.368 36.7279 175.454 36.5253C175.539 36.3333 175.598 36.1253 175.63 35.9013C175.662 35.6879 175.678 35.4853 175.678 35.2933V34.0773H177.79V34.8613C177.79 35.2026 177.752 35.5866 177.678 36.0133C177.592 36.4399 177.432 36.8453 177.198 37.2293C176.952 37.6239 176.595 37.9493 176.126 38.2053C175.656 38.4613 175.038 38.5893 174.27 38.5893ZM190.766 24.3813V26.1413H189.23V34.3333H187.118C186.691 33.7999 186.19 33.3519 185.614 32.9893C185.038 32.6266 184.387 32.3333 183.662 32.1093C182.936 31.8746 182.12 31.6986 181.214 31.5813L180.462 29.7733C180.76 29.5919 181.07 29.4106 181.39 29.2293C181.72 29.0479 182.062 28.8666 182.414 28.6853C182.766 28.4933 183.118 28.3119 183.47 28.1413C183.022 27.8853 182.536 27.6613 182.014 27.4693C181.502 27.2773 180.942 27.1333 180.334 27.0373L180.926 25.7093L181.534 26.1413H179.806V24.3813H190.766ZM187.118 26.1413H182.542L182.75 26.0293C183.123 26.1359 183.47 26.2746 183.79 26.4453C184.12 26.6159 184.424 26.8079 184.702 27.0213C184.99 27.2239 185.251 27.4319 185.486 27.6453L185.678 29.0533C185.379 29.1706 185.075 29.2986 184.766 29.4373C184.456 29.5759 184.152 29.7199 183.854 29.8693C183.555 30.0186 183.267 30.1733 182.99 30.3333L182.974 30.2373C183.454 30.3013 183.982 30.4399 184.558 30.6533C185.144 30.8559 185.704 31.1279 186.238 31.4693C186.782 31.8106 187.219 32.2106 187.55 32.6693L187.23 32.7973C187.176 32.5199 187.144 32.2426 187.134 31.9653C187.123 31.6879 187.118 31.3946 187.118 31.0853V26.1413ZM182.718 34.7653C182.387 34.7653 182.11 34.6479 181.886 34.4133C181.662 34.1893 181.55 33.9066 181.55 33.5653C181.55 33.2239 181.662 32.9413 181.886 32.7173C182.11 32.4826 182.387 32.3653 182.718 32.3653C183.059 32.3653 183.336 32.4826 183.55 32.7173C183.774 32.9413 183.886 33.2239 183.886 33.5653C183.886 33.9066 183.774 34.1893 183.55 34.4133C183.336 34.6479 183.059 34.7653 182.718 34.7653ZM196.43 24.3813V26.1413H194.894V34.3333H192.782V27.2293C192.654 26.8986 192.473 26.6373 192.238 26.4453C192.004 26.2426 191.7 26.1413 191.326 26.1413H191.246V24.3813H191.566C191.812 24.3813 192.041 24.4453 192.254 24.5733C192.468 24.7013 192.665 24.9733 192.846 25.3893C192.836 25.3359 192.82 25.2133 192.798 25.0213C192.788 24.8293 192.782 24.6639 192.782 24.5253V23.3253H194.51L194.878 24.3813H196.43ZM209.642 24.3813V26.1413H208.106V34.3333H205.994V29.2933L206.426 30.2053C206.255 29.8959 206.052 29.6293 205.818 29.4053C205.583 29.1813 205.316 29.0693 205.018 29.0693C204.911 29.0693 204.788 29.0959 204.65 29.1493C204.522 29.2026 204.41 29.3039 204.314 29.4533C204.228 29.6026 204.186 29.8213 204.186 30.1093C204.186 30.2053 204.191 30.2959 204.202 30.3813C204.212 30.4559 204.223 30.5359 204.234 30.6213L202.426 30.7333C202.372 30.3813 202.266 30.0773 202.106 29.8213C201.956 29.5546 201.764 29.3519 201.53 29.2133C201.295 29.0746 201.012 29.0053 200.682 29.0053C200.49 29.0053 200.319 29.0426 200.17 29.1173C200.02 29.1813 199.903 29.2773 199.818 29.4053C199.743 29.5333 199.706 29.6826 199.706 29.8533C199.706 30.2373 199.855 30.5359 200.154 30.7493C200.463 30.9626 200.836 31.1386 201.274 31.2773L200.666 33.0693C200.026 32.8879 199.471 32.6479 199.002 32.3493C198.532 32.0399 198.17 31.6719 197.914 31.2453C197.658 30.8186 197.53 30.3279 197.53 29.7733C197.53 29.2399 197.658 28.7813 197.914 28.3973C198.18 28.0133 198.532 27.7199 198.97 27.5173C199.407 27.3039 199.887 27.1973 200.41 27.1973C201.039 27.1973 201.567 27.3039 201.994 27.5173C202.42 27.7199 202.863 28.0559 203.322 28.5253L203.034 28.4133C203.151 28.0399 203.359 27.7573 203.658 27.5653C203.956 27.3733 204.271 27.2773 204.602 27.2773C204.975 27.2773 205.306 27.3519 205.594 27.5013C205.892 27.6506 206.17 27.8533 206.426 28.1093L206.074 28.3653C206.052 28.1306 206.031 27.8959 206.01 27.6613C205.999 27.4266 205.994 27.1919 205.994 26.9573V26.1413H196.906V24.3813H209.642Z" fill="white"/>
<path d="M225 33.3333V35.3333C225 35.8637 225.211 36.3724 225.586 36.7475C225.961 37.1225 226.47 37.3333 227 37.3333H239C239.53 37.3333 240.039 37.1225 240.414 36.7475C240.789 36.3724 241 35.8637 241 35.3333V33.3333M228 27.3333L233 32.3333M233 32.3333L238 27.3333M233 32.3333V20.3333" stroke="white" stroke-width="2" stroke-linecap="round" stroke-linejoin="round"/>
</g>
<defs>
<filter id="filter0_d_533_523" x="0" y="0.333252" width="267.667" height="62.6667" filterUnits="userSpaceOnUse" color-interpolation-filters="sRGB">
<feFlood flood-opacity="0" result="BackgroundImageFix"/>
<feColorMatrix in="SourceAlpha" type="matrix" values="0 0 0 0 0 0 0 0 0 0 0 0 0 0 0 0 0 0 127 0" result="hardAlpha"/>
<feOffset dx="3.33333" dy="3.33333"/>
<feGaussianBlur stdDeviation="1.66667"/>
<feComposite in2="hardAlpha" operator="out"/>
<feColorMatrix type="matrix" values="0 0 0 0 0 0 0 0 0 0.654902 0 0 0 0 0.27451 0 0 0 0.25 0"/>
<feBlend mode="normal" in2="BackgroundImageFix" result="effect1_dropShadow_533_523"/>
<feBlend mode="normal" in="SourceGraphic" in2="effect1_dropShadow_533_523" result="shape"/>
</filter>
</defs>
</svg>
