<svg width="204" height="61" viewBox="0 0 204 61" fill="none" xmlns="http://www.w3.org/2000/svg">
<g filter="url(#filter0_d_505_5750)">
<path d="M0 10C0 4.47715 4.47715 0 10 0H154V54H10C4.47716 54 0 49.5228 0 44V10Z" fill="#20CB68" shape-rendering="crispEdges"/>
<path d="M24.382 21.728C25.4087 21.728 26.3093 21.9287 27.084 22.33C27.868 22.7313 28.47 23.3053 28.89 24.052C29.3193 24.7893 29.534 25.648 29.534 26.628C29.534 27.608 29.3193 28.4667 28.89 29.204C28.47 29.932 27.868 30.4967 27.084 30.898C26.3093 31.2993 25.4087 31.5 24.382 31.5H20.966V21.728H24.382ZM24.312 29.834C25.3387 29.834 26.132 29.554 26.692 28.994C27.252 28.434 27.532 27.6453 27.532 26.628C27.532 25.6107 27.252 24.8173 26.692 24.248C26.132 23.6693 25.3387 23.38 24.312 23.38H22.926V29.834H24.312ZM35.1452 31.626C34.3985 31.626 33.7265 31.4627 33.1292 31.136C32.5318 30.8 32.0605 30.3287 31.7152 29.722C31.3792 29.1153 31.2112 28.4153 31.2112 27.622C31.2112 26.8287 31.3838 26.1287 31.7292 25.522C32.0838 24.9153 32.5645 24.4487 33.1712 24.122C33.7778 23.786 34.4545 23.618 35.2012 23.618C35.9478 23.618 36.6245 23.786 37.2312 24.122C37.8378 24.4487 38.3138 24.9153 38.6592 25.522C39.0138 26.1287 39.1912 26.8287 39.1912 27.622C39.1912 28.4153 39.0092 29.1153 38.6452 29.722C38.2905 30.3287 37.8052 30.8 37.1892 31.136C36.5825 31.4627 35.9012 31.626 35.1452 31.626ZM35.1452 29.918C35.4998 29.918 35.8312 29.834 36.1392 29.666C36.4565 29.4887 36.7085 29.2273 36.8952 28.882C37.0818 28.5367 37.1752 28.1167 37.1752 27.622C37.1752 26.8847 36.9792 26.32 36.5872 25.928C36.2045 25.5267 35.7332 25.326 35.1732 25.326C34.6132 25.326 34.1418 25.5267 33.7592 25.928C33.3858 26.32 33.1992 26.8847 33.1992 27.622C33.1992 28.3593 33.3812 28.9287 33.7452 29.33C34.1185 29.722 34.5852 29.918 35.1452 29.918ZM52.0809 23.744L49.8129 31.5H47.6989L46.2849 26.082L44.8709 31.5H42.7429L40.4609 23.744H42.4489L43.8209 29.652L45.3049 23.744H47.3769L48.8329 29.638L50.2049 23.744H52.0809ZM58.1394 23.632C59.0634 23.632 59.8101 23.926 60.3794 24.514C60.9487 25.0927 61.2334 25.9047 61.2334 26.95V31.5H59.2734V27.216C59.2734 26.6 59.1194 26.1287 58.8114 25.802C58.5034 25.466 58.0834 25.298 57.5514 25.298C57.0101 25.298 56.5807 25.466 56.2634 25.802C55.9554 26.1287 55.8014 26.6 55.8014 27.216V31.5H53.8414V23.744H55.8014V24.71C56.0627 24.374 56.3941 24.1127 56.7954 23.926C57.2061 23.73 57.6541 23.632 58.1394 23.632ZM65.7572 21.14V31.5H63.7972V21.14H65.7572ZM71.8377 31.626C71.0911 31.626 70.4191 31.4627 69.8217 31.136C69.2244 30.8 68.7531 30.3287 68.4077 29.722C68.0717 29.1153 67.9037 28.4153 67.9037 27.622C67.9037 26.8287 68.0764 26.1287 68.4217 25.522C68.7764 24.9153 69.2571 24.4487 69.8637 24.122C70.4704 23.786 71.1471 23.618 71.8937 23.618C72.6404 23.618 73.3171 23.786 73.9237 24.122C74.5304 24.4487 75.0064 24.9153 75.3517 25.522C75.7064 26.1287 75.8837 26.8287 75.8837 27.622C75.8837 28.4153 75.7017 29.1153 75.3377 29.722C74.9831 30.3287 74.4977 30.8 73.8817 31.136C73.2751 31.4627 72.5937 31.626 71.8377 31.626ZM71.8377 29.918C72.1924 29.918 72.5237 29.834 72.8317 29.666C73.1491 29.4887 73.4011 29.2273 73.5877 28.882C73.7744 28.5367 73.8677 28.1167 73.8677 27.622C73.8677 26.8847 73.6717 26.32 73.2797 25.928C72.8971 25.5267 72.4257 25.326 71.8657 25.326C71.3057 25.326 70.8344 25.5267 70.4517 25.928C70.0784 26.32 69.8917 26.8847 69.8917 27.622C69.8917 28.3593 70.0737 28.9287 70.4377 29.33C70.8111 29.722 71.2777 29.918 71.8377 29.918ZM77.5175 27.594C77.5175 26.81 77.6715 26.1147 77.9795 25.508C78.2968 24.9013 78.7215 24.4347 79.2535 24.108C79.7948 23.7813 80.3968 23.618 81.0595 23.618C81.6381 23.618 82.1421 23.7347 82.5715 23.968C83.0101 24.2013 83.3601 24.4953 83.6215 24.85V23.744H85.5955V31.5H83.6215V30.366C83.3695 30.73 83.0195 31.0333 82.5715 31.276C82.1328 31.5093 81.6241 31.626 81.0455 31.626C80.3921 31.626 79.7948 31.458 79.2535 31.122C78.7215 30.786 78.2968 30.3147 77.9795 29.708C77.6715 29.092 77.5175 28.3873 77.5175 27.594ZM83.6215 27.622C83.6215 27.146 83.5281 26.74 83.3415 26.404C83.1548 26.0587 82.9028 25.7973 82.5855 25.62C82.2681 25.4333 81.9275 25.34 81.5635 25.34C81.1995 25.34 80.8635 25.4287 80.5555 25.606C80.2475 25.7833 79.9955 26.0447 79.7995 26.39C79.6128 26.726 79.5195 27.1273 79.5195 27.594C79.5195 28.0607 79.6128 28.4713 79.7995 28.826C79.9955 29.1713 80.2475 29.4373 80.5555 29.624C80.8728 29.8107 81.2088 29.904 81.5635 29.904C81.9275 29.904 82.2681 29.8153 82.5855 29.638C82.9028 29.4513 83.1548 29.19 83.3415 28.854C83.5281 28.5087 83.6215 28.098 83.6215 27.622ZM87.7058 27.594C87.7058 26.81 87.8598 26.1147 88.1678 25.508C88.4851 24.9013 88.9144 24.4347 89.4558 24.108C89.9971 23.7813 90.5991 23.618 91.2618 23.618C91.7658 23.618 92.2464 23.73 92.7038 23.954C93.1611 24.1687 93.5251 24.458 93.7958 24.822V21.14H95.7838V31.5H93.7958V30.352C93.5531 30.7347 93.2124 31.0427 92.7738 31.276C92.3351 31.5093 91.8264 31.626 91.2478 31.626C90.5944 31.626 89.9971 31.458 89.4558 31.122C88.9144 30.786 88.4851 30.3147 88.1678 29.708C87.8598 29.092 87.7058 28.3873 87.7058 27.594ZM93.8098 27.622C93.8098 27.146 93.7164 26.74 93.5298 26.404C93.3431 26.0587 93.0911 25.7973 92.7738 25.62C92.4564 25.4333 92.1158 25.34 91.7518 25.34C91.3878 25.34 91.0518 25.4287 90.7438 25.606C90.4358 25.7833 90.1838 26.0447 89.9878 26.39C89.8011 26.726 89.7078 27.1273 89.7078 27.594C89.7078 28.0607 89.8011 28.4713 89.9878 28.826C90.1838 29.1713 90.4358 29.4373 90.7438 29.624C91.0611 29.8107 91.3971 29.904 91.7518 29.904C92.1158 29.904 92.4564 29.8153 92.7738 29.638C93.0911 29.4513 93.3431 29.19 93.5298 28.854C93.7164 28.5087 93.8098 28.098 93.8098 27.622ZM110.792 31.5H108.832L104.394 24.794V31.5H102.434V21.714H104.394L108.832 28.434V21.714H110.792V31.5ZM116.873 31.626C116.126 31.626 115.454 31.4627 114.857 31.136C114.26 30.8 113.788 30.3287 113.443 29.722C113.107 29.1153 112.939 28.4153 112.939 27.622C112.939 26.8287 113.112 26.1287 113.457 25.522C113.812 24.9153 114.292 24.4487 114.899 24.122C115.506 23.786 116.182 23.618 116.929 23.618C117.676 23.618 118.352 23.786 118.959 24.122C119.566 24.4487 120.042 24.9153 120.387 25.522C120.742 26.1287 120.919 26.8287 120.919 27.622C120.919 28.4153 120.737 29.1153 120.373 29.722C120.018 30.3287 119.533 30.8 118.917 31.136C118.31 31.4627 117.629 31.626 116.873 31.626ZM116.873 29.918C117.228 29.918 117.559 29.834 117.867 29.666C118.184 29.4887 118.436 29.2273 118.623 28.882C118.81 28.5367 118.903 28.1167 118.903 27.622C118.903 26.8847 118.707 26.32 118.315 25.928C117.932 25.5267 117.461 25.326 116.901 25.326C116.341 25.326 115.87 25.5267 115.487 25.928C115.114 26.32 114.927 26.8847 114.927 27.622C114.927 28.3593 115.109 28.9287 115.473 29.33C115.846 29.722 116.313 29.918 116.873 29.918ZM133.809 23.744L131.541 31.5H129.427L128.013 26.082L126.599 31.5H124.471L122.189 23.744H124.177L125.549 29.652L127.033 23.744H129.105L130.561 29.638L131.933 23.744H133.809Z" fill="white"/>
</g>
<g filter="url(#filter1_d_505_5750)">
<path d="M154 0H184C191.364 0 197.333 5.96954 197.333 13.3333V40.6667C197.333 48.0305 191.364 54 184 54H154V0Z" fill="#00A746"/>
<path d="M180.488 23.1429H176.31V29.305L178.427 27.1884C178.548 27.073 178.71 27.0095 178.878 27.0117C179.045 27.0138 179.205 27.0814 179.324 27.1999C179.442 27.3185 179.51 27.4786 179.512 27.6463C179.514 27.8139 179.451 27.9757 179.335 28.0973L176.121 31.3116C176.001 31.432 175.837 31.4997 175.667 31.4997C175.496 31.4997 175.333 31.432 175.212 31.3116L171.998 28.0973C171.882 27.9757 171.819 27.8139 171.821 27.6463C171.823 27.4786 171.891 27.3185 172.009 27.1999C172.128 27.0814 172.288 27.0138 172.456 27.0117C172.623 27.0095 172.785 27.073 172.907 27.1884L175.024 29.305V23.1429H170.845C170.249 23.1435 169.677 23.3808 169.255 23.8026C168.833 24.2244 168.596 24.7963 168.595 25.3929V33.75C168.596 34.3465 168.833 34.9185 169.255 35.3403C169.677 35.7621 170.249 35.9994 170.845 36H180.488C181.085 35.9994 181.657 35.7621 182.078 35.3403C182.5 34.9185 182.737 34.3465 182.738 33.75V25.3929C182.737 24.7963 182.5 24.2244 182.078 23.8026C181.657 23.3808 181.085 23.1435 180.488 23.1429ZM176.31 18.6429C176.31 18.4724 176.242 18.3088 176.121 18.1883C176.001 18.0677 175.837 18 175.667 18C175.496 18 175.333 18.0677 175.212 18.1883C175.092 18.3088 175.024 18.4724 175.024 18.6429V23.1429H176.31V18.6429Z" fill="white"/>
</g>
<defs>
<filter id="filter0_d_505_5750" x="0" y="0" width="160.667" height="60.6667" filterUnits="userSpaceOnUse" color-interpolation-filters="sRGB">
<feFlood flood-opacity="0" result="BackgroundImageFix"/>
<feColorMatrix in="SourceAlpha" type="matrix" values="0 0 0 0 0 0 0 0 0 0 0 0 0 0 0 0 0 0 127 0" result="hardAlpha"/>
<feOffset dx="3.33333" dy="3.33333"/>
<feGaussianBlur stdDeviation="1.66667"/>
<feComposite in2="hardAlpha" operator="out"/>
<feColorMatrix type="matrix" values="0 0 0 0 0 0 0 0 0 0.654902 0 0 0 0 0.27451 0 0 0 0.25 0"/>
<feBlend mode="normal" in2="BackgroundImageFix" result="effect1_dropShadow_505_5750"/>
<feBlend mode="normal" in="SourceGraphic" in2="effect1_dropShadow_505_5750" result="shape"/>
</filter>
<filter id="filter1_d_505_5750" x="154" y="0" width="50" height="60.6667" filterUnits="userSpaceOnUse" color-interpolation-filters="sRGB">
<feFlood flood-opacity="0" result="BackgroundImageFix"/>
<feColorMatrix in="SourceAlpha" type="matrix" values="0 0 0 0 0 0 0 0 0 0 0 0 0 0 0 0 0 0 127 0" result="hardAlpha"/>
<feOffset dx="3.33333" dy="3.33333"/>
<feGaussianBlur stdDeviation="1.66667"/>
<feComposite in2="hardAlpha" operator="out"/>
<feColorMatrix type="matrix" values="0 0 0 0 0 0 0 0 0 0.654902 0 0 0 0 0.27451 0 0 0 0.25 0"/>
<feBlend mode="normal" in2="BackgroundImageFix" result="effect1_dropShadow_505_5750"/>
<feBlend mode="normal" in="SourceGraphic" in2="effect1_dropShadow_505_5750" result="shape"/>
</filter>
</defs>
</svg>
