<svg width="31" height="31" viewBox="0 0 31 31" fill="none" xmlns="http://www.w3.org/2000/svg">
<rect width="31" height="31" rx="7.5" fill="#00A746"/>
<path d="M16.1429 9.25C16.846 9.25188 17.2029 9.25563 17.511 9.26438L17.6322 9.26875C17.7722 9.27375 17.9104 9.28 18.0772 9.2875C18.7422 9.31875 19.196 9.42375 19.5941 9.57813C20.0066 9.73688 20.3541 9.95188 20.7016 10.2988C21.0194 10.6112 21.2653 10.9891 21.4222 11.4062C21.5766 11.8044 21.6816 12.2581 21.7129 12.9238C21.7204 13.09 21.7266 13.2281 21.7316 13.3688L21.7354 13.49C21.7447 13.7975 21.7485 14.1544 21.7497 14.8575L21.7504 15.3238V16.1425C21.7519 16.5984 21.7471 17.0543 21.736 17.51L21.7322 17.6313C21.7272 17.7719 21.721 17.91 21.7135 18.0763C21.6822 18.7419 21.576 19.195 21.4222 19.5938C21.2658 20.0111 21.0198 20.3891 20.7016 20.7013C20.3891 21.019 20.0112 21.2648 19.5941 21.4219C19.196 21.5763 18.7422 21.6813 18.0772 21.7125C17.9289 21.7195 17.7806 21.7257 17.6322 21.7313L17.511 21.735C17.2029 21.7438 16.846 21.7481 16.1429 21.7494L15.6766 21.75H14.8585C14.4024 21.7516 13.9463 21.7468 13.4904 21.7356L13.3691 21.7319C13.2207 21.7263 13.0724 21.7198 12.9241 21.7125C12.2591 21.6813 11.8054 21.5763 11.4066 21.4219C10.9895 21.2652 10.6117 21.0193 10.2997 20.7013C9.98164 20.3889 9.7355 20.011 9.57849 19.5938C9.42411 19.1956 9.31911 18.7419 9.28786 18.0763C9.2809 17.9279 9.27465 17.7796 9.26911 17.6313L9.26599 17.51C9.25447 17.0543 9.24926 16.5984 9.25036 16.1425V14.8575C9.24862 14.4016 9.2532 13.9457 9.26411 13.49L9.26849 13.3688C9.27349 13.2281 9.27974 13.09 9.28724 12.9238C9.31849 12.2581 9.42349 11.805 9.57786 11.4062C9.73481 10.9887 9.98144 10.6106 10.3004 10.2988C10.6123 9.98092 10.9898 9.73499 11.4066 9.57813C11.8054 9.42375 12.2585 9.31875 12.9241 9.2875C13.0904 9.28 13.2291 9.27375 13.3691 9.26875L13.4904 9.265C13.9461 9.2539 14.402 9.2491 14.8579 9.25062L16.1429 9.25ZM15.5004 12.375C14.6716 12.375 13.8767 12.7042 13.2907 13.2903C12.7046 13.8763 12.3754 14.6712 12.3754 15.5C12.3754 16.3288 12.7046 17.1237 13.2907 17.7097C13.8767 18.2958 14.6716 18.625 15.5004 18.625C16.3292 18.625 17.124 18.2958 17.7101 17.7097C18.2961 17.1237 18.6254 16.3288 18.6254 15.5C18.6254 14.6712 18.2961 13.8763 17.7101 13.2903C17.124 12.7042 16.3292 12.375 15.5004 12.375ZM15.5004 13.625C15.7466 13.625 15.9904 13.6734 16.2179 13.7676C16.4454 13.8618 16.6521 13.9999 16.8263 14.174C17.0004 14.348 17.1386 14.5547 17.2328 14.7822C17.3271 15.0097 17.3756 15.2535 17.3757 15.4997C17.3757 15.7459 17.3273 15.9897 17.2331 16.2172C17.1389 16.4447 17.0008 16.6515 16.8267 16.8256C16.6526 16.9997 16.446 17.1379 16.2185 17.2322C15.991 17.3264 15.7472 17.375 15.501 17.375C15.0037 17.375 14.5268 17.1775 14.1752 16.8258C13.8235 16.4742 13.626 15.9973 13.626 15.5C13.626 15.0027 13.8235 14.5258 14.1752 14.1742C14.5268 13.8225 15.0037 13.625 15.501 13.625M18.7822 11.4375C18.575 11.4375 18.3763 11.5198 18.2298 11.6663C18.0833 11.8128 18.001 12.0115 18.001 12.2188C18.001 12.426 18.0833 12.6247 18.2298 12.7712C18.3763 12.9177 18.575 13 18.7822 13C18.9894 13 19.1882 12.9177 19.3347 12.7712C19.4812 12.6247 19.5635 12.426 19.5635 12.2188C19.5635 12.0115 19.4812 11.8128 19.3347 11.6663C19.1882 11.5198 18.9894 11.4375 18.7822 11.4375Z" fill="#E6F6ED"/>
</svg>
