<svg width="53" height="53" viewBox="0 0 53 53" fill="none" xmlns="http://www.w3.org/2000/svg">
<g opacity="0.4">
<path d="M31.7389 11.9639C30.7075 11.7734 29.7602 12.4316 29.5639 13.4384C29.3675 14.4452 30.0278 15.4282 31.0312 15.6252C34.0521 16.2142 36.3846 18.5526 36.9759 21.5838C37.1442 22.4564 37.9123 23.0929 38.797 23.0929C38.9157 23.0929 39.0344 23.0821 39.1552 23.0605C40.1586 22.8591 40.8189 21.8783 40.6225 20.8693C39.74 16.3419 36.2552 12.8451 31.7389 11.9639Z" fill="#00A746"/>
<path d="M31.604 4.41959C31.1207 4.3503 30.6352 4.4932 30.2489 4.80066C29.8519 5.11244 29.6037 5.5628 29.5498 6.06729C29.4354 7.08709 30.1712 8.00945 31.1897 8.12421C38.2133 8.908 43.6725 14.3794 44.4623 21.4249C44.568 22.3689 45.3599 23.0813 46.305 23.0813C46.3762 23.0813 46.4453 23.0769 46.5165 23.0683C47.0106 23.0142 47.4508 22.7695 47.7615 22.3798C48.0701 21.99 48.2103 21.505 48.1542 21.0092C47.1703 12.2186 40.3668 5.39608 31.604 4.41959Z" fill="#00A746"/>
</g>
<path fill-rule="evenodd" clip-rule="evenodd" d="M24.4018 28.1759C33.0448 36.8165 35.0055 26.8203 40.5086 32.3195C45.8139 37.6234 48.8632 38.686 42.1414 45.406C41.2994 46.0826 35.9498 54.2233 17.1496 35.4284C-1.65286 16.6311 6.48311 11.2761 7.15994 10.4343C13.8981 3.69576 14.9424 6.76275 20.2477 12.0666C25.7508 17.5682 15.7588 19.5353 24.4018 28.1759Z" fill="#00A746"/>
</svg>
