<svg width="180" height="54" viewBox="0 0 180 54" fill="none" xmlns="http://www.w3.org/2000/svg">
<rect x="0.5" y="0.5" width="179" height="53" rx="11.5" fill="#F9F9F9"/>
<rect x="0.5" y="0.5" width="179" height="53" rx="11.5" stroke="#00A746"/>
<path d="M55.1472 32H53.6112V28.784C53.6112 28.3573 53.5259 28.0053 53.3552 27.728C53.1845 27.44 52.9179 27.296 52.5552 27.296C52.3099 27.296 52.0805 27.3867 51.8672 27.568C51.6539 27.7493 51.4565 27.9733 51.2752 28.24C51.1045 28.496 50.9179 28.7573 50.7152 29.024C50.5125 29.2907 50.2459 29.5147 49.9152 29.696C49.5845 29.8773 49.2112 29.968 48.7952 29.968C48.4325 29.968 48.0539 29.8933 47.6592 29.744V28.448C48.0112 28.5547 48.3205 28.608 48.5872 28.608C48.8112 28.608 49.0192 28.5493 49.2112 28.432C49.4032 28.304 49.5579 28.1653 49.6752 28.016C49.7925 27.8667 49.9419 27.664 50.1232 27.408C50.3045 27.1413 50.4485 26.944 50.5552 26.816C50.4485 25.9627 50.1499 25.2907 49.6592 24.8C49.1685 24.3093 48.5285 24.064 47.7392 24.064V22.88H46.7472V21.6H56.8272V22.88H55.1472V32ZM52.2672 25.952C52.8752 25.952 53.3232 26.16 53.6112 26.576V22.88H49.2592C49.9419 23.1253 50.5019 23.5307 50.9392 24.096C51.3872 24.6507 51.6805 25.2853 51.8192 26C51.9579 25.968 52.1072 25.952 52.2672 25.952ZM66.0887 22.88H64.4247V32H62.9207L57.9607 28.32V26.704C59.518 25.328 61.1714 24.4107 62.9207 23.952V22.88H56.9847V21.6H66.0887V22.88ZM62.9207 30.288V25.392C61.63 25.8613 60.4247 26.5653 59.3047 27.504L62.9207 30.288ZM75.6358 32.112C75.4651 32.1333 75.3105 32.144 75.1718 32.144C74.1371 32.144 73.3638 31.744 72.8518 30.944C72.3398 30.144 72.0731 29.0667 72.0518 27.712C72.0518 26.912 72.1051 26.176 72.2118 25.504C72.3291 24.8213 72.5211 24.176 72.7878 23.568C73.0545 22.9493 73.4438 22.4693 73.9558 22.128C74.4678 21.776 75.0811 21.6 75.7958 21.6H76.1158V22.88H75.8278C74.3131 22.88 73.5558 24.4907 73.5558 27.712C73.5558 29.76 74.1425 30.784 75.3158 30.784H75.6358V32.112ZM79.1393 29.632H77.6353V22.88H76.2753V21.6H85.4273V22.88H79.1393V27.536C79.6513 26.9493 80.2273 26.3947 80.8673 25.872C81.518 25.3387 82.0353 24.9813 82.4193 24.8H83.9233V32H82.4193V26.416C81.9073 26.7893 81.3366 27.28 80.7073 27.888C80.0886 28.496 79.566 29.0773 79.1393 29.632ZM94.8229 32H93.3349V31.984L93.3189 32L86.3909 28.16V26.832H87.6869C88.5403 26.8213 89.2016 26.5813 89.6709 26.112C90.1509 25.6427 90.3909 25.0133 90.3909 24.224V24.096C89.9856 24.9067 89.3296 25.312 88.4229 25.312C87.6443 25.312 87.0363 25.0827 86.5989 24.624C86.1723 24.1653 85.9589 23.5733 85.9589 22.848C85.9589 22.3893 86.0336 21.9733 86.1829 21.6H87.6709C87.5536 21.9733 87.4949 22.3413 87.4949 22.704C87.4949 23.12 87.6016 23.4453 87.8149 23.68C88.0389 23.9147 88.3376 24.032 88.7109 24.032C89.1269 24.032 89.4416 23.888 89.6549 23.6C89.8789 23.312 89.9909 22.912 89.9909 22.4C89.9909 22.048 89.9803 21.7813 89.9589 21.6H91.3989C91.6869 22.5813 91.8309 23.456 91.8309 24.224C91.8309 25.184 91.5536 25.9947 90.9989 26.656C90.4549 27.3067 89.7136 27.7173 88.7749 27.888L93.3349 30.464V20.272H94.8229V21.6H96.5029V22.88H94.8229V32ZM94.4969 34.784C95.2009 34.784 95.6116 34.2613 95.7289 33.216C95.3236 33.056 94.9503 32.976 94.6089 32.976C94.2783 32.976 94.0169 33.0507 93.8249 33.2C93.6223 33.36 93.5209 33.5893 93.5209 33.888C93.5209 34.1653 93.6116 34.384 93.7929 34.544C93.9636 34.704 94.1983 34.784 94.4969 34.784ZM98.7369 35.648C98.1289 34.9227 97.4729 34.3093 96.7689 33.808C96.6303 34.4373 96.3743 34.9387 96.0009 35.312C95.6169 35.696 95.1156 35.888 94.4969 35.888C93.8356 35.888 93.2916 35.7013 92.8649 35.328C92.4383 34.9653 92.2249 34.4853 92.2249 33.888C92.2249 33.2587 92.4436 32.7573 92.8809 32.384C93.3183 32.0213 93.8943 31.84 94.6089 31.84C95.4089 31.84 96.1716 32.0587 96.8969 32.496C97.6116 32.944 98.2249 33.472 98.7369 34.08V35.648ZM105.633 32H104.097V31.952C104.033 31.3547 103.937 30.7893 103.809 30.256C103.692 29.712 103.526 29.1947 103.313 28.704C103.1 28.2133 102.822 27.824 102.481 27.536C102.15 27.2373 101.772 27.088 101.345 27.088C100.865 27.088 100.497 27.2373 100.241 27.536C99.9956 27.8347 99.8729 28.2347 99.8729 28.736C99.8729 28.9493 99.8943 29.2053 99.9369 29.504H98.4489C98.3849 29.2373 98.3529 28.9387 98.3529 28.608C98.3529 27.7867 98.6036 27.0987 99.1049 26.544C99.6063 25.9893 100.294 25.712 101.169 25.712C102.513 25.712 103.489 26.4267 104.097 27.856V22.88H97.4409V21.6H107.249V22.88H105.633V32Z" fill="#152934"/>
<path d="M128.267 26.4375H117.812C117.663 26.4375 117.52 26.4967 117.415 26.6022C117.309 26.7077 117.25 26.8508 117.25 27C117.25 27.1492 117.309 27.2922 117.415 27.3977C117.52 27.5032 117.663 27.5625 117.812 27.5625H128.267L124.164 31.6642C124.059 31.7698 123.999 31.9131 123.999 32.0625C123.999 32.2119 124.059 32.3551 124.164 32.4607C124.27 32.5663 124.413 32.6257 124.562 32.6257C124.712 32.6257 124.855 32.5663 124.961 32.4607L130.023 27.3982C130.076 27.346 130.117 27.2839 130.146 27.2156C130.174 27.1472 130.189 27.074 130.189 27C130.189 26.926 130.174 26.8527 130.146 26.7844C130.117 26.7161 130.076 26.654 130.023 26.6017L124.961 21.5392C124.855 21.4336 124.712 21.3743 124.562 21.3743C124.413 21.3743 124.27 21.4336 124.164 21.5392C124.059 21.6449 123.999 21.7881 123.999 21.9375C123.999 22.0869 124.059 22.2301 124.164 22.3357L128.267 26.4375Z" fill="#00A746"/>
</svg>
