<svg width="31" height="31" viewBox="0 0 31 31" fill="none" xmlns="http://www.w3.org/2000/svg">
<rect width="31" height="31" rx="7.5" fill="#00A746"/>
<path d="M22.0379 11.75C21.5566 11.9688 21.0379 12.1125 20.5004 12.1813C21.0504 11.85 21.4754 11.325 21.6754 10.6937C21.1566 11.0062 20.5816 11.225 19.9754 11.35C19.4816 10.8125 18.7879 10.5 18.0004 10.5C16.5316 10.5 15.3316 11.7 15.3316 13.1813C15.3316 13.3937 15.3566 13.6 15.4004 13.7938C13.1754 13.6813 11.1941 12.6125 9.87539 10.9937C9.64414 11.3875 9.51289 11.85 9.51289 12.3375C9.51289 13.2687 9.98164 14.0938 10.7066 14.5625C10.2629 14.5625 9.85039 14.4375 9.48789 14.25V14.2687C9.48789 15.5687 10.4129 16.6562 11.6379 16.9C11.2446 17.0076 10.8317 17.0226 10.4316 16.9438C10.6014 17.4765 10.9339 17.9428 11.3823 18.2768C11.8307 18.6109 12.3725 18.7961 12.9316 18.8063C11.9839 19.5565 10.8091 19.9621 9.60039 19.9562C9.38789 19.9562 9.17539 19.9437 8.96289 19.9187C10.1504 20.6812 11.5629 21.125 13.0754 21.125C18.0004 21.125 20.7066 17.0375 20.7066 13.4938C20.7066 13.375 20.7066 13.2625 20.7004 13.1437C21.2254 12.7687 21.6754 12.2938 22.0379 11.75Z" fill="#E6F6ED"/>
</svg>
